<?xml version="1.0" encoding="UTF-8"?>
<svg id="_レイヤー_2" data-name="レイヤー 2" xmlns="http://www.w3.org/2000/svg" viewBox="0 0 195.9963076 46.9769817">
  <defs>
    <style>
      .cls-1 {
        fill: #333;
        stroke-width: 0px;
      }
    </style>
  </defs>
  <g id="_レイヤー_3" data-name="レイヤー 3">
    <g>
      <g>
        <g>
          <path class="cls-1" d="m88.2904948,14.9071393c-.3516937.351787-.7494033.7188692-1.2083681,1.0706562l-.2599605-.2447214c1.4070735-1.4071482,2.4011982-2.9978374,2.9671352-4.7720678.8261963.1223607,1.2236071.2753116,1.2236071.4435576,0,.1070656-.1834664.1988362-.53516.2600165l-.0152391.0305902c.8411365.336492,1.4988067.7035741,1.9730105,1.1318366.4129487.3670821.6116542.7035741.6116542.9941808,0,.3059018-.1374504.4894428-.4281878.4894428-.1682273,0-.3364546-.1376558-.5046819-.4435576-.4129487-.7035741-.9941248-1.3459678-1.7895441-1.8660009-.581176,1.0859513-1.2083681,2.0036567-1.8965163,2.7684111.1222113.0305902.3364546.1376558.6424311.2753116l.0917332.0458853h.7341643v-1.8660009c.8258975.0152951,1.2388462.1070656,1.2388462.2906067,0,.1070656-.1682273.2294263-.4894428.3670821v1.208312h.7189252l.473905-.5965085c.5202198.4282625.7649412.7035741.7649412.8259348,0,.0458853-.0304781.1070656-.0917332.1529509l-.3212155.1988362v3.961428h-.7341643v-.5659183h-2.401497v2.753116c.7341643-.1988362,1.4838664-.4282625,2.2789869-.688279-.2139445-.4741478-.4894428-.9177053-.8411365-1.3306727l.2447214-.1988362c1.1623521.8106397,1.728289,1.5753942,1.728289,2.2942633,0,.3670821-.1529882.5506232-.4586659.5506232-.2294824,0-.3824706-.1988362-.4589647-.5965085-.0152391-.1223607-.046016-.2447214-.0764941-.3670821-1.1166349.5506232-2.2024928,1.024771-3.2883508,1.4071482-.0152391.3059018-.1072711.4741478-.2142433.4741478-.1987054,0-.4281878-.3670821-.7036861-1.1165415,0,0,.1072711-.0305902.3059765-.0764754.2754984-.0611804.5202198-.1223607.7189252-.168246v-7.0969213Zm.7646424.520033v1.4377384h2.401497v-1.4377384h-2.401497Zm0,3.2884441h2.401497v-1.5142138h-2.401497v1.5142138Zm5.215644-2.7837062v.6576888c0,1.4683285-.1374504,2.7225258-.3977097,3.7625919-.2904386,1.1930169-.8563756,2.233083-1.682273,3.1507883l-.2907374-.1988362c.7036861-1.0094759,1.1626509-2.1719026,1.3765954-3.5331656.1529882-.856525.2142433-1.9271812.2142433-3.1660834v-4.649707c.3977097.168246.7189252.336492.9481088.4894428h3.3803827l.7033873-.9330004c.2907374.2600165.5967139.5965085.9179294.9941808l-.1682273.2753116h-5.0016995v2.8142964h3.4108609l.5354588-.6576888c.5503991.4894428.8258975.8106397.8258975.9482955,0,.0305902-.046016.0764754-.1225101.1376558l-.3821718.1835411c-.2907374,1.6365745-.7497021,2.9978374-1.4073723,4.0684937.673208.8259348,1.5143445,1.5600991,2.5084693,2.233083-.2599605.1988362-.4742038.4435576-.6576702.7647544-.8871525-.6576888-1.6517949-1.4377384-2.2637479-2.3248535-.7798815,1.0400661-1.7895441,1.8660009-3.0896453,2.4778044l-.2139445-.3059018c1.2236071-.7494594,2.1872537-1.6977549,2.875402-2.8601816-.6576702-1.1165415-1.1318739-2.5542799-1.4530895-4.3285102h-.565937Zm.9941248,0c.2907374,1.4224433.7649412,2.6307553,1.3921332,3.6708214.4894428-.9330004.8563756-2.1719026,1.0858579-3.6708214h-2.4779912Z"/>
          <path class="cls-1" d="m103.0693978,15.0600902c-.0917332.3059018-.1837652.4588527-.2754984.4588527-.1987054,0-.3516937-.3976723-.4586659-1.208312.7033873-.0152951,1.147113-.0305902,1.3001012-.0458853.4894428-.9482955.8716146-1.9883616,1.2080692-3.1660834.8414353.2447214,1.254384.4588527,1.254384.6576888,0,.1223607-.1990042.1988362-.611953.2294263-.3059765.6270986-.7646424,1.3612629-1.4223125,2.2636732h.1374504c1.0709177,0,2.1415366-.168246,3.2273945-.2906067-.3059765-.4435576-.6729092-.8718201-1.147113-1.2847875l.1987054-.2447214c.8719134.5047379,1.5143445,1.024771,1.9425323,1.5753942.2907374.3976723.4284866.7188692.4284866.9941808,0,.3211969-.1377492.4894428-.4284866.4894428-.1987054,0-.3364546-.1529509-.4281878-.4741478-.0764941-.2141312-.1834664-.4588527-.3516937-.7188692-1.2236071.2906067-2.7531907.5353281-4.5732129.7647544Zm3.8238096,1.024771l.5046819-.5812134c.53516.4129674.7951205.6576888.7951205.7800495,0,.0458853-.0304781.1070656-.1222113.168246l-.3059765.1835411v5.8121338c0,.6118036-.4281878.9024102-1.2848622.8871152,0-.2447214-.1222113-.4129674-.3821718-.5353281-.1990042-.0611804-.5354588-.1529509-.9788857-.2294263v-.3670821c.6268932.0611804,1.1163361.1070656,1.4375516.1070656.2907374,0,.4437257-.1376558.4437257-.4129674v-1.71305h-2.7992067v3.257854h-.7646424v-7.7240199c.3059765.1070656.5964151.2294263.8719134.3670821h2.5849634Zm-2.6922345.351787v1.4377384h2.7992067v-1.4377384h-2.7992067Zm2.7992067,3.4108048v-1.6212794h-2.7992067v1.6212794h2.7992067Zm3.2118566-5.9039043c1.1013958-.4588527,2.0342655-1.024771,2.8449239-1.6977549.581176.3976723.8871525.688279.8871525.856525,0,.0917705-.1069722.1376558-.2751995.1376558-.1377492,0-.2754984-.0152951-.4129487-.0611804-.8261963.4435576-1.8507991.8259348-3.0439281,1.1624268v1.4071482c0,.1988362.046016.336492.1834664.3976723.1377492.0611804.611953.0917705,1.3921332.0917705.8563756,0,1.3305794-.0917705,1.4527907-.3059018.1377492-.2447214.2294824-.8259348.2907374-1.6977549l.3669327.1376558c0,.7188692.0307769,1.1624268.0764941,1.376558.0917332.1988362.2294824.3059018.4437257.3059018-.0152391.4129674-.2142433.6576888-.565937.7494594-.3519925.0917705-1.0096626.1376558-1.9730105.1376558-1.1318739,0-1.8355601-.0611804-2.1107596-.1988362-.2294824-.1223607-.3519925-.3823772-.3519925-.7953446v-4.7873628c.8871525.0458853,1.3461172.168246,1.3461172.351787,0,.1376558-.1990042.2600165-.5506979.3823772v2.0495419Zm0,6.1027405c1.0861567-.4129674,2.0802815-1.0094759,2.967434-1.7895254.581176.4129674.8716146.7035741.8716146.8871152,0,.0917705-.0917332.1376558-.2447214.1376558-.0917332,0-.2294824-.0152951-.4129487-.0611804-.9636466.5353281-2.0342655.9330004-3.1813785,1.2236071v1.4530335c0,.2600165.046016.3976723.1990042.4435576.1682273.0458853.519921.0764754,1.0858579.0764754.9176306,0,1.4530895-.0305902,1.6213168-.0917705.3212155-.1070656.5506979-.7800495.6424311-2.064837l.3516937.1223607c0,.7953446.046016,1.3000826.0917332,1.5295089.046016.2141312.1529882.336492.3977097.336492-.0304781.3670821-.1987054.6118036-.519921.7188692-.3059765.1070656-1.0249017.168246-2.1259987.168246-1.3308782,0-2.0955206-.0764754-2.2945248-.2447214-.1526894-.1223607-.2447214-.3823772-.2447214-.7341643v-4.7108874c.8871525.0458853,1.3461172.1529509,1.3461172.351787,0,.1223607-.1990042.2447214-.5506979.3670821v1.8812959Z"/>
        </g>
        <g>
          <path class="cls-1" d="m9.7665622,16.0165135h1.5823688c.5176676,0,1.1729031.0889259,1.1729031.6907656v5.4189923s-1.7769365.6437903-4.9958126.6437903c-3.2151866,0-7.5260214-1.7438057-7.5260214-6.5767506,0-4.8170674,4.4876324-6.706864,7.8101927-6.706864,1.4886992,0,3.3578746.0886247,3.3578746.9136551v1.6139935c-1.2636361-1.0150906-1.7728704-1.1952663-3.6909137-1.1952663-1.9173656,0-5.347676,1.2430799-5.347676,5.2612247,0,4.022984,4.6041924,6.4123871,8.4260477,4.9005718v-3.0806406c0-.6455873-.037498-1.8834718-.7889631-1.8834718Z"/>
          <path class="cls-1" d="m33.8266993,22.4476395h4.0670958c-1.12652-.4129293-1.5879407-1.7419986-1.9567459-2.7107712-.3816057-.9651583-3.3225602-7.994821-3.6526627-8.9694667-.3246811-.9607158-.7945351-.9607158-1.1662769-.9607158h-2.3386529c1.1271977.3683535.5128507,1.1525728.3279189,1.6985522-.1867368.5566715-4.1167188,10.1162417-4.1167188,10.1162417-1.3585104-.3651157-4.7623143-5.2906861-4.7623143-5.2906861,4.5391337-1.2868276,3.8343528-6.5241078-.5981602-6.5241078h-5.0946777c1.0235889.2224277.9308982,1.2878817.9308982,2.1089214v8.6984725c0,1.1956428-.3753561,1.5121918-.9746458,1.8335599h3.7291646c-1.0235889-.456677-.7525946-1.5162579-.7525946-2.0151765v-9.3830738h2.0151765c1.0717038,0,1.8654859,1.2890112,1.8654859,2.1662225,0,1.4158868-1.1206469,1.9714187-2.2423479,2.3872195-1.1184633.4084868-.5117945,1.329521,0,2.0706705.5235408.7327915,2.0140471,2.8001388,2.9004447,3.8112384.8912147,1.0077012,1.6728739.9628994,2.1052299.9628994h3.3652536c-1.3048216-.4129293-.6103584-1.4213835-.4283632-1.9228622.1868101-.5169899,1.0345823-2.6722291,1.0345823-2.6722291h5.0391816s.6092289,1.5600155,1.1692135,2.9423951c.5624694,1.3846385.1414833,1.563695-.4654845,1.6526962Zm-5.2336782-6.0645796l1.9239917-4.9245061,2.0456718,4.9245061h-3.9696635Z"/>
          <path class="cls-1" d="m74.7363719,22.4476395h4.0733444c-1.1224507-.4129293-1.5905008-1.7419986-1.9562942-2.7107712-.3746751-.9651583-3.321506-7.994821-3.6468648-8.9694667-.3298013-.9607158-.7945351-.9607158-1.1698912-.9607158h-2.333906c1.1235803.3683535.5125443,1.1525728.3290484,1.6985522-.1926884.5566715-4.1134088,10.1162417-4.1134088,10.1162417-.2632387.5963531-.6471033.6106595-.8805244.8261599h3.3556156c-1.3085131-.4129293-.6029792-1.4213835-.4224168-1.9228622.1801107-.5169899,1.0265255-2.6722291,1.0265255-2.6722291h5.0527371s.6096054,1.5600155,1.1665781,2.9423951c.5526055,1.3846385.1345559,1.563695-.4805429,1.6526962Zm-5.2211016-6.0645796l1.9088539-4.9245061,2.0626137,4.9245061h-3.9714675Z"/>
          <path class="cls-1" d="m60.3619249,22.6869337c.4684233-.4220403.8908401-.7411494.8908401-2.2132932v-8.6896527c0-.6894203-.0359891-1.4703266-.8908401-1.7548744h3.6045478c-.3716665.3264883-.8154677.7382881-.8154677,1.66v8.784527c0,.7827234-.1705479,1.9346186.8724676,2.2132932h-3.6615477Z"/>
          <path class="cls-1" d="m41.0166673,12.7490708s-.0459312,6.9414145-.0459312,7.7245697c0,.7827234.1029311,1.9346186,1.127273,2.2132932h-3.4160039c.4709834-.4220403.8456618-.7411494.8456618-2.2132932,0-1.4673047.0874952-8.0055032.0874952-8.6896527,0-.6894203-.0874952-1.4703266-.9331571-1.7548744h2.6210923l7.8447539,9.7077549v-7.9106388c0-.5051683.09819-1.4706278-.9756999-1.8386801h3.5034238c-.422113.3261118-1.0375188.4577311-1.0375188,1.7964384v11.4103731s-.9677184.1771741-2.5597252-1.7096208c-1.591555-1.8824277-7.0616639-8.7356692-7.0616639-8.7356692Z"/>
          <path class="cls-1" d="m63.3436904,32.4700609c-10.2765492-8.5220513-14.2035193-18.555165-.1507448-32.2520101.4371027-.4209967.8584623-.1695043.5117944.2231806-6.1653272,6.9253009-13.026249,18.016866-.143441,31.6027231.203001.2173075.1220566.6559131-.2176086.4261063Z"/>
        </g>
        <g>
          <path class="cls-1" d="m135.4425462,19.894104l.5910366-.7452201c.3083669.2698211.5653394.5396421.7580687.7966145l-.1284862.2312752h-4.4584717c.9251008,1.2848622,2.5697244,2.0686281,4.9210221,2.3384492-.2441238.2312752-.4240045.475399-.5524907.7323714-2.2870547-.4625504-3.8288893-1.4133484-4.6126552-2.8395454-.475399,1.6831694-2.1842657,2.6853619-5.1266001,2.9937289l-.1541835-.2698211c2.6982106-.4368531,4.2528938-1.426197,4.6512011-2.955183h-4.3042883l-.1284862-.2826697h4.4970176c.0256972-.1670321.0256972-.3083669.0256972-.4368531v-1.0021925c.7452201.1284862,1.1306787.2698211,1.1306787.4111559,0,.0770917-.1541835.1541835-.4497018.2184266v.37261c0,.0899404,0,.2441238-.0256972.4368531h3.3663389Zm-2.852394-5.0752056c.3340642-.5653394.6167338-1.2334677.8737063-1.9786877.7066742.1927293,1.053587.3854587,1.053587.5653394,0,.0899404-.1670321.1541835-.4882476.1670321-.2826697.4240045-.6424311.8351604-1.0407384,1.2463163h2.1714171l.5396421-.7066742c.2441238.2184266.4882476.475399.7452201.7709173l-.102789.2184266h-4.2143479v1.323408h2.7496051l.5267935-.680977c.2698211.2184266.5267935.475399.7580687.7452201l-.1413348.2184266h-3.8931324v1.426197h3.4434306l.5910366-.7323714c.2826697.2826697.5396421.5396421.7323714.7837659l-.1156376.2441238h-9.9319846l-.102789-.2955183h4.7154442v-1.426197h-3.7004031l-.1156376-.2826697h3.8160407v-1.323408h-4.111559l-.1284862-.2826697h5.3707239Zm-3.327793-1.9272933c1.053587.4111559,1.5803805.8865549,1.5803805,1.4390456,0,.2955183-.1541835.4368531-.4497018.4368531-.1670321,0-.2826697-.102789-.3469128-.3083669-.1284862-.4882476-.4368531-.9379494-.9379494-1.3362567l.1541835-.2312752Z"/>
          <path class="cls-1" d="m140.969844,17.517109c-.5139449,1.3748025-1.1949218,2.582573-2.0557795,3.63616l-.2569724-.1927293c1.0407384-1.528986,1.7731098-3.2250041,2.1971143-5.1137515h-1.8373529l-.0899404-.2955183h2.0429309v-2.5183299c.7709173,0,1.156376.0899404,1.156376.2698211,0,.102789-.1670321.2184266-.475399.3469128v1.901596h.8608577l.5267935-.7837659c.0256972.0513945.0899404.102789.1798807.2055779.1541835.1541835.3212155.37261.5267935.6552797l-.1284862.2184266h-1.9658391v1.156376c1.2334677.6295825,1.8630502,1.2206191,1.8630502,1.8373529,0,.2955183-.1413348.4368531-.4240045.4368531-.1541835,0-.2698211-.1284862-.3854587-.3983073-.2055779-.5396421-.5396421-1.053587-1.053587-1.5161374v6.013155h-.680977v-5.8589715Zm2.0172336,5.2422377c2.2485088-1.0021925,4.0216186-2.4155409,5.3707239-4.2271966.5910366.3597614.8865549.6038852.8865549.7580687,0,.102789-.0899404.1541835-.2955183.1541835-.0642431,0-.1541835-.0128486-.2698211-.0385459-1.4775915,1.6189263-3.3149444,2.8395454-5.5249074,3.63616l-.1670321-.2826697Zm.475399-6.0517008c1.5546832-.9122521,2.8138482-1.9786877,3.7646462-3.2507013.5910366.3212155.8865549.5653394.8865549.7323714,0,.0899404-.102789.1413348-.3083669.1413348h-.102789c-.0642431-.0128486-.1156376-.0128486-.1413348-.0256972-1.0407384,1.053587-2.3512978,1.9401419-3.9316783,2.6468161l-.1670321-.2441238Zm.0513945,2.8138482c1.631775-.8351604,3.0194261-2.004385,4.1629534-3.4948251.6038852.3469128.9122521.6038852.9122521.7580687,0,.0770917-.102789.1156376-.2698211.1156376-.0642431,0-.1670321-.0128486-.3083669-.0385459-1.2077704,1.2463163-2.6468161,2.2099629-4.3299855,2.9037885l-.1670321-.2441238Z"/>
          <path class="cls-1" d="m153.5121904,16.9517696c.6424311-1.0150411,1.2720136-2.2999033,1.8373529-3.8288893.7195228.2441238,1.0792842.4625504,1.0792842.6295825,0,.1156376-.1798807.1798807-.5524907.2055779-.5139449,1.0021925-1.1692246,1.9915364-1.9658391,2.9808802l.7066742-.0128486c1.053587-.0385459,2.1200226-.102789,3.1736096-.1798807l1.4775915-.1156376c-.5139449-.578188-1.1178301-1.1435273-1.8116557-1.6831694l.1670321-.2441238c2.2485088,1.3748025,3.3663389,2.4155409,3.3663389,3.1222151,0,.2698211-.1284862.4111559-.3854587.4111559-.1413348,0-.3083669-.1541835-.4882476-.4625504-.1541835-.2441238-.3469128-.5139449-.5910366-.8351604l-.2955183.0385459c-1.9401419.2312752-4.278591.5139449-7.0281961.7195228-.102789.2955183-.2055779.4497018-.2955183.4497018-.1670321,0-.2955183-.3854587-.3983073-1.1435273.1156376,0,.2955183-.0128486.5524907-.0128486.2184266,0,.3983073-.0128486.5267935-.0128486l.9251008-.0256972Zm5.2936322,2.004385l.4368531-.5267935c.5010962.37261.7452201.6167338.7452201.7452201,0,.0513945-.0385459.102789-.102789.1541835l-.2955183.1798807v3.7646462h-.6938256v-.8737063h-5.2936322v.8737063h-.7066742v-4.7154442c.3340642.1284862.6295825.2698211.8737063.3983073h5.0366597Zm-5.2036918.2955183v2.8652427h5.2936322v-2.8652427h-5.2936322Z"/>
          <path class="cls-1" d="m166.5822268,21.9113376v-.4625504c.4497018-.7709173,1.1692246-1.8116557,2.1328712-3.1222151.8737063-1.2077704,1.2977108-2.1328712,1.2977108-2.7753023,0-.37261-.0899404-.7195228-.2569724-.9893439-.2441238-.37261-.578188-.5524907-1.0278897-.5524907-.3469128,0-.6295825.102789-.8608577.3212155-.2441238.2184266-.3854587.5139449-.4240045.8737063.2698211.0770917.3983073.2441238.3983073.5267935,0,.37261-.1798807.5524907-.5396421.5524907-.3983073,0-.5910366-.2441238-.5910366-.7066742,0-.4882476.1798807-.9379494.5524907-1.3105594.3983073-.4111559.8994035-.6038852,1.5032887-.6038852.5267935,0,.9764953.1284862,1.3362567.3983073.475399.3597614.7066742.8608577.7066742,1.5032887,0,.5653394-.2055779,1.1435273-.6295825,1.7602612-.1927293.2826697-.5010962.680977-.950798,1.1949218-.7837659.9122521-1.4904401,1.8116557-2.107174,2.7496051h2.5440271c.4240045,0,.6938256-.1798807.8351551-.5396421.077097-.2184266.1413401-.5396421.179886-.950798h.2698211v2.1328712h-4.3685314Z"/>
          <path class="cls-1" d="m180.4213876,14.7289581v7.4136548c0,.5267935-.2055835.8351604-.6038852.9379494-.1927293.0513945-.4240045.0899404-.6681283.0899404,0-.2441238-.1413348-.3983073-.4240045-.5139449-.1798807-.0770917-.5653394-.1670321-1.1178301-.2441238l-.3212155-.0385459v-.3212155c.8094632.0899404,1.4518943.1284862,1.9529905.1284862.2955183,0,.4368531-.1156376.4368531-.3469128v-7.1052878h-4.4327745l-.1413348-.2955183h8.2359665l.6681283-.848009c.4240045.3469128.7323714.6681283.9251008.9122521l-.1284862.2312752h-4.38138Z"/>
          <path class="cls-1" d="m194.8142344,13.9965866l.4625504-.578188c.475399.3854587.7195228.6295825.7195228.7452201,0,.0642431-.0256972.1156376-.0899404.1541835l-.2955183.2055779v8.6471224h-.7195228v-.9251008h-5.4606642v.9251008h-.7066742v-9.5722232c.4111559.1927293.6938256.3212155.848009.3983073h5.2422377Zm-5.3835725.2826697v2.2999033h5.4606642v-2.2999033h-5.4606642Zm5.4606642,4.9210221v-2.3384492h-5.4606642v2.3384492h5.4606642Zm0,2.7496051v-2.4669354h-5.4606642v2.4669354h5.4606642Z"/>
        </g>
      </g>
      <g>
        <path class="cls-1" d="m2.9938735,43.7905235c-.604184.9122521-1.3876511,1.7088667-2.3641464,2.3898436l-.2055779-.2312752c1.1306787-.9636466,1.9655403-2.0300822,2.4926326-3.2121554H.835305l-.1159364-.2955183h2.2745049v-1.3619539c.7195228.0385459,1.091834.1284862,1.091834.2569724,0,.0770917-.1541835.1670321-.449403.2698211v.8351604h1.1689258l.4882476-.6424311c.2569724.2698211.4756978.5010962.6424311.7323714l-.1284862.2055779h-2.1711183v.4625504c1.297412.475399,1.9398431.9636466,1.9398431,1.5161374,0,.2569724-.1153388.3854587-.346614.3854587-.1159364,0-.2312752-.0899404-.3472116-.2826697-.2952195-.475399-.6938256-.9122521-1.2460175-1.2720136v3.3406417h-.6424311v-3.0965178Zm.6292837-3.2121554c.2958171-.680977.5139449-1.3748025.6812758-2.0814767.6424311.2312752.9633478.4240045.9633478.5653394,0,.0899404-.141036.1413348-.4625504.1541835-.1667333.3597614-.4625504.8094632-.8348616,1.3619539h1.1049815l.4751002-.6681283c.2312752.2441238.4243033.4882476.5910366.7323714l-.1284862.2312752H.6936714l-.1153388-.2955183h3.0448245Zm-.6292837-2.479784v-1.5803805c.7320726.0256972,1.1049815.1284862,1.1049815.2826697,0,.0899404-.1541835.1927293-.4625504.2955183v1.0021925h1.1689258l.4625504-.6938256c.2312752.2184266.4243033.4368531.5653394.6424311l.0902392.1156376-.1416336.2184266H.976341l-.1284862-.2826697h2.1460186Zm-1.3876511.4368531c.7966145.475399,1.2077704.9893439,1.2077704,1.5032887,0,.2955183-.1416336.4240045-.4111559.4240045-.1798807,0-.2826697-.1284862-.3083669-.4111559-.0388447-.4240045-.2444226-.8737063-.6555785-1.3362567l.1673309-.1798807Zm5.4992101,2.4026923v.1927293c0,1.2206191-.1159364,2.2613574-.3472116,3.1093665-.2826697,1.0150411-.7834671,1.8758988-1.5029899,2.6082702l-.2312752-.1927293c.6167338-.8865549,1.0278897-1.901596,1.2203203-3.0322747.1284862-.7966145.1930281-1.7217153.1930281-2.7881509v-3.2892472c.3083669.102789.5521919.2184266.7577699.3083669.9125509-.2826697,1.6703208-.6552797,2.3127519-1.156376.5139449.3340642.7840647.578188.7840647.7066742,0,.0770917-.0645419.1156376-.2055779.1156376-.102789,0-.2055779-.0128486-.3340642-.0513945-.7709173.2826697-1.6320738.5267935-2.6468161.7066742v2.479784h2.6211188l.5396421-.7580687c.2952195.2569724.5396421.5267935.7320726.7966145l-.1153388.2441238h-1.5675319v5.807577h-.6681283v-5.807577h-1.5418346Z"/>
        <path class="cls-1" d="m18.7486742,39.7946022v.475399c0,.9251008-.3215143,1.6446236-.950798,2.1585685.5910366.0642431.8862561.1670321.8862561.3083669,0,.0770917-.141036.1670321-.4237057.2569724v.4625504h3.4948251l.5910366-.6167338c.243825.1670321.5139449.3983073.7966145.6938256l-.1284862.2055779h-4.4970176c.0256972.0256972.0382471.0385459.0639443.0513945,1.1695234.9251008,2.7753023,1.5161374,4.6643485,1.9144446-.2444226.2055779-.4368531.4368531-.5270923.7066742-1.8884486-.6038852-3.3788887-1.4518943-4.4581729-2.5054812v2.9808802h-.6681283v-2.582573c-1.2334677,1.0664356-2.814147,1.8373529-4.75399,2.3256005l-.1284862-.2826697c1.9141458-.6038852,3.4434306-1.4904401,4.5484121-2.6082702h-4.3171369l-.1284862-.2826697h4.7796873v-.8737063c-.3083669.2055779-.706973.3854587-1.1695234.5396421l-.1284862-.2441238c1.2077704-.5524907,1.8119545-1.4133484,1.8119545-2.5954216v-1.0664356c.141036.0642431.3597614.1541835.6549809.2955183h1.901596l.3215143-.3469128c.4111559.2826697.6167338.475399.6167338.5653394,0,.0385459-.0256972.0642431-.0902392.102789l-.2312752.1541835v1.8116557c0,.1927293.1416336.2826697.4111559.2826697.2444226,0,.3986061-.0770917.4500006-.2441238.0896415-.2441238.1541835-.6424311.1798807-1.1820732l.2952195.102789c-.0125498.102789-.0125498.2055779-.0125498.3083669,0,.6552797.141036.9636466.4111559.950798,0,.2826697-.102789.4497018-.2958171.5267935-.1541835.0770917-.4368531.102789-.8605589.102789-.4500006,0-.7452201-.0385459-.9125509-.102789-.1924305-.0770917-.2826697-.2441238-.2826697-.5267935v-2.2228116h-1.9141458Zm-1.9147434-2.1585685l.5013951-.6681283c.243825.2055779.4625504.4625504.6549809.7323714l-.141036.2184266h-2.4029911c.5910366.3469128.8737063.6938256.8737063,1.053587,0,.2826697-.1284862.4240045-.3854587.4240045-.2055779,0-.3083669-.1284862-.346614-.37261-.0645419-.4368531-.2701199-.7837659-.5910366-1.1049815h-.2701199c-.449403.7837659-1.053587,1.4518943-1.798807,2.0172336l-.2055779-.2055779c.8611565-.8737063,1.5035876-1.9786877,1.9147434-3.3406417.6806781.1284862,1.0147423.2569724,1.0147423.3983073,0,.102789-.1541835.1798807-.5007974.2312752-.0902392.2441238-.1798807.4497018-.2569724.6167338h1.9398431Zm-1.2203203,2.4669354v1.6446236c.6292837-.102789,1.2717147-.2312752,1.9141458-.37261l.0388447.2826697c-1.2980096.4368531-2.5571745.7709173-3.7906422,1.0150411-.0639443.2698211-.1284862.4111559-.2055779.4111559-.1541835,0-.3083669-.3469128-.4751002-1.0150411.449403-.0513945,1.0792842-.1156376,1.8884486-.2312752v-1.7345639h-1.5161374l-.102789-.2826697h2.9940277l.4882476-.578188c.2695223.2441238.4882476.4625504.6424311.6681283l-.1284862.1927293h-1.7474126Zm6.1673384-2.4669354l.5396421-.7066742c.2569724.2312752.5007974.4882476.7320726.7709173l-.1284862.2184266h-3.2635499c.6681283.3212155.9896427.6552797.9896427,1.0021925,0,.2569724-.1284862.3854587-.3729088.3854587-.1924305,0-.3083669-.0899404-.346614-.2698211-.0770917-.4368531-.3083669-.7966145-.7195228-1.1178301h-.1930281c-.3980085.5524907-.8605589,1.0278897-1.4390456,1.4133484l-.1924305-.1670321c.7709173-.8094632,1.3105594-1.7217153,1.5932291-2.7496051.6424311.102789.9633478.2312752.9633478.3854587,0,.0899404-.1541835.1670321-.449403.2312752-.0902392.2441238-.1930281.4368531-.2958171.6038852h2.5828718Zm-2.6211188,2.5054812c.6292837.475399.950798.9379494.950798,1.4133484,0,.2826697-.1284862.4240045-.3986061.4240045-.1798807,0-.2952195-.1413348-.2952195-.4625504-.0131474-.4497018-.1673309-.848009-.4500006-1.2206191l.1930281-.1541835Z"/>
        <path class="cls-1" d="m25.1879253,41.9660192c1.5932291-1.323408,2.7496051-3.0451234,3.4816777-5.1651459.6938256.2441238,1.0410372.4368531,1.0410372.5910366,0,.102789-.1541835.1798807-.4882476.2569724-.5784868,1.2077704-1.1952206,2.1842657-1.863349,2.9166371-.5264947.5653394-1.1689258,1.1178301-1.9786877,1.631775l-.1924305-.2312752Zm1.8758988-.5910366l-.0902392-.2955183h5.3193294l.4368531-.5139449c.4500006.3469128.6812758.578188.6812758.6938256,0,.0513945-.0388447.1156376-.1159364.1670321l-.243825.1798807c-.0131474,2.274206-.1930281,3.7517976-.5653394,4.4327745-.2444226.4625504-.706973.6938256-1.3494041.6938256,0-.2312752-.1541835-.3983073-.4368531-.5139449-.2181278-.0899404-.6292837-.1927293-1.2203203-.2826697v-.3083669c.7709173.102789,1.3876511.1541835,1.8113569.1541835.3986061,0,.6681283-.2441238.7840647-.7195228.1924305-.8094632.2952195-2.0429309.3083669-3.6875544h-2.7496051c-.1159364,1.3876511-.4368531,2.5054812-.9896427,3.3406417-.5910366.9122521-1.5161374,1.6189263-2.7878521,2.1457198l-.1673309-.2569724c1.3494041-.7195228,2.2745049-1.7217153,2.7370552-2.955183.2569724-.680977.4111559-1.4518943.4751002-2.274206h-1.8370541Zm4.3039895-4.5741093c1.0667344,1.8630502,2.3641464,3.2507013,3.8934312,4.1629534-.231277.1670321-.4243033.3983073-.604184.7066742-1.1306787-.8865549-2.0557795-1.9272933-2.7496051-3.1093665-.2569724-.4497018-.5396421-.9893439-.8348616-1.5932291l.2952195-.1670321Z"/>
        <path class="cls-1" d="m39.7988999,38.8566528l.5270923-.6038852c.2569724.2055779.5007974.4368531.7195228.6938256l-.1159364.2055779h-3.6747058l-.1153388-.2955183h2.6593659Zm-.346614,1.4518943l.4625504-.5910366c.2312752.1670321.4625504.3983073.6938256.680977l-.1284862.1927293h-2.8009995l-.1159364-.2826697h1.8890462Zm.0125498,1.4390456l.4500006-.578188c.2312752.1798807.4625504.3983073.6938256.6552797l-.1541835.2184266h-2.7627525l-.1284862-.2955183h1.901596Zm.1930281,1.4775915l.3723112-.4625504c.4500006.3469128.6812758.578188.6812758.6938256,0,.0385459-.0256972.0770917-.0902392.1156376l-.243825.1413348v3.1736096h-.6298813v-.7452201h-1.5286872v.7452201h-.6424311v-4.00877c.0770917.0256972.3209167.1413348.7195228.3469128h1.3619539Zm-.1541835-5.8204257l.4625504-.6167338c.2312752.1927293.4625504.4240045.7063754.6938256l-.1153388.2055779h-2.814147l-.1153388-.2826697h1.8758988Zm-1.2848622,6.115944v2.3384492h1.5286872v-2.3384492h-1.5286872Zm6.1284938-.4111559c-.2695223.2698211-.6035864.5524907-.9633478.848009v1.8116557c.5139449-.0899404,1.1049815-.2312752,1.7599624-.3983073l.0770917.2826697c-1.1306787.4368531-2.145421.7452201-3.0836692.9379494-.0382471.2569724-.1153388.3854587-.1924305.3854587-.1416336,0-.2958171-.3083669-.4368531-.9379494.4368531-.0513945.848009-.0899404,1.2334677-.1541835v-1.5032887c-.5910366.3212155-1.2980096.578188-2.107174.8094632l-.1416336-.2698211c1.2466151-.4240045,2.2488076-1.0278897,3.0065775-1.8116557h-2.6593659l-.1159364-.2955183h1.863349v-.9379494h-1.2077704l-.1159364-.2826697h1.3237068v-.848009h-1.4647429l-.102789-.2955183h1.5675319v-1.0792842c.7063754.0513945,1.0661368.1541835,1.0661368.3083669,0,.0899404-.1541835.1927293-.4368531.2826697v.4882476h1.7091655v-1.1049815c.6938256.0513945,1.0404396.1541835,1.0404396.2955183,0,.0899404-.141036.1670321-.4111559.2569724v.5524907h.7583675l.4368531-.5267935c.2055779.1798807.3854587.3854587.5653394.6038852l-.1284862.2184266h-1.6320738v.848009h.604184l.449403-.5396421c.1284862.1156376.3215143.3212155.5653394.5910366l-.1284862.2312752h-1.4904401v.9379494h1.0153399l.4237057-.5396421c.2444226.2184266.4368531.4111559.5784868.6038852l-.1284862.2312752h-2.7239078c.1924305.5267935.4751002,1.0021925.8223118,1.4390456.4111559-.37261.7966145-.7966145,1.1306787-1.2720136.5007974.3212155.7452201.5396421.7452201.6681283,0,.0899404-.0902392.1156376-.2569724.1156376l-.2569724-.0256972c-.2826697.2312752-.6555785.475399-1.1695234.7323714.4756978.5139449,1.1695234.9764953,2.0814767,1.3748025-.2312752.2055779-.4111559.4240045-.5396421.6167338-1.4904401-.8351604-2.4669354-2.0429309-2.8906411-3.6490086h-.0388447Zm-3.4559804-3.533371c.8605589-.3854587,1.5418346-.8608577,2.0426321-1.426197.5653394.2184266.8354592.3983073.8354592.5139449,0,.102789-.1541835.1541835-.4756978.1541835h-.0125498c-.6424311.4240045-1.4007986.7452201-2.2231104.9764953l-.1667333-.2184266Zm2.8780913-1.8630502v-1.2206191c.7195228.0128486,1.0792842.0899404,1.0792842.2441238,0,.0770917-.1416336.1670321-.4243033.2698211v.7066742h1.8758988l.5396421-.6424311c.2444226.2184266.4756978.4625504.6812758.7195228l-.1159364.2184266h-6.2444302l-.141036-.2955183h2.7496051Zm-.5527895,3.0322747v.848009h1.7091655v-.848009h-1.7091655Zm0,1.1306787v.9379494h1.7091655v-.9379494h-1.7091655Zm1.6960181-3.6747058c.8611565.1541835,1.5035876.3597614,1.9404407.6167338.3209167.1927293.4751002.37261.4751002.5653394,0,.2184266-.1153388.3340642-.3340642.3340642-.0896415,0-.1924305-.0513945-.2826697-.1541835-.4751002-.475399-1.1175313-.848009-1.9272933-1.1178301l.1284862-.2441238Z"/>
        <path class="cls-1" d="m52.0331782,40.1800608c0,.0899404-.1416336.1927293-.4500006.3083669v6.3986136h-.6806781v-5.9489119c-.4756978.7966145-.9764953,1.528986-1.5161374,2.1842657l-.2312752-.1798807c1.2077704-1.7731098,2.1197238-3.905981,2.7496051-6.4243109.7452201.1927293,1.1175313.37261,1.1175313.5396421,0,.102789-.1798807.1798807-.5396421.2441238-.2695223.8994035-.6167338,1.7602612-1.0278897,2.5954216.3854587.0642431.5784868.1541835.5784868.2826697Zm4.111559,2.5183299v3.2892472h2.2739072l.5910366-.848009c.2701199.2441238.5270923.5396421.7966145.8994035l-.141036.2312752h-7.3368618l-.141036-.2826697h3.2504025v-3.2892472h-2.5183299l-.1284862-.2826697h2.6468161v-2.7753023h-2.8392466l-.1284862-.2955183h5.6533936l.5521919-.7837659c.3215143.2955183.5784868.578188.7583675.848009l-.1284862.2312752h-3.160761v2.7753023h1.6189263l.5396421-.7709173c.2695223.2569724.5139449.5396421.7452201.8351604l-.1284862.2184266h-2.7753023Zm-1.7091655-6.1673384c1.2848622.6424311,1.9404407,1.2591649,1.9404407,1.8758988,0,.3083669-.1416336.4497018-.4243033.4497018-.1924305,0-.3209167-.1541835-.4237057-.4497018-.1798807-.5653394-.6167338-1.1049815-1.2591649-1.631775l.1667333-.2441238Z"/>
        <path class="cls-1" d="m66.4385748,38.3812538v-1.8502015c.7966145.0128486,1.1952206.102789,1.1952206.2826697,0,.0899404-.1798807.2055779-.5139449.3212155v1.2463163h3.5330722l.4882476-.5910366c.5784868.5396421.8737063.8865549.8737063,1.053587,0,.0899404-.0513945.1284862-.1667333.1413348l-.3854587.0642431c-.3083669.3854587-.6555785.7837659-1.0924344,1.1692246l-.218125-.1670321c.2312752-.4368531.4237057-.8865549.5396421-1.3748025h-7.5938343v.2184266c0,.5524907-.102789,1.0021925-.2826697,1.3619539-.1667333.3083669-.346614.4625504-.5778892.4625504-.102789,0-.2187254-.0513945-.3215143-.1541835-.0896415-.0770917-.1284862-.1670321-.1284862-.2698211,0-.1284862.0770917-.2569724.2187254-.4111559.4237057-.4240045.6424311-1.0921328.7063754-1.9786877l.2958171.0256972c.0382471.1927293.0513945.3340642.0639443.4497018h3.3663389Zm-.5521919,2.5440271c-1.156376.2826697-2.2745049.5139449-3.3663389.680977l-.1541835-.2826697c2.5954216-.5010962,4.7025956-1.1820732,6.2958247-2.0557795.5778892.3340642.8737063.578188.8737063.7195228,0,.0642431-.0902392.102789-.2444226.102789-.1153388,0-.2569724-.0256972-.4111559-.0513945-.7709173.2826697-1.5418346.5267935-2.2996045.7195228v2.1585685l3.6490086-.5010962.5653394-.8865549c.3209167.2055779.6549809.4625504,1.0147423.7709173l-.1284862.2441238-5.100604.6938256v2.2613574c0,.2055779.0639443.3212155.1924305.3854587.1541835.0385459.7452201.0770917,1.76056.0770917,1.0021925,0,1.5932291-.0385459,1.7856596-.102789.2701199-.102789.4882476-.7195228.604184-1.8502015l.3083669.1413348c-.0131474.1541835-.0131474.3340642-.0131474.5139449,0,.5267935.0513945.8608577.1284862.9893439.0513945.102789.1673309.1413348.3597614.1413348-.0382471.4111559-.243825.6295825-.6167338.680977-.3980085.0642431-1.194623.102789-2.3641464.102789-1.4772927,0-2.3253017-.0513945-2.5440271-.1798807-.2055779-.1156376-.2952195-.3597614-.2952195-.7452201v-2.3127519l-3.9316783.5396421-.1541835-.3083669,4.0858617-.5524907v-2.0943253Z"/>
        <path class="cls-1" d="m83.8511466,36.4925064l.346614.3469128-9.9830803,9.9833791-.3472116-.3469128,9.9836779-9.9833791Z"/>
        <path class="cls-1" d="m96.4445887,40.5655195c-.2055779.1798807-.3854587.4111559-.5264947.7066742-1.9918352-.950798-3.559367-2.2099629-4.7025956-3.803192-.4625504.6681283-.8737063,1.1949218-1.2334677,1.5803805-1.0021925,1.053587-2.2488076,1.9401419-3.7774979,2.6211188l-.1541803-.2441238c1.4904401-.8223118,2.7239078-1.8502015,3.6747058-3.0965178.3854587-.5139449.7834671-1.1306787,1.194623-1.8502015.6424311.1670321.9639454.3340642.9639454.4882476,0,.0899404-.1541835.1541835-.4756978.2184266,1.4390456,1.5675319,3.1225139,2.6982106,5.0366597,3.3791875Zm-4.9464206,3.1093665v2.3384492h2.9037885l.6292837-.8094632c.2958171.2312752.5784868.5267935.8611565.8737063l-.1284862.2312752h-9.0585771l-.1284862-.2955183h4.2400452v-2.3384492h-2.7878521l-.1416368-.2955183h2.929489v-2.1328712h-2.8649438l-.102789-.2955183h5.2804847l.5653394-.5396421c.2569724.1670321.5396421.37261.809762.6038852l-.1416336.2312752h-2.8649438v2.1328712h1.6446236l.5653394-.680977c.1798807.1670321.449403.4111559.7709173.7580687l-.1159364.2184266h-2.8649438Z"/>
        <path class="cls-1" d="m102.4738792,45.4222985v-.2569724c.5007974-.0256972.7966145-.1156376.8994035-.2955183.0770917-.1156376.102789-.3083669.102789-.5910366v-5.7818798c0-.2698211-.0770917-.4368531-.2444226-.5010962-.102789-.0513945-.3597614-.0770917-.7577699-.0899404v-.2698211c.6292837-.0642431,1.2077704-.2441238,1.7085679-.5396421v7.1823796c0,.3854587.0902392.6295825.2701199.7452201.141036.0899404.3980085.1284862.7577699.1413348v.2569724h-2.7364576Z"/>
        <path class="cls-1" d="m113.5631362,40.8481891c.1284862,1.2463163.3597614,2.2228116.6938256,2.9166371.2312752.4882476.3854587.7323714.5013951.7323714.0770917,0,.1924305-.5653394.3340642-1.6703208l.3083669.1541835c-.0388447.5653394-.0513945,1.0021925-.0513945,1.3362567,0,.5267935.102789.848009.3083669.9122521-.0256972.3212155-.1673309.4882476-.4243033.4882476-.3723112,0-.7577699-.3083669-1.1820732-.9251008-.6167338-.9122521-.9890451-2.2099629-1.1306787-3.8802838h-1.5800817v3.3149444c.5264947-.1156376,1.1049815-.2826697,1.7599624-.4882476l.0513945.2826697c-.9376506.4497018-1.8245043.8094632-2.6468161,1.053587-.0382471.2826697-.0770917.4368531-.1798807.4368531-.141036,0-.3340642-.3340642-.5396421-.9893439.2826697-.0385459.5784868-.102789.8868537-.1541835v-6.9511044c.2055779.0513945.4237057.1284862.6806781.2055779l.0902392.0513945c1.297412-.2184266,2.3127519-.5267935,3.0705218-.9251008.4500006.3469128.6812758.578188.6812758.7195228,0,.0770917-.0513945.102789-.1673309.102789-.1153388,0-.2569724-.0128486-.4111559-.0770917-.2952195.0642431-.6938256.1541835-1.156376.2312752v.7580687c0,.7966145.0256972,1.4904401.0902392,2.0814767h.8737063l.4882476-.6681283c.2695223.2826697.5007974.5267935.6424311.7452201l-.102789.2055779h-1.8890462Zm-.1924305,5.2550863l.5264947-.6295825c.2444226.2055779.4756978.4368531.706973.7066742l-.1159364.2055779h-3.8802838l-.1153388-.2826697h2.8780913Zm-2.0300822-5.4863615h1.5418346c-.0256972-.6424311-.0513945-1.3491053-.0513945-2.1200226v-.6681283c-.3729088.0513945-.8480128.102789-1.4264958.1670321h-.0639443v2.6211188Zm6.861164-.0770917c1.1049815.7709173,1.6446236,1.7602612,1.6446236,3.0065775,0,1.0792842-.4243033,1.6574722-1.2848661,1.7217153-.0131435-.2441238-.1284822-.4240045-.3729049-.5267935-.141036-.0513945-.4368531-.1284862-.848009-.2055779v-.2955183c.3986061.0642431.7709173.102789,1.0924317.102789.3083669,0,.5007974-.0899404.5910366-.2955183.0770917-.1541835.1153388-.4240045.1153388-.7966145,0-.9764953-.4882476-1.8887474-1.4647429-2.7624537l.0513945-.102789c.3597614-.8223118.6812758-1.7474126.9639454-2.8009995h-1.8376517v9.3024021h-.6681283v-9.9833791c.2187254.0899404.4756978.2184266.7583675.3983073h1.7085679l.3986061-.5267935c.5007974.4368531.7452201.7066742.7452201.8351604,0,.0513945-.0388447.0899404-.102789.1156376l-.3340642.1156376c-.4111559.9893439-.8354592,1.8502015-1.3105594,2.5954216.0256972.0128486.0770917.0385459.1541835.102789Z"/>
      </g>
    </g>
  </g>
</svg>