<?xml version="1.0" encoding="UTF-8"?>
<svg id="_レイヤー_2" data-name="レイヤー 2" xmlns="http://www.w3.org/2000/svg" xmlns:xlink="http://www.w3.org/1999/xlink" viewBox="0 0 1301 36">
  <defs>
    <style>
      .cls-1, .cls-2 {
        stroke-width: 0px;
      }

      .cls-2 {
        fill: none;
      }

      .cls-3 {
        clip-path: url(#clippath);
      }
    </style>
    <clipPath id="clippath">
      <rect class="cls-2" width="1301" height="36"/>
    </clipPath>
  </defs>
  <g id="_レイヤー_1-2" data-name="レイヤー 1">
    <g class="cls-3">
      <g>
        <path class="cls-1" d="m99.2102051,31.2971191c-.0661621-.1650391.1650391-.2971191.4619141-.4291992,7.0632324-3.3005371,13.1689453-7.9541016,18.5488281-18.1525879.230957-.3959961.263916-.6931152.1650391-.7919922-.197998-.1982422-.4291992-.1650391-.8251953-.0332031-2.3432617.6601562-4.1254883,1.2211914-6.0068359.7263184-2.8383789,3.465332-7.3930664,7.2939453-9.6374512,8.3171387-.263916.1320801-.5610352.197998-.5939941.098877,0-.098877.1320801-.296875.4619141-.5280762,2.1784668-1.6501465,7.1621094-6.9638672,8.5483398-10.1984863.263916-.5939941.3959961-1.0561523.2971191-1.5842285-.0661621-.4619141-.9243164-1.0229492-1.1882324-1.1220703-.2641602-.1320801-.3959961-.3630371-.2971191-.4621582.2971191-.296875,1.1552734-.4619141,1.7492676-.3959961,1.2541504.1320801,2.2443848.9902344,2.6403809,1.6503906.3959961.6269531.197998.9240723-.065918,1.4851074-.2971191.5280762-.6601562,1.0891113-1.0891113,1.6833496,1.7822266,0,4.4885254-.4951172,5.2807617-.9572754,1.1220703-.6931152,1.2209473-1.1220703,2.3432617-.4951172,1.3862305.7922363,2.4094238,1.6833496,2.2111816,2.3764648-.263916.8911133-1.6501465,1.3200684-2.1782227,2.1782227-5.0166016,8.3833008-12.5087891,14.5222168-20.1660156,16.6674805-.3959961.098877-.6269531.065918-.6599121-.032959Zm22.0471191-25.6118164c.5280762.0991211,4.0925293,1.1223145,4.2575684,3.168457.0661621.6271973-.098877.9572754-.4951172,1.1223145-.3959961.1650391-1.1550293.032959-1.5842285-.7263184-.494873-.8249512-1.5180664-2.2111816-2.6403809-2.8713379-.329834-.197998-.7919922-.3630371-.7260742-.5939941.0661621-.2971191.6271973-.197998,1.1882324-.0991211Zm7.3271484.2312012c.1318359.6599121,0,.9899902-.3962402,1.1879883-.3630371.197998-1.1220703.1650391-1.6501465-.5610352-.7590332-1.0561523-1.5842285-1.8481445-2.9042969-2.4423828-.3300781-.1650391-.8251953-.296875-.7922363-.5280762.065918-.2971191.7260742-.230957,1.1882324-.197998.9570312.065918,4.1584473.5610352,4.5546875,2.5415039Z"/>
        <path class="cls-1" d="m134.2563477,31.6931152c-.1650391.032959-.3300781.032959-.3300781-.065918-.065918-.1320801.1320801-.2312012.2641602-.2641602,7.7890625-3.432373,13.4658203-8.0532227,17.3935547-16.2712402.1650391-.3630371.197998-.6271973.1320801-.7260742-.0991211-.1320801-.3962402-.1650391-.8581543-.0991211-1.0893555.197998-7.7893066,1.3862305-9.7033691,1.8813477-1.5842285.3959961-1.0893555.7919922-2.0134277.9570312-1.0891113.1650391-2.5412598-.7919922-3.267334-1.6501465-.3300781-.3630371-.4291992-1.2211914-.2312012-1.5183105.1650391-.230957.6601562.1320801.9243164.230957.4619141.1982422,2.1452637.5612793,4.1914062.3630371,1.1552734-.1318359,8.9443359-1.3200684,9.9016113-1.5180664.9240723-.197998,1.1220703-.7590332,1.6831055-.8911133s1.7822266.8249512,2.3764648,1.3530273c1.0891113.9902344.7590332,1.3532715.6599121,1.5512695-.296875.4951172-1.4521484,1.1552734-2.0791016,2.2114258-3.7956543,6.402832-8.5483398,11.4526367-19.0439453,14.4560547Zm17.9545898-24.0605469c.1650391.8911133-.3300781.7260742-3.7624512.6931152-1.6501465-.032959-5.6437988.5280762-6.7658691.9572754-1.1223145.3959961-1.8483887.5280762-2.739502-.2312012-.5280762-.4619141-.8581543-.8581543-.9902344-1.1879883-.098877-.2312012-.1318359-.3632812,0-.4951172.1320801-.0991211.5612793.098877,1.0893555.263916.5610352.1650391,1.5180664.2971191,3.1022949.032959,1.5512695-.230957,4.0925293-.7260742,4.8847656-.9240723.7590332-.197998.8251953-.6601562,1.8813477-.7919922,1.0561523-.1320801,3.168457.8911133,3.300293,1.6831055Z"/>
        <path class="cls-1" d="m168.3457031,9.0187988c1.1879883-.1650391,4.5876465-.065918,6.435791,1.3862305,1.3203125,1.0231934,1.5183105,2.3432617.9902344,3.1025391-.5610352.7590332-1.8483887.494873-2.706543-.8911133-.9570312-1.5512695-3.3994141-2.739502-4.5876465-3.0695801-.3630371-.098877-.5939941-.230957-.5939941-.3630371.032959-.098877.230957-.1320801.4621582-.1650391Zm23.2683105,1.5512695c.1320801.1650391-.1320801.5610352-.2971191.7590332-4.8847656,6.8320312-13.0368652,13.8291016-15.9082031,15.8422852-1.0231934.6931152-1.1223145.6271973-1.9143066,1.4853516-.6601562.7260742-1.3203125.8911133-2.1123047.7260742-1.6171875-.3959961-2.6074219-1.7822266-2.8383789-2.970459-.2971191-1.3532715,0-1.9143066.197998-2.0134277.230957-.098877.3630371.6601562.8251953,1.0561523.329834.3300781.7590332.8581543,1.8811035.6601562,3.7956543-.5939941,14.3242188-9.637207,19.5388184-15.2480469.230957-.2641602.4621582-.4291992.6271973-.2971191Z"/>
        <path class="cls-1" d="m219.2341309,27.9306641c-.2971191.7260742-1.9472656.8911133-3.6965332,1.0229492-2.4091797.2312012-7.6569824.3300781-9.340332-.4289551-1.7163086-.7922363-1.9472656-1.6171875-2.2773438-3.3994141-.296875-1.8154297.1650391-10.6606445.0661621-12.277832-.0991211-1.2541504-.2312012-2.904541-1.5842285-3.5644531-.2971191-.1650391-.5612793-.2641602-.5612793-.5280762.0332031-.2312012,1.4853516-.5612793,2.0793457-.5612793.7922363.0332031,2.1123047,1.2543945,2.5415039,2.0134277.8911133,1.4851074-.0332031,1.2871094-.1982422,2.5742188-.032959.3962402-.263916,3.2016602-.4289551,6.0400391,1.8813477-.9902344,5.7429199-3.201416,6.5349121-4.5217285.1320801-.197998.3959961-.4289551-.1320801-.7590332-.263916-.197998-.5610352-.2971191-.8579102-.4291992-.3630371-.1318359-.3630371-.296875-.0661621-.5280762.3300781-.230957,2.706543-.263916,3.6635742.0991211,1.0231934.3630371,1.9802246.9240723,2.0463867,1.7822266.032959.6271973-.7260742.8581543-2.0793457,1.2871094-.8251953.2641602-5.3798828,2.706543-9.142334,3.7956543-.1320801,2.2773438-.197998,4.4226074-.0991211,5.1816406.0991211.7922363.3300781,2.2443848,2.1784668,2.3105469,1.9802246.065918,5.9406738-.2641602,7.1950684-.5942383,1.2211914-.2971191,1.7490234-.7590332,2.5083008-.3959961.7919922.3630371,1.9472656,1.1882324,1.6501465,1.8813477Zm3.4985352-19.2419434c0,1.7163086-1.4191895,3.135498-3.168457,3.135498-1.7163086,0-3.135498-1.4191895-3.135498-3.135498,0-1.7492676,1.4191895-3.168457,3.135498-3.168457,1.7492676,0,3.168457,1.4191895,3.168457,3.168457Zm-.8581543,0c0-1.2871094-1.0231934-2.3103027-2.3103027-2.3103027-1.2541504,0-2.2773438,1.0231934-2.2773438,2.3103027,0,1.2541504,1.0231934,2.2773438,2.2773438,2.2773438,1.2871094,0,2.3103027-1.0231934,2.3103027-2.2773438Z"/>
        <path class="cls-1" d="m234.3457031,9.0187988c1.1879883-.1650391,4.5876465-.065918,6.435791,1.3862305,1.3203125,1.0231934,1.5183105,2.3432617.9902344,3.1025391-.5610352.7590332-1.8483887.494873-2.706543-.8911133-.9570312-1.5512695-3.3994141-2.739502-4.5876465-3.0695801-.3630371-.098877-.5939941-.230957-.5939941-.3630371.032959-.098877.230957-.1320801.4621582-.1650391Zm23.2683105,1.5512695c.1320801.1650391-.1320801.5610352-.2971191.7590332-4.8847656,6.8320312-13.0368652,13.8291016-15.9082031,15.8422852-1.0231934.6931152-1.1223145.6271973-1.9143066,1.4853516-.6601562.7260742-1.3203125.8911133-2.1123047.7260742-1.6171875-.3959961-2.6074219-1.7822266-2.8383789-2.970459-.2971191-1.3532715,0-1.9143066.197998-2.0134277.230957-.098877.3630371.6601562.8251953,1.0561523.329834.3300781.7590332.8581543,1.8811035.6601562,3.7956543-.5939941,14.3242188-9.637207,19.5388184-15.2480469.230957-.2641602.4621582-.4291992.6271973-.2971191Z"/>
        <path class="cls-1" d="m264.2102051,31.2971191c-.0661621-.1650391.1650391-.2971191.4619141-.4291992,7.0632324-3.3005371,13.1689453-7.9541016,18.5488281-18.1525879.230957-.3959961.263916-.6931152.1650391-.7919922-.197998-.1982422-.4291992-.1650391-.8251953-.0332031-2.3432617.6601562-4.1254883,1.2211914-6.0068359.7263184-2.8383789,3.465332-7.3930664,7.2939453-9.6374512,8.3171387-.263916.1320801-.5610352.197998-.5939941.098877,0-.098877.1320801-.296875.4619141-.5280762,2.1784668-1.6501465,7.1621094-6.9638672,8.5483398-10.1984863.263916-.5939941.3959961-1.0561523.2971191-1.5842285-.0661621-.4619141-.9243164-1.0229492-1.1882324-1.1220703-.2641602-.1320801-.3959961-.3630371-.2971191-.4621582.2971191-.296875,1.1552734-.4619141,1.7492676-.3959961,1.2541504.1320801,2.2443848.9902344,2.6403809,1.6503906.3959961.6269531.197998.9240723-.065918,1.4851074-.2971191.5280762-.6601562,1.0891113-1.0891113,1.6833496,1.7822266,0,4.4885254-.4951172,5.2807617-.9572754,1.1220703-.6931152,1.2209473-1.1220703,2.3432617-.4951172,1.3862305.7922363,2.4094238,1.6833496,2.2111816,2.3764648-.263916.8911133-1.6501465,1.3200684-2.1782227,2.1782227-5.0166016,8.3833008-12.5087891,14.5222168-20.1660156,16.6674805-.3959961.098877-.6269531.065918-.6599121-.032959Zm22.0471191-25.6118164c.5280762.0991211,4.0925293,1.1223145,4.2575684,3.168457.0661621.6271973-.098877.9572754-.4951172,1.1223145-.3959961.1650391-1.1550293.032959-1.5842285-.7263184-.494873-.8249512-1.5180664-2.2111816-2.6403809-2.8713379-.329834-.197998-.7919922-.3630371-.7260742-.5939941.0661621-.2971191.6271973-.197998,1.1882324-.0991211Zm7.3271484.2312012c.1318359.6599121,0,.9899902-.3962402,1.1879883-.3630371.197998-1.1220703.1650391-1.6501465-.5610352-.7590332-1.0561523-1.5842285-1.8481445-2.9042969-2.4423828-.3300781-.1650391-.8251953-.296875-.7922363-.5280762.065918-.2971191.7260742-.230957,1.1882324-.197998.9570312.065918,4.1584473.5610352,4.5546875,2.5415039Z"/>
        <path class="cls-1" d="m315.1977539,31.5280762c-4.6867676,2.3103027-9.2414551.065918-9.6704102-3.9606934-.1320801-1.3530273-.1320801-2.9372559-.032959-4.6535645-1.4521484-.4951172-2.6403809-1.2541504-2.6403809-2.5083008.032959-1.7163086,1.9802246-3.6965332,3.465332-4.9836426.1320801-1.0893555.2971191-2.1123047.4621582-3.0366211-1.4191895-.6269531-2.8713379-1.4851074-3.5644531-2.0793457-.197998-.1647949-.3630371-.296875-.2971191-.5280762.0991211-.197998.4621582-.032959.6601562.0332031.8911133.3959961,2.1782227.5939941,3.4655762.8579102.230957-1.3859863.3959961-2.3432617.3959961-2.6733398.065918-1.3530273.1320801-1.6831055-.197998-2.6733398-.197998-.5610352-1.1882324-1.4851074-1.0561523-1.8151855.1318359-.4291992,1.4521484.1650391,1.5842285.230957.5280762.2971191,2.1123047,1.4191895,1.8151855,3.1025391-.2971191,1.5512695-.9240723,2.7392578-1.3200684,4.0595703.7260742.1650391,1.4191895.3300781,2.0131836.5610352.8911133.3630371,1.2541504,1.1882324,1.2541504,1.7163086s-.4289551.9240723-.8581543.9570312c-1.0891113.0991211-2.2773438.5942383-3.3334961,1.2541504-.296875,1.6833496-.5939941,3.7294922-.7590332,5.940918,1.2541504.1650391,2.6403809.1320801,3.135498.1650391,1.0231934.032959,1.5512695.4289551,1.6171875,1.0561523.0991211.5939941-.4621582,1.0231934-1.4191895,1.0231934-.6271973.032959-2.0131836-.0661621-3.3994141-.3959961-.0332031,1.0561523,0,2.1123047.098877,3.1352539.4291992,5.1489258,5.907959,4.4558105,7.4592285,3.3996582,1.6501465-1.0893555,3.201416-4.1916504,1.2871094-7.6572266-1.8813477-3.432373-4.0925293-4.9506836-4.5876465-5.2807617-.1320801-.098877-.3630371-.263916-.2971191-.4619141.065918-.1650391.4291992.032959.6271973.098877.494873.230957,4.7194824,2.6074219,6.5019531,5.5449219,1.4191895,2.3432617,2.1123047,7.3598633-2.4094238,9.5712891Zm-9.5712891-10.3964844c.1318359-1.6171875.329834-3.3005371.5610352-4.8847656-1.2873535,1.1223145-2.2114258,2.5083008-2.1123047,3.6635742.065918.6271973.6931152.9902344,1.5512695,1.2211914Zm1.9140625-6.6999512c.1982422-.1650391.3300781-.2641602.3632812-.2971191.3630371-.263916.7260742-.3959961.7919922-.7590332.0991211-.3300781-.230957-.3630371-.7919922-.5610352h-.0332031c-.098877.4619141-.230957.9899902-.3300781,1.6171875Z"/>
        <path class="cls-1" d="m328.5598145,25.2902832c3.9606934,1.2541504,6.0400391,2.9372559,7.1291504,4.5214844.5939941.8581543.7919922,1.4853516.7919922,2.2114258,0,.9570312-.5610352,1.4851074-1.3530273,1.4851074-.6931152,0-1.1223145-.3959961-1.5842285-1.3862305-1.0561523-2.1782227-2.4094238-4.1914062-5.3469238-6.270752l.3630371-.5610352Z"/>
        <path class="cls-1" d="m386.6435547,14.0686035s1.8481445,1.4851074,2.9375,2.5083008c-.0991211.3630371-.3632812.5280762-.8251953.5280762h-11.2546387c1.1220703,5.3137207,4.5217285,10.8256836,13.6308594,14.4560547l-.065918.3630371c-1.0891113.1320801-1.8483887.5280762-2.1123047,1.7163086-8.6142578-4.1586914-11.1225586-10.7924805-12.079834-16.5354004h-.4289551c-1.0231934,7.0300293-4.1586914,12.4758301-14.2250977,16.3703613l-.3959961-.5939941c8.7463379-4.0927734,11.5185547-9.307373,12.409668-15.7763672h-6.435791c-1.4191895,0-2.6403809.065918-3.8615723.2641602l-.9572754-1.7492676c1.7824707.329834,3.9606934.5280762,5.3469238.5280762h6.0397949c.2641602-2.6403809.2971191-5.5119629.3300781-8.5812988h-7.9870605c-1.4191895,0-2.6403809.065918-3.8615723.263916l-.9243164-1.7822266c1.7824707.3300781,3.9606934.5280762,5.3469238.5280762h18.746582l1.6503906-2.0793457s1.8481445,1.4523926,3.003418,2.5415039c-.0991211.3630371-.3962402.5280762-.8581543.5280762h-12.8059082c-.065918,3.0693359-.1320801,5.940918-.4289551,8.5812988h8.4821777l1.5842285-2.0793457Z"/>
        <path class="cls-1" d="m400.9628906,24.894043c0,2.6403809.197998,5.940918.263916,7.7561035-.296875.3630371-1.1220703.8911133-1.9472656.8911133-.3959961,0-.7590332-.329834-.7590332-.6599121.197998-2.8383789.3630371-5.677002.3630371-8.5812988v-9.0432129c-1.1882324,1.9472656-2.5083008,3.6633301-3.8615723,5.1157227l-.4621582-.3300781c2.706543-4.0266113,5.5119629-10.3964844,7.1291504-16.7004395l3.3005371,1.1220703c-.1320801.3630371-.5280762.6271973-1.2541504.5942383-1.0231934,2.8383789-2.2443848,5.6105957-3.5976562,8.0861816l1.7822266.6928711c-.065918.2971191-.3959961.4951172-.9570312.5942383v10.4624023Zm20.3308105-15.479248s1.7163086,1.3862305,2.739502,2.4094238c-.0991211.3630371-.3959961.5280762-.8251953.5280762h-8.5812988c1.7824707,5.3466797,5.907959,10.0664062,10.0334473,12.4428711l-.065918.3959961c-.8251953.3630371-1.3203125,1.0561523-1.5183105,1.9802246-4.1584473-3.0693359-7.5910645-8.7460938-9.2412109-14.8190918h-.0661621v13.4660645h2.4094238l1.3532715-1.7824707s1.4521484,1.2543945,2.4094238,2.2443848c-.0991211.3630371-.4291992.4951172-.8581543.4951172h-5.3139648c0,2.0463867.1650391,4.5217285.2312012,5.8417969-.2312012.4291992-1.0891113.9240723-1.8483887.9240723-.4619141,0-.7260742-.329834-.7260742-.6599121.1320801-2.0134277.2641602-4.0266113.2641602-6.105957h-1.1882324c-1.4191895,0-2.6403809.065918-3.8615723.2641602l-.9240723-1.7492676c1.7822266.329834,3.9604492.5280762,5.3466797.5280762l.6271973.1318359v-10.9245605c-2.1784668,4.8518066-5.5119629,9.076416-9.8354492,12.244873l-.4621582-.4621582c4.0925293-3.7294922,7.2609863-9.109375,9.043457-14.4560547h-3.6306152c-1.4191895,0-2.6403809.065918-3.8615723.2641602l-.8911133-1.7492676c1.7822266.3300781,3.9604492.5280762,5.3466797.5280762l4.2907715.1318359v-1.8481445c0-1.9802246-.2312012-4.4555664-.5942383-6.105957l3.7956543.5280762c-.0991211.4951172-.3300781.8251953-1.1223145.9240723v6.3701172h6.072998l1.4521484-1.9804688Z"/>
        <path class="cls-1" d="m440.7949219,27.996582s1.4521484,1.2211914,2.3432617,2.1123047c-.0991211.3630371-.3630371.5280762-.8251953.5280762h-9.439209c0,.5610352.065918,1.2211914.1318359,1.4521484-.1318359.3300781-.7590332.9240723-1.7822266.9240723-.2971191,0-.6601562-.329834-.6601562-.6599121.1982422-2.8383789.3630371-5.677002.3630371-8.5812988v-5.1486816c-.9899902,1.0561523-2.0791016,2.0461426-3.201416,2.9042969l-.3630371-.3959961c2.2773438-2.3432617,4.1916504-5.3466797,5.5119629-8.4821777h-.5612793c-1.4191895,0-2.6403809.065918-3.8615723.263916l-.8911133-1.7822266c1.7824707.3300781,3.9606934.5280762,5.3469238.5280762h.3959961c.4621582-1.2211914.8251953-2.4753418,1.1220703-3.6965332h-2.4091797c-.8251953,1.2211914-1.8154297,2.2773438-2.8383789,3.036377l-.4951172-.3300781c1.3862305-1.7490234,2.5412598-4.4885254,3.201416-7.3930664l3.003418,1.0231934c-.1320801.3962402-.5280762.6601562-1.1882324.6271973-.3300781.7260742-.6601562,1.4191895-1.0561523,2.0793457h5.8417969l1.3532715-1.8154297s1.5512695,1.2541504,2.6074219,2.2773438c-.0991211.3300781-.3959961.4951172-.8581543.4951172h-4.6867676c-.3959961,1.2541504-.8249512,2.5083008-1.3859863,3.6965332h3.8613281l1.3532715-1.7822266s1.5183105,1.2541504,2.5083008,2.2443848c-.098877.3630371-.3959961.5280762-.8249512.5280762h-7.3930664c-.6931152,1.4191895-1.5512695,2.7724609-2.5083008,4.0266113l.7919922.329834h2.2773438c.263916-1.0891113.5939941-2.5742188.7919922-3.6962891l2.9375.8579102c-.1320801.3630371-.4951172.6601562-1.1550293.6271973-.4621582.6931152-1.0561523,1.4851074-1.7163086,2.2111816h2.7062988l1.2211914-1.4851074s1.3203125,1.0891113,2.1782227,1.9143066c-.065918.3630371-.3630371.5280762-.7919922.5280762h-4.0925293v3.201416h1.6831055l1.0891113-1.4521484s1.2211914,1.0561523,1.9804688,1.8481445c-.0991211.3630371-.3959961.5280762-.7922363.5280762h-3.9604492v3.2346191h1.6831055l1.0891113-1.4191895s1.2211914,1.0231934,1.9804688,1.8481445c-.0991211.3630371-.3959961.5280762-.7922363.5280762h-3.9604492v3.3664551h1.8481445l1.2873535-1.6501465Zm-7.9211426-10.0334473v3.201416l2.9042969.1320801v-3.3334961h-2.9042969Zm2.9042969,4.1254883h-2.9042969v3.2346191h2.9042969v-3.2346191Zm0,4.1916504h-2.9042969v3.3664551h2.9042969v-3.3664551Zm18.0537109-21.9482422l2.3762207,1.9475098c-.230957.230957-.6269531.4619141-1.2871094.5610352v16.3703613c0,.1650391-.7592773.6931152-1.7163086.6931152h-.2971191v-1.2211914h-1.0561523v7.8881836c0,.3630371.0661621.4619141.6271973.4619141h2.4753418c.230957-.032959.3300781-.098877.4289551-.3630371.1650391-.4951172.4951172-2.3432617.8251953-4.0925293h.3959961l.0991211,4.1584473c.5610352.2641602.6269531.5283203.6269531.9572754,0,.8251953-.6928711,1.3200684-3.5974121,1.3200684h-1.7492676c-1.7822266,0-2.0463867-.5610352-2.0463867-1.9140625v-8.4162598h-1.5839844c-.6931152,5.973877-3.168457,9.0761719-9.307373,10.9245605l-.197998-.5280762c5.2145996-2.3435059,6.8979492-5.3137207,7.3598633-10.3964844h-.3630371c0,.3959961.032959.8911133.0991211,1.0231934-.0991211.329834-.7590332.7919922-1.7822266.7919922-.3300781,0-.6931152-.3300781-.6931152-.6601562.197998-2.8383789.3630371-5.6767578.3630371-8.5810547v-4.6538086c0-1.9802246-.2312012-4.4555664-.5942383-6.105957l2.970459,1.1882324h6.5349121l1.0893555-1.3532715Zm-7.9873047,2.3105469v4.2905273l7.0629883.1320801v-4.4226074h-7.0629883Zm7.0629883,5.2807617h-7.0629883v4.3564453h7.0629883v-4.3564453Zm-7.0629883,9.8022461l7.0629883.1320801v-4.5876465h-7.0629883v4.4555664Z"/>
        <path class="cls-1" d="m460.9560547,11.1640625c6.204834.8911133,4.8515625,5.4458008,2.7062988,4.0927734-.4289551-1.3862305-1.8151855-2.9375-3.003418-3.7956543l.2971191-.2971191Zm8.2180176-.7919922c-1.1550293,3.7954102-3.3664551,10.8583984-3.7294922,12.310791-.230957.9899902-.4289551,1.9143066-.4289551,2.7722168,0,1.4194336.8911133,3.1025391.7590332,5.842041-.065918,1.3862305-.6601562,2.2441406-1.6833496,2.2441406-.5280762,0-.8579102-.6269531-.8911133-1.6831055.4291992-3.3994141.2312012-6.105957-.3959961-6.5678711-.4619141-.3300781-.8911133-.3962402-1.5512695-.4621582v-.7590332h1.3532715c.3630371,0,.4951172,0,.7590332-.6601562q.5280762-1.1223145,5.2478027-13.2019043l.5610352.1650391Zm-6.3369141-6.8979492c6.6340332,1.2211914,5.2807617,5.7756348,3.0695801,4.4226074-.4951172-1.4523926-2.1123047-3.135498-3.3996582-4.1257324l.3300781-.296875Zm3.9606934,29.3081055c1.7822266-1.5842285,3.6303711-4.2246094,4.8515625-7.2609863l2.6403809,1.3200684c-.1318359.3300781-.5280762.5942383-1.1550293.4621582-1.5842285,2.6074219-3.7626953,4.6867676-5.973877,5.907959l-.3630371-.4291992Zm11.6506348-7.8549805c-.032959.197998-.9902344.7590332-1.6833496.7590332h-.263916v-1.2211914h-4.9177246c0,.2971191.032959.5939941.0991211.5939941-.0991211.3959961-.7922363.8911133-1.6503906.8911133-.3300781,0-.6931152-.3300781-.6931152-.6599121.197998-2.838623.3630371-5.677002.3630371-8.5812988v-6.204834c0-1.9804688-.230957-4.4558105-.5939941-6.105957l2.6403809,1.1550293h4.4555664l1.1223145-1.2871094,2.4091797,1.9802246c-.197998.2641602-.6931152.5280762-1.2871094.6271973v18.0537109Zm-6.8649902-18.416748v4.9836426l4.9177246.1320801v-5.1157227h-4.9177246Zm0,5.940918v5.0166016l4.9177246.1320801v-5.1486816h-4.9177246Zm4.9177246,11.0563965v-5.0495605h-4.9177246v5.0495605h4.9177246Zm-1.4521484,2.2443848c6.402832,3.3005371,4.6206055,7.9873047,2.6071777,6.2709961-.263916-2.0134277-1.6831055-4.5217285-2.9702148-6.0397949l.3630371-.2312012Zm7.9211426-7.5581055c0,2.6403809.197998,5.940918.263916,7.7561035-.263916.4291992-1.0891113.8581543-1.7492676.8581543-.3630371,0-.7260742-.3300781-.7260742-.6601562.197998-2.8383789.3630371-5.6767578.3630371-8.5810547v-4.8847656c0-1.9802246-.230957-4.4555664-.5939941-6.105957l3.5314941.5280762c-.0991211.4291992-.3300781.7260742-1.0891113.8251953v10.2644043Zm5.4458008,12.244873c0,1.7492676-.3630371,2.8054199-3.135498,3.1022949-.0991211-.6599121-.2641602-1.1879883-.6931152-1.5180664-.4291992-.3630371-1.1882324-.5942383-2.5415039-.7922363v-.5610352s3.0695801.2641602,3.6635742.2641602c.5942383,0,.7592773-.1982422.7592773-.6931152V9.6459961c0-1.9804688-.2312012-4.4558105-.5942383-6.105957l3.6965332.5280762c-.098877.4621582-.3959961.7922363-1.1550293.8911133v25.4797363Z"/>
        <path class="cls-1" d="m513.1977539,31.5280762c-4.6867676,2.3103027-9.2414551.065918-9.6704102-3.9606934-.1320801-1.3530273-.1320801-2.9372559-.032959-4.6535645-1.4521484-.4951172-2.6403809-1.2541504-2.6403809-2.5083008.032959-1.7163086,1.9802246-3.6965332,3.465332-4.9836426.1320801-1.0893555.2971191-2.1123047.4621582-3.0366211-1.4191895-.6269531-2.8713379-1.4851074-3.5644531-2.0793457-.197998-.1647949-.3630371-.296875-.2971191-.5280762.0991211-.197998.4621582-.032959.6601562.0332031.8911133.3959961,2.1782227.5939941,3.4655762.8579102.230957-1.3859863.3959961-2.3432617.3959961-2.6733398.065918-1.3530273.1320801-1.6831055-.197998-2.6733398-.197998-.5610352-1.1882324-1.4851074-1.0561523-1.8151855.1318359-.4291992,1.4521484.1650391,1.5842285.230957.5280762.2971191,2.1123047,1.4191895,1.8151855,3.1025391-.2971191,1.5512695-.9240723,2.7392578-1.3200684,4.0595703.7260742.1650391,1.4191895.3300781,2.0131836.5610352.8911133.3630371,1.2541504,1.1882324,1.2541504,1.7163086s-.4289551.9240723-.8581543.9570312c-1.0891113.0991211-2.2773438.5942383-3.3334961,1.2541504-.296875,1.6833496-.5939941,3.7294922-.7590332,5.940918,1.2541504.1650391,2.6403809.1320801,3.135498.1650391,1.0231934.032959,1.5512695.4289551,1.6171875,1.0561523.0991211.5939941-.4621582,1.0231934-1.4191895,1.0231934-.6271973.032959-2.0131836-.0661621-3.3994141-.3959961-.0332031,1.0561523,0,2.1123047.098877,3.1352539.4291992,5.1489258,5.907959,4.4558105,7.4592285,3.3996582,1.6501465-1.0893555,3.201416-4.1916504,1.2871094-7.6572266-1.8813477-3.432373-4.0925293-4.9506836-4.5876465-5.2807617-.1320801-.098877-.3630371-.263916-.2971191-.4619141.065918-.1650391.4291992.032959.6271973.098877.494873.230957,4.7194824,2.6074219,6.5019531,5.5449219,1.4191895,2.3432617,2.1123047,7.3598633-2.4094238,9.5712891Zm-9.5712891-10.3964844c.1318359-1.6171875.329834-3.3005371.5610352-4.8847656-1.2873535,1.1223145-2.2114258,2.5083008-2.1123047,3.6635742.065918.6271973.6931152.9902344,1.5512695,1.2211914Zm1.9140625-6.6999512c.1982422-.1650391.3300781-.2641602.3632812-.2971191.3630371-.263916.7260742-.3959961.7919922-.7590332.0991211-.3300781-.230957-.3630371-.7919922-.5610352h-.0332031c-.098877.4619141-.230957.9899902-.3300781,1.6171875Z"/>
        <path class="cls-1" d="m526.2958984,29.0527344c0-2.5415039,2.1123047-4.6206055,4.6535645-4.6206055,2.5415039,0,4.6208496,2.0791016,4.6208496,4.6206055,0,2.5412598-2.0793457,4.6535645-4.6208496,4.6535645-2.5412598,0-4.6535645-2.1123047-4.6535645-4.6535645Zm1.1220703,0c0,1.9472656,1.5512695,3.5314941,3.5314941,3.5314941,1.9472656,0,3.4985352-1.5842285,3.4985352-3.5314941s-1.5512695-3.4985352-3.4985352-3.4985352c-1.9802246,0-3.5314941,1.5512695-3.5314941,3.4985352Z"/>
        <path class="cls-1" d="m568.0090332,32.1220703c-.263916.0991211-.5939941.2312012-.6599121.0991211-.0661621-.1650391.263916-.3959961.5610352-.5280762,5.4128418-2.8713379,8.6142578-7.7231445,9.5712891-13.1689453.6271973-3.3664551.6271973-6.5019531.4291992-9.4724121-.0332031-.7260742-.1650391-1.4191895-.6931152-1.8811035-.5280762-.4621582-1.2211914-.5280762-1.1552734-1.0231934.0661621-.5280762,1.4853516-.5942383,2.1123047-.4621582,1.0561523.2641602,2.1452637,1.1223145,2.3103027,1.7492676.1320801.6601562-.1650391,1.6503906-.197998,2.5744629-.065918.9240723,0,2.0131836-.065918,3.3334961-.5280762,9.8354492-3.3334961,15.0500488-12.2119141,18.779541Zm1.3862305-14.1259766c.2971191-3.0693359-.1320801-7.5910645-.4619141-8.1850586-.197998-.3300781-.3962402-.4621582-.6271973-.6271973-.263916-.1650391-.5610352-.197998-.5610352-.4621582,0-.3959961,1.5842285-.8249512,2.2443848-.6269531.6599121.197998,1.5510254.8251953,1.3200684,2.9042969-.1320801,1.2543945.0991211,4.4558105.1320801,5.842041.065918,1.3859863.197998,2.5742188.098877,3.1352539-.1318359.5942383-.5939941,1.2211914-1.1220703,1.1882324s-1.2211914-1.0231934-1.0231934-3.168457Z"/>
        <path class="cls-1" d="m614.8051758,27.9306641c-.2971191.7260742-1.9472656.8911133-3.6965332,1.0229492-2.4094238.2312012-7.6572266.3300781-9.340332-.4289551-1.7163086-.7922363-1.9472656-1.6171875-2.2773438-3.3994141-.2971191-1.8154297.1650391-10.6606445.065918-12.277832-.098877-1.2541504-.230957-2.904541-1.5842285-3.5644531-.2971191-.1650391-.5610352-.2641602-.5610352-.5280762.032959-.2312012,1.4851074-.5612793,2.0793457-.5612793.7919922.0332031,2.1123047,1.2543945,2.5412598,2.0134277.8911133,1.4851074-.032959,1.2871094-.197998,2.5742188-.065918.3962402-.263916,3.2016602-.4289551,6.0400391,1.8811035-.9902344,5.7426758-3.201416,6.5349121-4.5217285.1320801-.197998.3959961-.4289551-.1320801-.7590332-.2971191-.197998-.5610352-.2971191-.8581543-.4291992-.3630371-.1318359-.3630371-.296875-.065918-.5280762.3300781-.230957,2.7062988-.263916,3.6635742.0991211.7919922.263916,1.5180664.6601562,1.8481445,1.1882324.0991211.1650391.1650391.3630371.197998.5939941,0,.4289551-.3300781.6601562-.9899902.9240723-.2971191.0991211-.6601562.2312012-1.0893555.3630371-.8249512.2641602-5.3796387,2.706543-9.142334,3.7956543-.1318359,2.2773438-.197998,4.4226074-.098877,5.1816406.098877.7922363.3300781,2.2443848,2.1782227,2.3105469,1.9802246.065918,5.940918-.2641602,7.1950684-.5942383,1.2211914-.2971191,1.7492676-.7590332,2.5083008-.3959961.7592773.3630371,1.9472656,1.1882324,1.6503906,1.8813477Zm3.1022949-15.8093262c0,.6599121-.1650391.9570312-.5939941,1.0891113-.3959961.1320801-1.1552734-.065918-1.5183105-.8581543-.3959961-.8581543-1.3200684-2.3432617-2.3762207-3.0693359-.2971191-.2312012-.7590332-.4291992-.6931152-.6601562.098877-.2971191.6601562-.1650391,1.1882324,0s3.9934082,1.4521484,3.9934082,3.4985352Zm2.4753418-2.9375c-.3630371.1650391-1.0891113.1320801-1.5842285-.5610352-.5280762-.7590332-1.6171875-1.9802246-2.7392578-2.5083008-.3300781-.1320801-.7922363-.2641602-.7590332-.4951172.032959-.2641602.5939941-.2312012,1.1220703-.197998.5280762.065918,3.9604492.7260742,4.3237305,2.6403809.1318359.5939941,0,.9240723-.3632812,1.1220703Z"/>
        <path class="cls-1" d="m630.3457031,9.0187988c1.1879883-.1650391,4.5876465-.065918,6.435791,1.3862305,1.3203125,1.0231934,1.5183105,2.3432617.9902344,3.1025391-.5610352.7590332-1.8483887.494873-2.706543-.8911133-.9570312-1.5512695-3.3994141-2.739502-4.5876465-3.0695801-.3630371-.098877-.5939941-.230957-.5939941-.3630371.032959-.098877.230957-.1320801.4621582-.1650391Zm23.2683105,1.5512695c.1320801.1650391-.1320801.5610352-.2971191.7590332-4.8847656,6.8320312-13.0368652,13.8291016-15.9082031,15.8422852-1.0231934.6931152-1.1223145.6271973-1.9143066,1.4853516-.6601562.7260742-1.3203125.8911133-2.1123047.7260742-1.6171875-.3959961-2.6074219-1.7822266-2.8383789-2.970459-.2971191-1.3532715,0-1.9143066.197998-2.0134277.230957-.098877.3630371.6601562.8251953,1.0561523.329834.3300781.7590332.8581543,1.8811035.6601562,3.7956543-.5939941,14.3242188-9.637207,19.5388184-15.2480469.230957-.2641602.4621582-.4291992.6271973-.2971191Z"/>
        <path class="cls-1" d="m660.2102051,31.2971191c-.0661621-.1650391.1650391-.2971191.4619141-.4291992,7.0632324-3.3005371,13.1689453-7.9541016,18.5488281-18.1525879.230957-.3959961.263916-.6931152.1650391-.7919922-.197998-.1982422-.4291992-.1650391-.8251953-.0332031-2.3432617.6601562-4.1254883,1.2211914-6.0068359.7263184-2.8383789,3.465332-7.3930664,7.2939453-9.6374512,8.3171387-.263916.1320801-.5610352.197998-.5939941.098877,0-.098877.1320801-.296875.4619141-.5280762,2.1784668-1.6501465,7.1621094-6.9638672,8.5483398-10.1984863.263916-.5939941.3959961-1.0561523.2971191-1.5842285-.0661621-.4619141-.9243164-1.0229492-1.1882324-1.1220703-.2641602-.1320801-.3959961-.3630371-.2971191-.4621582.2971191-.296875,1.1552734-.4619141,1.7492676-.3959961,1.2541504.1320801,2.2443848.9902344,2.6403809,1.6503906.3959961.6269531.197998.9240723-.065918,1.4851074-.2971191.5280762-.6601562,1.0891113-1.0891113,1.6833496,1.7822266,0,4.4885254-.4951172,5.2807617-.9572754,1.1220703-.6931152,1.2209473-1.1220703,2.3432617-.4951172,1.3862305.7922363,2.4094238,1.6833496,2.2111816,2.3764648-.263916.8911133-1.6501465,1.3200684-2.1782227,2.1782227-5.0166016,8.3833008-12.5087891,14.5222168-20.1660156,16.6674805-.3959961.098877-.6269531.065918-.6599121-.032959Zm22.0471191-25.6118164c.5280762.0991211,4.0925293,1.1223145,4.2575684,3.168457.0661621.6271973-.098877.9572754-.4951172,1.1223145-.3959961.1650391-1.1550293.032959-1.5842285-.7263184-.494873-.8249512-1.5180664-2.2111816-2.6403809-2.8713379-.329834-.197998-.7919922-.3630371-.7260742-.5939941.0661621-.2971191.6271973-.197998,1.1882324-.0991211Zm7.3271484.2312012c.1318359.6599121,0,.9899902-.3962402,1.1879883-.3630371.197998-1.1220703.1650391-1.6501465-.5610352-.7590332-1.0561523-1.5842285-1.8481445-2.9042969-2.4423828-.3300781-.1650391-.8251953-.296875-.7922363-.5280762.065918-.2971191.7260742-.230957,1.1882324-.197998.9570312.065918,4.1584473.5610352,4.5546875,2.5415039Z"/>
        <path class="cls-1" d="m710.3725586,19.8112793c-.197998,2.0463867-1.2211914,7.2941895-3.267334,9.3405762-.7592773.7590332-1.9804688,1.6831055-2.5744629,1.3530273-.6601562-.3630371-.7919922-.8251953-1.1552734-1.6171875-.296875-.6601562-.5939941-1.0891113-1.5839844-2.5083008-.1650391-.2641602-.4291992-.5610352-.3300781-.6601562.1650391-.1320801.6269531.230957,1.3530273.7590332.7922363.5280762,1.5183105,1.1552734,2.0134277,1.1223145.7919922,0,1.8811035-.4951172,3.036377-4.3237305,1.1220703-3.8286133,1.5183105-7.5581055-.197998-8.6801758-.9572754-.6271973-3.168457.1320801-4.6867676.8251953-.7590332,3.3664551-2.2111816,7.9870605-4.9506836,12.4755859-.7919922,1.2873535-1.8151855,2.0134277-2.5412598,1.2543945-.4951172-.5283203-.197998-1.5512695,1.0561523-3.2346191,2.8383789-3.8286133,4.0266113-7.2939453,4.6206055-9.6704102-1.4851074.6601562-3.3005371,1.3532715-3.8945312,1.4853516-.4621582.1318359-2.0134277.098877-3.201416-1.8483887-.2641602-.4289551-.4951172-1.0231934-.1320801-1.1220703.230957-.0991211.4951172.098877.9240723.3300781.9240723.494873,1.5183105.4289551,1.9143066.3959961.9240723-.032959,3.036377-.4291992,4.7856445-1.1220703.0661621-.2641602.0991211-.4951172.1320801-.6931152.3959961-1.7824707.5610352-4.1586914-.3630371-5.3798828-.2641602-.3300781-1.0561523-.9902344-.9240723-1.3532715.197998-.6599121,2.7722168-.098877,3.267334.3630371.9240723.9572754.3300781,2.3764648.1320801,3.4985352-.065918.4951172-.197998,1.5183105-.4951172,2.9375,1.6833496-.5280762,4.0925293-.9902344,5.4128418-.032959,1.7163086,1.2541504,1.8481445,3.5974121,1.6501465,6.1057129Zm9.307373,1.1223145c-.263916.032959-.4289551-.1320801-1.1220703-.5610352-.6271973-.4951172-3.003418-.7592773-3.135498-.7592773s-.4291992-.032959-.4621582-.1318359c0-.1320801.3300781-.1650391.3300781-.1650391,0,0,2.0134277-.1650391,2.4094238-.2641602.4289551-.098877.9240723-.2971191,1.2871094-.5610352.3630371-.2971191.2641602-1.7822266-.9899902-3.135498-1.1552734-1.2541504-3.3005371-2.1452637-3.6965332-2.2443848-.0991211-.032959-.3300781-.065918-.2971191-.197998.032959-.098877.3300781-.065918.3959961-.065918,4.6538086.098877,7.1621094,2.8713379,7.2609863,5.0166016.1320801,2.4094238-1.6831055,3.0366211-1.9802246,3.0695801Z"/>
        <path class="cls-1" d="m748.3564453,25.3562012c-.3300781,3.168457-3.5317383,5.6437988-13.0700684,6.8320312-.296875.032959-.5280762.032959-.5280762-.2312012-.032959-.263916.3962402-.296875.7260742-.329834.3962402-.0661621,9.2744141-1.1223145,10.5615234-6.4360352.1982422-.9240723.5612793-4.4555664-2.1452637-5.2148438-2.7392578-.7260742-4.5214844,1.3862305-6.6999512,4.6208496-.4289551.6599121-1.3862305,1.1879883-1.8151855,1.1879883-.3959961-.032959-2.8383789-.230957-3.003418-2.6403809-.1320801-1.9143066.197998-5.973877.5280762-9.2412109.098877-1.1882324-.3959961-1.7822266-.1320801-2.6074219.197998-.6601562.8581543-1.1882324,1.1882324-1.4521484,1.0891113-.9572754,3.8615723-1.9472656,4.1254883-2.1452637.2971191-.2312012.5610352-.4621582.1650391-.9243164-.5280762-.6599121-.9240723-.9570312-1.5180664-1.2541504-.2312012-.1320801-.4951172-.263916-.4621582-.3630371.032959-.1650391.8251953-.197998,1.0231934-.1650391.5610352,0,3.168457-.1318359,4.1254883,2.739502.4291992,1.2541504-.5939941,1.9472656-.7919922,1.9802246s-.4951172-.032959-.8251953-.230957c-.2971191-.2312012-1.5512695-1.5842285-4.9506836.5939941-.4951172.2971191-.6931152.7260742-.7922363,1.3203125-.1318359.7260742.6601562.9899902.5612793,2.4091797-.0661621.6271973-.6931152,4.8188477-.6931152,6.6010742,0,.7919922.1318359,1.3200684.3630371,1.8151855.230957.4621582.3630371.5942383.6269531.5942383.2641602.032959.6931152-.0991211,1.2211914-.5283203.5280762-.4289551,5.2478027-4.0925293,8.2182617-3.168457,2.970459.8913574,4.3234863,3.3666992,3.9936523,6.2380371Z"/>
        <path class="cls-1" d="m783.1716309,14.0356445s2.3103027,1.9472656,3.7294922,3.3334961c-.098877.3959961-.4621582.5280762-.9570312.5280762h-23.4333496c-1.4194336,0-2.640625.065918-3.8615723.263916l-.9902344-1.9143066c1.7822266.3300781,3.9604492.5280762,5.3466797.5280762h18.185791l1.9802246-2.7392578Z"/>
        <path class="cls-1" d="m813.498291,6.279541s1.7492676,1.4521484,2.8383789,2.4421387c-.0661621.3632812-.3959961.5280762-.8581543.5280762h-8.9772949v4.5217285h8.8781738l1.6174316-2.0463867s1.8151855,1.4523926,2.9372559,2.5085449c-.098877.3630371-.3959961.5280762-.8581543.5280762h-23.7634277c-1.4191895,0-2.6403809.065918-3.8615723.263916l-.9240723-1.7822266c1.7822266.3300781,3.9606934.5280762,5.3469238.5280762l1.1550293.1320801v-2.1452637c0-1.9804688-.230957-4.4558105-.5939941-6.105957l3.6303711.4951172c-.065918.4289551-.3630371.7260742-1.0561523.8581543v6.7658691l5.3798828.1320801v-4.6538086c0-1.9802246-.230957-4.4555664-.5939941-6.1057129l3.8283691.5280762c-.065918.4619141-.3630371.7919922-1.1220703.8911133v3.7294922h5.4458008l1.5512695-2.0131836Zm-11.8818359,11.4855957c-.1650391.296875-.4619141.4619141-1.1882324.3300781-1.8481445,2.6074219-5.3137207,5.8088379-9.1091309,7.7231445l-.2971191-.4291992c3.168457-2.4094238,6.237793-6.2709961,7.6572266-9.2412109l2.9372559,1.6171875Zm-9.439209,15.1491699c8.1520996-1.6833496,14.5549316-4.0925293,19.7036133-11.6838379l2.8054199,1.7163086c-.1647949.3300781-.5280762.3959961-1.3200684.2312012-5.7429199,7.1618652-12.277832,9.2741699-21.0571289,10.3632812l-.1318359-.6269531Zm14.3239746-9.373291c0,1.7160645-.3959961,2.7722168-3.2675781,3.0693359-.098877-.6269531-.263916-1.1882324-.6931152-1.5183105-.4619141-.3630371-1.1879883-.6269531-2.5742188-.7919922v-.4951172s3.135498.230957,3.7624512.230957c.4951172,0,.6601562-.1647949.6601562-.6269531v-2.5415039c0-1.9802246-.230957-4.4555664-.5939941-6.1057129l3.7294922.5280762c-.0991211.4619141-.3630371.6599121-1.0231934.7919922v7.4592285Zm3.9274902-6.8981934c9.8024902,2.673584,9.2414551,8.2844238,6.6669922,7.0300293-1.1550293-2.3103027-4.4885254-5.1157227-6.9638672-6.6669922l.296875-.3630371Z"/>
        <path class="cls-1" d="m832.9663086,18.65625s1.4851074,1.3862305,2.2773438,2.3432617c-.0661621.3300781-.3959961.4951172-.7592773.4951172h-3.5314941v6.7990723c1.3532715-.4291992,2.7724609-.8581543,4.1916504-1.3203125l.1320801.4621582c-2.3432617,1.2211914-5.6767578,2.9372559-9.9675293,4.8847656-.098877.3959961-.3959961.7260742-.7260742.8249512l-.9570312-2.7724609c.3959961-.098877.9570312-.230957,1.6501465-.4289551v-5.8747559c0-1.9804688-.230957-4.4558105-.5939941-6.105957l3.3334961.4951172c-.0661621.3630371-.3300781.6269531-.9902344.7260742v10.2644043l2.0793457-.5939941v-14.2580566h-1.8813477c0,.3959961.032959.7919922.0991211.8911133-.0991211.3630371-.6931152.8581543-1.6833496.8581543-.296875,0-.5610352-.3300781-.5610352-.6601562.1320801-1.7163086.2641602-3.432373.2641602-5.1486816,0-1.9804688-.2312012-4.4558105-.5942383-6.105957l2.8713379,1.1882324h4.3566895l1.1223145-1.2541504,2.4421387,1.9472656c-.230957.263916-.7260742.5280762-1.3200684.6601562v8.2180176c-.032959.197998-.9902344.6931152-1.6501465.6931152h-.2641602v-1.2871094h-1.3532715v5.973877h.7592773l1.2541504-1.9143066Zm-5.7429199-5.0498047l5.0827637.1320801v-7.1621094h-5.0827637v7.0300293Zm13.3669434-6.435791l2.1452637,1.9143066c-.230957.263916-.5610352.3630371-1.2211914.3959961-1.0229492,3.5314941-3.1352539,6.5678711-7.1289062,8.3830566l-.2971191-.494873c3.003418-1.8813477,4.6867676-4.7858887,5.4458008-8.0202637-1.3862305,0-2.6074219.065918-3.8286133.263916l-.9570312-1.7822266c1.5512695.3300781,3.4655762.5280762,4.6535645.5280762l1.1882324-1.1879883Zm9.8684082,17.6904297c0,2.6403809.197998,5.940918.2641602,7.7561035-.2641602.2971191-1.0231934.8251953-1.9804688.8251953-.329834,0-.4619141-.3300781-.4619141-.6601562.065918-.4289551.1320801-.8581543.1320801-1.3200684h-9.6044922c0,.494873.032959,1.0891113.0991211,1.2541504-.0991211.3300781-.7922363.8249512-1.7824707.8249512-.296875,0-.6269531-.329834-.6269531-.6599121.1650391-2.5415039.3300781-5.0827637.3300781-7.6242676,0-1.9802246-.2312012-4.4555664-.5942383-6.1057129l2.904541,1.2211914h9.175293l1.0561523-1.2873535,2.2773438,1.8483887c-.1650391.263916-.5280762.4289551-1.1882324.5280762v3.3994141Zm-11.6506348-3.5314941v3.9936523l9.6044922.1318359v-4.1254883h-9.6044922Zm9.6044922,9.175293v-4.1916504h-9.6044922v4.1916504h9.6044922Zm4.5544434-22.5092773c-.1647949.2312012-.4289551.2971191-1.0561523.1320801-1.2209473.7922363-3.267334,2.0463867-4.8845215,2.9375,1.6831055,2.5412598,3.9604492,3.9934082,6.3369141,5.0166016l-.0661621.3630371c-.7260742.1320801-1.3200684.8581543-1.5842285,1.8483887-3.432373-2.2443848-5.7758789-5.0498047-6.9309082-10.8916016v9.0102539c0,1.7163086-.3300781,2.6733398-2.8383789,2.9375-.0661621-.5610352-.197998-1.0891113-.5942383-1.4191895-.3630371-.3300781-1.0229492-.5610352-2.1452637-.7260742v-.5280762s2.5083008.197998,3.0366211.197998c.494873,0,.5939941-.1650391.5939941-.5942383v-6.8979492c0-1.9802246-.230957-4.4555664-.5939941-6.105957l3.5644531.5283203c-.0991211.4619141-.2971191.6928711-1.0231934.8249512v.3630371c.3959961,2.2443848,1.0891113,4.0595703,1.9472656,5.5119629,1.2541504-1.3203125,2.8713379-3.2675781,3.8286133-4.4558105l2.4091797,1.9472656Z"/>
        <path class="cls-1" d="m885.8681641,26.4123535c-.5280762.4289551-1.1220703.032959-1.7492676-.3300781-.2971191-.1650391-1.8483887-1.7492676-4.2905273-3.3334961-.2971191.6931152-.6931152,1.4191895-1.1552734,2.1784668-2.6403809,4.3564453-6.204834,6.46875-10.3635254,6.7658691-.5610352.032959-.4619141-.0991211-.4289551-.2641602,0-.1318359.230957-.065918.6599121-.197998,2.4094238-.6599121,6.2709961-2.5742188,8.6804199-7.7561035.263916-.5939941.4951172-1.2211914.7260742-1.8151855-2.4094238-1.2871094-5.4128418-2.3103027-8.7792969-2.2443848-.2971191,0-.5939941.032959-.8911133.032959-1.3862305,2.706543-3.7956543,7.4921875-4.8518066,8.2182617-1.4851074,1.0561523-2.8383789.7260742-3.5644531-.1650391-.8251953-1.0891113-.5280762-3.6303711,1.1220703-5.6767578.8581543-1.0561523,2.970459-2.6733398,6.105957-3.2675781,2.1123047-3.5974121,4.5546875-7.6899414,5.2807617-8.7460938.3959961-.5612793.8581543-1.2543945.3300781-1.5842285-.3959961-.2312012-.7590332.1318359-1.1552734.3959961-.8579102.6269531-2.3432617,2.1123047-2.8383789,2.3762207-.4619141.2971191-.7260742.6601562-1.6171875.2971191-.9240723-.3630371-2.0793457-1.2541504-2.3762207-1.5842285-.2971191-.3300781-.197998-.4951172-.0991211-.6269531.1320801-.1320801.3630371-.0991211.5939941,0,.2312012.1318359.9572754.527832,1.7163086.263916.7592773-.263916,2.970459-1.7163086,4.0595703-2.2443848,1.0893555-.5610352,2.1455078-.9240723,3.3996582-.032959,1.2211914.8581543,1.4521484,1.7822266,1.0891113,2.1782227-.1650391.1650391-.2971191.4951172-.8251953,1.0231934-2.3762207,2.2773438-4.5876465,6.0400391-5.5117188,7.5910645-.0661621.1320801-.1650391.2971191-.2971191.5280762.2641602-.032959.5280762-.032959.7590332-.032959,2.5744629.032959,5.8088379.8581543,8.7792969,2.0463867.4951172-1.6833496.6271973-3.3005371,0-4.3896484-.263916-.4291992-1.0561523-1.3203125-.8911133-1.5512695.197998-.263916,1.3532715.3300781,1.8483887.4621582.9570312.296875,1.6831055,1.6831055,1.5512695,3.8283691.9570312,1.7824707,2.2111816,3.5976562,3.6303711,4.8188477.2971191.197998.5942383.4289551.8251953.6269531,1.0891113.8581543,1.0561523,1.7824707.5280762,2.2114258Zm-19.4729004-6.6340332c-2.4091797.5610352-4.3896484,1.9143066-5.3137207,4.0927734-.4951172,1.1220703-.230957,1.8151855.1650391,1.9802246.4289551.1320801,1.6171875-.0991211,2.5083008-1.5842285.3300781-.5280762,1.3862305-2.3435059,2.6403809-4.4887695Zm13.9941406,1.4853516c.6269531.263916,1.2211914.5939941,1.7822266.8911133l-1.4521484-2.1452637c-.0991211.3959961-.197998.8249512-.3300781,1.2541504Z"/>
        <path class="cls-1" d="m915.2705078,17.7980957c-.263916.3959961-1.1550293.8251953-1.9140625.8251953-.3962402,0-.5280762-.3300781-.5280762-.6601562.065918-.3300781.1318359-.6601562.1318359-1.0561523h-7.5910645v12.7397461l9.142334.1320801v-4.0925293c0-1.9802246-.230957-4.4558105-.5939941-6.105957l3.7624512.5280762c-.065918.4621582-.3300781.7590332-1.1220703.8911133v3.5976562c0,2.6403809.197998,5.9406738.263916,7.7561035-.263916.4289551-1.1220703.8911133-1.9143066.8911133-.3959961,0-.5610352-.3300781-.5610352-.6601562.0991211-.6271973.1650391-1.2541504.1650391-1.9472656h-20.1989746c0,.7590332.0661621,1.6833496.1320801,2.0463867-.1320801.4289551-.9899902.8579102-1.7492676.8579102-.3959961,0-.6931152-.329834-.6931152-.6599121.1650391-2.3764648.2971191-4.7526855.2971191-7.1950684,0-1.9802246-.230957-4.4558105-.5939941-6.105957l3.7294922.5280762c-.0661621.4621582-.3300781.7590332-1.1223145.8911133v8.6472168l8.911377.1320801v-12.8718262h-7.3930664c0,.3959961.032959.8911133.0991211,1.0231934-.0991211.4289551-.9572754.8581543-1.7163086.8581543-.3959961,0-.6601562-.3300781-.6601562-.6601562.1320801-1.9143066.2641602-3.8286133.2641602-5.7758789,0-1.9802246-.2312012-4.4555664-.5942383-6.105957l3.7294922.5280762c-.065918.4291992-.329834.7260742-1.1220703.8581543v8.2841797l7.3930664.1320801v-6.6008301c0-1.9804688-.230957-4.4558105-.5939941-6.105957l3.8283691.5280762c-.065918.4619141-.329834.7919922-1.0891113.9240723v11.1225586l7.5910645.1320801v-3.6965332c0-1.9802246-.230957-4.4555664-.5939941-6.105957l3.7624512.5280762c-.065918.4291992-.3630371.7260742-1.1220703.8581543l.263916,10.1655273Z"/>
        <path class="cls-1" d="m950.1848145,11.5932617c-.098877.9570312-1.4191895.7260742-1.9143066.6601562-.4289551-.0661621-5.0166016-.7592773-9.1091309-.3632812-.0661621,2.0134277-.1320801,4.3237305-.0991211,5.973877.6931152,1.3203125.9902344,3.3664551.9572754,5.940918-.0991211,6.5349121-6.171875,8.5483398-6.8981934,8.7792969-.230957.0991211-.4289551.1320801-.494873,0-.0661621-.1650391,0-.3300781.296875-.4621582,5.1157227-2.2773438,5.4128418-7.5910645,5.4128418-7.5910645-.230957.4291992-1.2541504,1.2541504-2.0131836,1.2211914-1.5183105,0-2.2773438-1.6831055-2.5744629-2.3103027-.2971191-.6269531-.8581543-1.3532715-1.0891113-3.135498-.1650391-1.0891113.230957-3.5974121,2.8383789-4.1254883.8581543-.197998,1.5842285-.0991211,2.1782227.197998.0991211-.7260742.1650391-2.0131836.1320801-4.3237305-3.9604492.5612793-5.0827637,1.1552734-7.4589844,2.1784668-.6601562.296875-2.6074219,1.3530273-4.4558105.197998-.7919922-.4621582-1.4521484-1.1882324-1.6501465-1.4191895-.2641602-.2641602-.3630371-.5610352-.230957-.6931152.296875-.2971191.8249512.1320801,1.6831055.230957.8911133.0661621,2.1452637.0991211,3.4655762-.197998.9240723-.197998,5.2478027-1.0231934,8.6142578-1.5512695,0-.7919922-.0661621-1.6831055-.0991211-2.6733398-.065918-1.1882324-.6269531-2.1782227-1.0561523-2.5412598-.3300781-.2641602-.7590332-.3630371-.7260742-.6271973.032959-.230957.1650391-.3300781.4291992-.4289551.296875-.0991211,1.0891113-.1982422,1.9472656.197998.9570312.4289551,1.2541504.7590332,1.3859863,1.3200684.0991211.4951172-.032959.7922363-.1318359,1.1552734,1.0231934.6269531,3.3994141,2.0131836,5.0166016,2.4423828,2.0793457.5939941,3.3664551.4619141,4.0595703.6269531.7922363.1320801,1.7163086.3630371,1.5842285,1.3203125Zm-12.6738281,8.8122559c-.032959-2.2773438-.7590332-3.3334961-1.6171875-3.3005371-.3959961.032959-2.7724609.8581543-2.2443848,3.003418.4951172,2.1452637,1.5842285,3.135498,2.6403809,3.135498.6601562,0,1.2873535-.5610352,1.2211914-2.8383789Zm4.5217285-10.7595215c-.2641602-.1650391-1.7492676-1.2541504-2.6074219-1.8813477-.065918.5280762-.1320801,1.5842285-.197998,2.8383789.9902344-.1320801,1.8151855-.230957,2.2773438-.230957.3630371,0,1.0231934-.0661621,1.0561523-.197998.032959-.0991211-.230957-.3300781-.5280762-.5280762Z"/>
        <path class="cls-1" d="m968.3986816,9.744873c.1650391.2641602.2312012.7592773-.4619141,1.3862305-1.1552734,1.0561523-2.2773438,1.8813477-3.4985352,2.4423828-1.1552734,5.5446777-2.904541,13.3669434-3.2346191,14.5881348-.5280762,1.7822266-.9570312,2.6074219-1.8811035,2.3103027s-1.2873535-1.2541504-.8251953-2.2443848c.1320801-.263916,1.4191895-3.003418,2.0793457-5.3466797.8581543-3.003418,1.5842285-5.7099609,2.1782227-8.7133789-.6269531.1320801-1.2541504.2312012-1.9143066.2641602-.7590332.065918-2.0131836-.4621582-2.970459-1.2541504-.296875-.2312012-.263916-.4291992-.263916-.4291992.1320801-.230957.3959961-.065918.6601562,0,.296875.032959,2.0793457.4951172,4.5876465-.6599121.098877-.0661621.197998-.0991211.296875-.1650391.1320801-.8251953.2641602-1.6833496.3962402-2.6074219.032959-.2641602.1320801-1.6833496-.197998-2.3432617-.3300781-.6931152-1.3203125-1.1552734-1.4191895-1.2543945-.0991211-.1318359-.1320801-.197998-.0991211-.3630371.0991211-.263916,1.6171875-.032959,2.3103027.3300781.7260742.3959961,1.6833496.7922363,1.4191895,2.3764648v.098877c.3300781.4291992.7922363,1.0231934,1.3203125,1.1882324.296875.065918.4619141.032959.7260742.032959.2971191.032959.6269531.1320801.7919922.3630371Zm-2.970459-.9240723c-.098877.4951172-.230957,1.1882324-.3959961,2.0131836.2971191-.230957.5942383-.4619141.8581543-.7590332.197998-.1650391-.1320801-.7919922-.4621582-1.2541504Zm15.6113281,20.0668945c.0991211.8251953-.6931152,1.3203125-1.4521484,1.4851074-1.0561523.2641602-2.1123047.3962402-3.1025391.3962402-1.6171875,0-4.7197266-.2312012-6.204834-1.9143066-.7590332-.8581543-.8911133-2.1784668-.6931152-3.1025391.1650391-.7919922.5939941-1.6501465.9240723-1.6501465h.032959c.1650391.032959.1650391.263916.1320801.6601562-.032959.263916-.032959.5280762,0,.7919922.1320801.9902344.4621582,2.1782227,1.8483887,2.5415039,1.0231934.263916,1.9802246.3959961,2.970459.3959961.8249512,0,2.5742188-.197998,3.465332-.3630371,1.2873535-.2641602,2.0134277,0,2.0793457.7590332Zm-8.3500977-17.5585938c0-.065918.032959-.1318359.197998-.1318359.098877,0,.263916.032959.5280762.098877.5610352.0991211,1.4521484.230957,1.7163086.2641602.329834,0,.6928711-.0332031,1.1220703-.0991211.4621582-.065918.9902344-.1650391,1.5842285-.1650391.3959961,0,.7919922.032959,1.1882324.0991211.6269531.1318359,1.1879883.5610352,1.4191895,1.1550293.197998.4291992.1320801.8581543-.0991211,1.2211914-.230957.3300781-.7260742.3630371-1.1550293.3959961-.0991211.0332031-.1982422.0332031-.2971191.0332031-.1320801.032959-.2641602.032959-.3630371.065918-.197998,0-.3630371.032959-.6931152.0991211-.3300781.098877-.6931152.230957-1.0561523.3630371-.197998.065918-.3630371.1318359-.5280762.197998-.065918.032959-.1320801.065918-.230957.098877-.1982422.0991211-.4291992.197998-.5942383.197998h-.098877c-.0661621-.032959-.0991211-.098877-.0991211-.1318359-.032959-.0991211,0-.1982422.032959-.2971191.197998-.3630371.5610352-.6271973.8911133-.8581543l.1982422-.197998c.098877-.065918.1647949-.1320801.197998-.197998.032959-.0991211,0-.1650391-.0332031-.230957-.098877-.1982422-.3959961-.2641602-.6269531-.2971191l-.032959-.032959q-.2971191-.0332031-.7592773-.1650391l-.230957-.0661621c-1.0891113-.3630371-2.2443848-1.0231934-2.1782227-1.4191895Zm10.8916016-2.2441406c.494873.6599121.494873,1.4851074-.1320801,2.0461426,0,0-.7922363.3959961-1.4191895-.3959961-.6271973-.7590332-1.3862305-1.9143066-3.0695801-2.9375-.263916-.1650391-.5280762-.263916-.494873-.4619141.032959-.1982422.494873-.1320801.7590332-.1320801.263916.032959,3.0693359.3300781,4.3566895,1.8813477Zm2.7392578-1.0561523s-.7260742.4619141-1.3532715-.1982422c-.6599121-.6269531-1.4851074-1.6171875-3.1352539-2.3103027-.2641602-.1320801-.4951172-.197998-.4951172-.3959961s.4289551-.1650391.6601562-.197998c.230957,0,2.7392578-.032959,4.0595703,1.2211914.5280762.5280762.8581543,1.3530273.263916,1.8813477Z"/>
        <path class="cls-1" d="m1000.3425293,16.8740234c-1.8811035,3.3994141-3.3334961,8.4492188-3.432373,9.373291-.1320801,1.3862305.6269531,2.8713379.8251953,3.4655762.263916.9240723-.2312012,1.2211914-.6601562,1.3862305-.4291992.1650391-.8581543-.1650391-1.1223145-.4621582-2.3432617-2.5744629-2.9372559-7.8220215-2.7722168-10.7265625.1318359-2.9375,1.1550293-6.2709961,1.3862305-8.4821777.296875-3.135498-1.0561523-4.5876465-1.2543945-4.7856445-.1650391-.2312012-.3300781-.3630371-.230957-.4951172s.3959961-.0991211.7590332.065918c.4951172.2641602,3.2675781,2.2773438,2.904541,5.1157227-.4291992,3.6965332-1.9143066,4.4226074-2.0793457,8.7792969-.032959.9902344.0991211,1.9472656.197998,2.6074219.0661621.4621582.2971191,1.0231934.5280762,1.0891113.2312012.032959.4621582-.2971191.5942383-.5939941.1318359-.3300781,3.3994141-6.0068359,3.7954102-6.5681152.3959961-.5939941.6271973-.9570312.8251953-.8249512.197998.1318359.065918.5280762-.2641602,1.0561523Zm13.7299805-4.8518066c-.197998.1650391-1.9472656.9902344-3.7624512,1.6503906.1650391,2.7392578.4621582,7.6899414.197998,8.9440918-.3300781,1.6174316-.7590332,6.4689941-7.0629883,9.8354492-.3630371.197998-.6271973.0991211-.6931152-.032959-.032959-.1320801.2641602-.3300781.3630371-.3959961,3.6635742-1.9802246,4.9177246-6.6010742,5.3466797-9.307373.2312012-1.4191895.1650391-5.1157227.0332031-8.4821777-.7592773.197998-1.4523926.3300781-1.8813477.263916-1.8151855-.197998-3.4326172-1.1550293-3.7956543-1.5180664-.065918-.0661621-.197998-.1320801-.1318359-.2971191.032959-.1320801.197998-.1650391.4289551-.065918.197998.065918,1.6501465.4619141,2.7062988.3959961.4621582,0,1.4853516-.197998,2.6074219-.4951172-.1318359-2.2773438-.263916-4.0925293-.296875-4.5546875-.1982422-1.1882324-1.3862305-2.0793457-1.5842285-2.1123047-.1982422-.032959-.4621582-.098877-.3962402-.3300781.0991211-.3300781.6271973-.3630371.9902344-.3300781.7590332.0332031,2.1782227.197998,2.9375.8251953.7919922.6601562.6599121,1.0891113.4619141,1.6833496-.065918.197998-.098877.5280762-.1650391.9240723.5280762.3630371,1.6171875,1.1220703,2.1455078,1.2541504.7260742.197998,2.2441406.0991211,2.3103027.8911133.098877.7590332-.4621582.9902344-.7592773,1.2541504Zm-2.0461426-1.4851074c-.2641602-.1320801-1.1882324-.6931152-1.7492676-1.0561523-.0661621.8249512-.0991211,1.7822266-.0661621,2.4753418.7592773-.2641602,1.4191895-.5610352,1.8154297-.8251953.1650391-.098877.3630371-.4289551,0-.5939941Z"/>
        <path class="cls-1" d="m1041.9238281,9.480957c-1.8481445-.2641602-3.7294922.4289551-4.0595703.6269531-.6271973.3300781-2.4094238,2.3103027-3.2675781,4.8847656-2.1452637,6.3369141-1.4521484,10.5285645-.230957,12.310791,1.1220703,1.6171875,3.6965332,1.0891113,5.1486816,1.0561523,1.6833496-.065918,3.135498.1650391,3.1025391,1.2211914-.032959.9570312-1.7822266,1.1550293-2.4423828,1.1882324-2.8383789.197998-5.2807617.230957-6.9970703-1.9143066-1.5180664-1.8813477-1.7492676-3.8615723-1.7822266-6.171875-.098877-7.8222656,5.0498047-12.4099121,4.9506836-12.6079102-.065918-.1650391-.4619141.0661621-.8249512.1320801-1.3862305.3630371-6.2050781,2.4753418-7.5910645,3.003418-.5942383.230957-1.9475098,1.1552734-2.706543,1.2541504-1.4851074.197998-3.267334-2.0793457-3.3994141-2.2773438-.1650391-.197998-.197998-.4621582-.0661621-.6269531.1982422-.1982422.3632812-.0991211.6601562.032959.2971191.1318359,1.1882324.7919922,2.3435059.5280762,1.1550293-.2641602,9.175293-3.2346191,14.4890137-4.0595703,1.0231934-.1320801,1.5180664-.6601562,2.9375-.9572754,1.0229492-.197998,2.8713379.6271973,3.201416,1.2541504.3630371.6601562.4289551,1.1882324-.2641602,1.4853516-.230957.1320801-2.1452637-.2312012-3.201416-.3630371Zm3.5644531-4.5546875c.4621582.1320801,3.4985352,1.0561523,3.5314941,3.1025391,0,.6599121-.197998.9570312-.5939941,1.0891113-.3959961.1318359-1.1552734-.0661621-1.5183105-.8581543-.3959961-.8581543-1.1220703-2.1784668-1.9143066-2.6733398-.329834-.1982422-.7590332-.4291992-.6928711-.6601562.098877-.2641602.7260742-.0991211,1.1879883,0Zm3.4655762-1.7163086c.4621582.065918,3.6306152.8251953,3.6965332,2.9375.032959.5610352-.2641602.7260742-.4951172.8251953-.3959961.1647949-1.0561523.032959-1.5180664-.7263184-.4621582-.7919922-1.2873535-1.9802246-2.1123047-2.3762207-.3300781-.1650391-.8251953-.3630371-.7592773-.5942383.0661621-.263916.7260742-.1647949,1.1882324-.065918Z"/>
        <path class="cls-1" d="m1066.6726074,18.887207c0,.8251953-.032959,1.5842285-.065918,2.3432617l1.8811035-.527832.1650391.494873-2.1782227.9572754c-.7260742,5.2145996-3.3994141,8.9772949-9.8024902,11.3864746l-.329834-.4619141c4.8515625-2.4094238,7.1618652-5.6108398,7.9541016-10.0334473-2.0463867.8911133-4.4887695,1.8813477-7.3601074,3.003418-.1320801.3959961-.3959961.6931152-.6601562.7590332l-1.4191895-2.5742188c1.8151855-.3630371,5.4787598-1.2873535,9.6374512-2.4423828.098877-.9243164.1650391-1.8813477.1650391-2.904541v-1.9472656h-3.135498c-1.4191895,0-2.6403809.065918-3.8615723.2641602l-.9240723-1.7822266c1.7822266.329834,3.9604492.527832,5.3466797.527832l2.5744629.1320801v-5.973877h-3.6965332c-1.4191895,0-2.6403809.0661621-3.8615723.2641602l-.9572754-1.7492676c1.7822266.3300781,3.9606934.5280762,5.3469238.5280762l3.168457.1320801v-.1320801c0-1.7822266-.2312012-4.0595703-.5942383-5.5778809l3.7626953.4951172c-.0661621.4621582-.3300781.7922363-1.1552734.9240723v13.8950195Zm13.4328613-4.7526855s1.6174316,1.3532715,2.640625,2.3103027c-.0991211.3630371-.3632812.5280762-.8251953.5280762h-7.8552246v7.0300293h5.4787598l1.5842285-2.0461426s1.7163086,1.4191895,2.8054199,2.4753418c-.098877.3630371-.3959961.5280762-.8249512.5280762h-9.043457c0,2.6071777.197998,5.7756348.2641602,7.5249023-.2641602.4951172-1.1552734,1.0231934-1.9472656,1.0231934-.3630371,0-.7263184-.3300781-.7263184-.6601562.1982422-2.8383789.3632812-5.6767578.3632812-8.5810547v-14.6210938c0-1.9804688-.2312012-4.4558105-.5942383-6.105957l3.7956543.5280762c-.0991211.4621582-.3630371.7922363-1.1552734.9240723v4.1586914h4.9506836l1.5183105-1.9802246s1.7163086,1.3859863,2.7724609,2.4091797c-.0661621.3630371-.3962402.5280762-.8251953.5280762h-8.4162598v5.907959h4.5546875l1.4851074-1.8813477Z"/>
        <path class="cls-1" d="m1112.2805176,32.1220703c-.2971191.3962402-1.3203125,1.0231934-2.1123047,1.0231934-.2971191,0-.4621582-.3300781-.4621582-.6601562.0991211-.6931152.1650391-1.3859863.1650391-2.1123047h-14.7861328c0,.7263184.065918,1.5512695.1320801,1.8813477-.1320801.4951172-.8911133,1.0561523-1.8813477,1.0561523-.3300781,0-.6931152-.3300781-.6931152-.6601562.197998-2.8383789.3630371-5.6767578.3630371-8.5810547v-12.6738281c0-1.9804688-.230957-4.4558105-.5939941-6.105957l2.8713379,1.3200684h14.2580566l1.2211914-1.4521484,2.6074219,2.1784668c-.230957.263916-.7260742.494873-1.3532715.6269531l.2641602,24.1594238Zm-17.1955566-24.5554199v10.2314453l14.7861328.1320801V7.5666504h-14.7861328Zm14.7861328,21.8491211v-10.6606445h-14.7861328v10.6606445h14.7861328Z"/>
        <path class="cls-1" d="m1136.4353027,9.447998h2.6071777c1.0231934-1.7163086,2.2773438-4.0598145,3.0366211-5.7758789l3.168457,1.3530273c-.1650391.3300781-.6601562.5942383-1.2543945.4621582-1.0229492,1.1882324-2.5412598,2.739502-4.0595703,3.9606934h6.2050781l1.3530273-1.4523926,2.4753418,2.4423828c-.230957.2641602-.5939941.2971191-1.2209473.3300781-.8251953,1.0561523-2.3435059,2.4753418-3.4655762,3.3005371l-.4621582-.2641602c.4621582-.8911133.9902344-2.2773438,1.3532715-3.3994141h-20.6940918c0,2.2443848-.8911133,3.7624512-1.7822266,4.4226074-.7590332.6271973-1.9143066.6931152-2.2773438-.065918-.3300781-.6931152.0991211-1.3862305.7592773-1.7822266,1.2541504-.7922363,2.4753418-2.871582,2.4091797-5.1157227h.5610352c.1320801.5610352.2312012,1.0891113.2971191,1.5842285l8.878418.1318359v-.263916c0-1.9802246-.2312012-4.4555664-.5942383-6.105957l3.7956543.5280762c-.0661621.4621582-.3630371.7922363-1.0891113.8911133v4.8188477Zm5.6105957,2.6403809l2.4755859,1.9140625c-.1982422.2312012-.6931152.4951172-1.2211914.5942383v5.3796387c-.0332031.197998-1.1223145.6931152-1.7492676.6931152h-.2971191v-1.2871094h-4.8847656v3.4326172h6.9970703l1.0561523-1.2873535,2.6733398,2.0463867c-.197998.230957-.7260742.4951172-1.3862305.6269531v4.8847656c0,1.6501465-.3630371,2.739502-3.3334961,3.036377-.065918-.6599121-.230957-1.2211914-.6269531-1.5510254-.4621582-.3300781-1.2541504-.6601562-2.706543-.8251953v-.4951172s3.135498.230957,3.8945312.230957c.5942383,0,.7592773-.197998.7592773-.6269531v-5.0498047h-7.3271484v.9240723c0,2.6403809.197998,5.940918.2641602,7.7561035-.2641602.3300781-.9243164,1.0231934-2.0134277,1.0231934-.3300781,0-.6931152-.3300781-.6931152-.6601562.197998-2.8383789.3630371-5.6767578.3630371-8.5810547v-.4621582h-7.0959473c0,2.5744629.197998,5.7429199.2641602,7.4921875-.2641602.3630371-1.1552734.8581543-1.9472656.8581543-.3300781,0-.5283203-.3300781-.5283203-.6601562.0991211-1.2541504.1982422-2.5083008.1982422-3.7956543,0-1.9802246-.2312012-4.4555664-.5942383-6.1057129l2.8054199,1.2211914,6.8979492.1318359v-3.5644531h-4.6535645c0,.3630371.032959.7260742.0991211.7919922-.0991211.3632812-.9902344.8581543-1.8154297.8581543-.296875,0-.4619141-.329834-.4619141-.6599121.098877-.6931152.1650391-1.3862305.1650391-2.1455078,0-1.9802246-.2312012-4.4555664-.5942383-6.1057129l2.7724609,1.1882324h11.1555176l1.0891113-1.2211914Zm-15.4130859-8.3173828c6.3369141,1.9143066,4.5546875,6.6669922,2.4423828,5.0498047-.1650391-1.6501465-1.4853516-3.6965332-2.7724609-4.7856445l.3300781-.2641602Zm3.003418,14.6872559l11.6176758.1320801v-4.3237305h-11.6176758v4.1916504Z"/>
        <path class="cls-1" d="m1154.7150879,19.2172852c.1650391-.4621582,1.1220703-.1650391,1.8151855-.3300781.6931152-.1320801,1.1882324-.5610352,2.0134277-1.1882324,1.1550293-.8911133,4.0266113-3.465332,4.8845215-4.2905273,1.0893555-1.0231934,2.2443848-1.1550293,3.6306152-.032959s7.1291504,6.8649902,13.6970215,8.7792969c2.0131836.5610352,2.0131836,1.8151855,1.7822266,2.3103027-.3300781.6931152-1.4191895.9570312-2.8054199.2971191-4.5876465-2.2114258-7.9211426-5.2807617-13.0698242-10.1655273-.8251953-.7592773-1.5842285-1.4191895-2.970459.1320801-.7922363.8579102-2.8713379,2.9702148-4.0595703,4.9836426-.3300781.5939941-.8581543,1.4191895-1.8813477,1.6831055-1.9802246.4951172-3.267334-1.5180664-3.036377-2.1782227Z"/>
        <path class="cls-1" d="m1186.2958984,29.0527344c0-2.5415039,2.1123047-4.6206055,4.6535645-4.6206055,2.5415039,0,4.6208496,2.0791016,4.6208496,4.6206055,0,2.5412598-2.0793457,4.6535645-4.6208496,4.6535645-2.5412598,0-4.6535645-2.1123047-4.6535645-4.6535645Zm1.1220703,0c0,1.9472656,1.5512695,3.5314941,3.5314941,3.5314941,1.9472656,0,3.4985352-1.5842285,3.4985352-3.5314941s-1.5512695-3.4985352-3.4985352-3.4985352c-1.9802246,0-3.5314941,1.5512695-3.5314941,3.4985352Z"/>
      </g>
    </g>
  </g>
</svg>