<?xml version="1.0" encoding="UTF-8"?>
<svg id="_レイヤー_2" data-name="レイヤー 2" xmlns="http://www.w3.org/2000/svg" viewBox="0 0 208.2746582 13.8745117">
  <defs>
    <style>
      .cls-1 {
        fill: #fff;
        stroke-width: 0px;
      }
    </style>
  </defs>
  <g id="_レイヤー_1-2" data-name="レイヤー 1">
    <g>
      <path class="cls-1" d="m0,13.6196289c3.9599609-1.170166,4.5898438-3.3149414,4.4399414-6.0148926l1.5749512.1499023c-.0449219.2700195-.2250977.3901367-.5249023.420166-.0900879,2.6098633-.9299316,4.6796875-5.3847656,5.6848145l-.1052246-.2399902ZM12.1196289,5.4748535l1.1550293,1.1550293c-.1049805.1049805-.2700195.1499023-.5700684.1647949-.4799805.6149902-1.4099121,1.4399414-2.0998535,1.9350586l-.1650391-.1350098c.3149414-.5100098.7348633-1.3349609,1.0200195-1.994873H2.1899414c.045166,1.0649414-.3898926,1.7697754-.8098145,2.0698242-.3601074.2700195-.8850098.3149414-1.0500488-.0449219-.1350098-.3300781.0449219-.6149902.3601074-.7949219.5998535-.3601074,1.1398926-1.2900391,1.079834-2.3400879l.2399902-.0148926c.0749512.2399902.1201172.4650879.1501465.6750488h9.3295898l.6298828-.6750488Zm-1.2299805-2.2648926s.7949219.6450195,1.2749023,1.1098633c-.0449219.1650391-.1650391.2399902-.3598633.2399902H3.6450195c-.6450195,0-1.1999512.0300293-1.7548828.1201172l-.420166-.7949219c.8100586.1499023,1.8000488.2399902,2.4299316.2399902l2.25.0598145v-1.9047852h-3.6748047c-.6450195,0-1.1999512.0300293-1.7548828.119873l-.4350586-.7949219c.8098145.1501465,1.7998047.2399902,2.4299316.2399902l3.4348145.0600586v-.0600586c0-.5849609-.1049805-1.3049316-.2700195-1.829834l1.7700195.2399902c-.0300293.2248535-.1650391.375-.5251465.4199219v1.1699219h4.0048828l.7050781-.9299316s.7797852.6599121,1.2897949,1.1398926c-.0449219.1501465-.1799316.2250977-.3898926.2250977h-5.6098633v1.8449707h3.0898438l.6750488-.9150391Zm-2.2648926,9.1047363c0,.2397461.0600586.2998047.6000977.2998047h1.4697266c.6601562,0,1.170166,0,1.3500977-.0148926.1799316-.0151367.2248535-.0600586.3000488-.1950684.1049805-.2399902.2697754-1.0200195.4348145-1.8598633h.1799316l.0300293,1.9199219c.3300781.119873.3901367.2399902.3901367.4350586,0,.4348145-.4350586.6147461-2.7148438.6147461h-1.5900879c-1.1547852,0-1.3798828-.2397461-1.3798828-.9897461v-2.2351074c0-.8999023-.1049805-2.0249023-.2700195-2.7746582l1.619873.2397461c-.0300293.1801758-.1499023.3151855-.4199219.3601074v4.1999512Z"/>
      <path class="cls-1" d="m25.6945801,6.9748535s.8100586.6450195,1.3049316,1.1398926c-.0148926.1650391-.1647949.2250977-.3747559.2250977h-4.4699707v4.4248047h4.0197754l.75-.9750977s.8549805.6750488,1.380127,1.1699219c-.045166.1650391-.1801758.2399902-.375.2399902h-10.8596191c-.6450195,0-1.1999512.0300293-1.7548828.1201172l-.420166-.7949219c.8100586.1499023,1.8000488.2399902,2.4299316.2399902l3.8249512.0598145v-4.4846191h-2.5200195c-.6447754,0-1.1999512.0297852-1.7548828.119873l-.4199219-.7949219c.8100586.1499023,1.7998047.2399902,2.4299316.2399902l2.2648926.0600586v-3.9299316h-3.1049805c-.6450195,0-1.1999512.0300293-1.7548828.1201172l-.4199219-.795166c.8100586.1501465,1.7998047.2399902,2.4299316.2399902h7.2446289l.7351074-.9599609s.8398438.6750488,1.3647461,1.1550293c-.0449219.1650391-.1799316.2399902-.3898926.2399902h-5.0998535v3.869873h2.8049316l.7348633-.9299316ZM19.5300293.1049805c4.1696777.8400879,3.7946777,3.4199219,2.6098633,2.8200684-.4650879-.9301758-1.7399902-2.0700684-2.744873-2.6550293l.1350098-.1650391Z"/>
      <path class="cls-1" d="m34.4848633,2.5048828s.7050781.630127,1.1401367,1.0800781v.0148926c.494873-1.0498047.8847656-2.2497559,1.1547852-3.5249023l1.4699707.4501953c-.0749512.1948242-.2548828.3149414-.5700684.3149414-.2397461.8249512-.5549316,1.5749512-.9147949,2.2648926h4.9648438l.5249023-.6599121,1.1098633.9599609c-.1049805.1350098-.2849121.2099609-.5998535.2548828-.1950684,4.9797363-.7199707,8.5197754-1.5148926,9.4196777-.4350586.5100098-1.0500488.7348633-1.755127.7199707,0-.3000488-.0749512-.5849609-.2849121-.7199707-.2248535-.1799316-.9299316-.3601074-1.5449219-.4499512l.0148926-.2851562c.7050781.0900879,1.875.2099609,2.2050781.2099609.329834,0,.4648438-.0598145.6748047-.2397461.6450195-.6000977,1.0949707-4.1398926,1.3200684-8.7897949h-.9450684c-.6298828,3.9147949-2.1748047,7.2746582-5.3847656,9.5395508l-.1499023-.1948242c2.6547852-2.3999023,4.0498047-5.7297363,4.4997559-9.3447266h-1.079834c-.7050781,2.7299805-2.1899414,5.1298828-4.3947754,6.7646484l-.1501465-.1948242c1.8000488-1.7099609,3.0300293-4.125,3.5397949-6.5698242h-1.2897949c-.6000977,1.0800781-1.3500977,1.9499512-2.2050781,2.6098633l-.1948242-.1650391c.5400391-.6149902,1.0200195-1.3947754,1.454834-2.2797852-.0749512.0900879-.1799316.1350098-.329834.1350098h-1.7849121v3.3898926c.6599121-.2399902,1.3498535-.4799805,2.0549316-.7351074l.0749512.2250977c-.5849609.3149414-1.2900391.704834-2.1298828,1.1550293v2.0097656c0,1.1999512.0898438,2.6999512.119873,3.5249023-.119873.2099609-.5100098.4350586-.8549805.4350586-.1950684,0-.3598633-.1501465-.3598633-.3000488.0898438-1.2900391.1647949-2.579834.1647949-3.8999023v-1.2749023c-.494873.2548828-1.0498047.5400391-1.6347656.8398438-.045166.1801758-.1650391.3151855-.3000488.375l-.5549316-1.2597656c.5100098-.1201172,1.4099121-.4050293,2.4897461-.7800293v-3.704834h-1.1398926c-.3149414.9448242-.6899414,1.8149414-1.1547852,2.4897461l-.2250977-.1347656c.5100098-1.3649902.9150391-3.3000488,1.0649414-5.1748047l1.3649902.2700195c-.0600586.1948242-.2099609.3449707-.5100098.3598633-.1201172.5849609-.2399902,1.1699219-.4199219,1.7399902l1.0197754.0598145v-.6599121c0-.8999023-.1049805-2.0249023-.2697754-2.7749023l1.6948242.255127c-.0300293.2099609-.1499023.3598633-.494873.4199219v2.6999512h.3747559l.6450195-.8701172Z"/>
      <path class="cls-1" d="m47.8798828,9.8996582c0,1.1999512.0900879,2.6999512.1201172,3.5249023-.1201172.1499023-.5100098.4050293-.869873.4050293-.1801758,0-.3449707-.1501465-.3449707-.3000488.0898438-1.2900391.1647949-2.579834.1647949-3.8999023v-4.2297363c-.5549316.8999023-1.1699219,1.6948242-1.7998047,2.3547363l-.1950684-.1499023c1.2299805-1.7998047,2.4899902-4.6499023,3.1948242-7.4997559l1.4699707.5400391c-.0598145.1650391-.2548828.2849121-.5698242.2700195-.375,1.0949707-.8249512,2.1599121-1.3349609,3.1347656l.5998535.255127c-.0449219.1350098-.1799316.2399902-.4350586.2700195v5.324707Zm8.8947754-7.2145996s.75.6447754,1.2148438,1.0949707c-.0300293.1647949-.1647949.2399902-.375.2399902h-3.6296387v3.659668h2.4897461l.6750488-.8999023s.7949219.6298828,1.244873,1.1098633c-.0300293.1650391-.1650391.2399902-.375.2399902h-4.034668v1.7250977c0,1.1999512.0898438,2.699707.119873,3.5249023-.119873.2248535-.5400391.4348145-.8850098.4348145-.2099609,0-.375-.1499023-.375-.3000488.0900879-1.2897949.1650391-2.579834.1650391-3.8996582v-1.4851074h-2.4299316c-.6450195,0-1.1999512.0300293-1.7548828.1201172l-.4050293-.8100586c.8100586.1501465,1.8000488.2399902,2.4299316.2399902l2.1599121.0600586v-3.7197266h-2.369873c-.5400391,1.1547852-1.1699219,2.1599121-1.9050293,2.9248047l-.1799316-.1501465c.8400879-1.4399414,1.619873-3.6447754,1.994873-5.909668l1.4851074.4951172c-.0600586.1647949-.2250977.2998047-.5549316.2849121-.1801758.6599121-.3901367,1.3049316-.6601562,1.9199219l2.1899414.0600586v-.6750488c0-.8999023-.1049805-2.0249023-.2700195-2.7749023l1.7548828.2548828c-.0449219.2102051-.1347656.3601074-.5097656.4050293v2.7299805h2.0998535l.6899414-.8999023Z"/>
      <path class="cls-1" d="m62.0100098,1.9499512c-.0300293-.0449219-.119873-.1499023-.0900879-.2099609.0751953-.119873.1950684-.0449219.2700195,0,.1801758.1201172,1.1101074.6149902,1.1101074,1.9499512,0,.5400391-.6750488,1.829834-.8850098,2.7299805-.2548828,1.0349121-.1799316,1.5148926-.0449219,1.994873.0297852.119873.0148926.1799316.1350098.1948242.119873.0151367.1647949-.0749512.2399902-.2548828.0749512-.1799316.6147461-1.454834.6748047-1.6350098.0600586-.1799316.1201172-.1647949.1650391-.1499023.0300293.0148926.0449219.0749512,0,.2248535-.0449219.1650391-.5400391,1.9350586-.5249023,2.8049316.0300293.8850098.2998047,2.1000977.3449707,2.3400879.0449219.2399902-.1501465.4499512-.3449707.4648438-.3000488.0300293-.6899414-.3598633-.8400879-.7648926-.1650391-.4050293-.5549316-1.5-.5998535-3.5849609-.0300293-1.9797363.6149902-3.3747559.7797852-4.8596191.0751953-.5400391-.3449707-1.2001953-.3898926-1.2451172Zm3.8847656,8.1147461c.3300781.2399902.6901855.4799805,1.2751465.6298828.5698242.1501465,1.9648438.1201172,3.2998047-.119873.6450195-.1201172,1.0048828.2399902,1.0200195.5397949,0,.3151855-.3601074.4501953-.6149902.5251465-.255127.0749512-3.1350098.4199219-4.244873-.255127-.6000977-.375-.9150391-1.0197754-.9599609-1.1398926-.0600586-.1049805-.1049805-.2548828-.0600586-.3000488.0749512-.0598145.1950684.0600586.2849121.1201172Zm.420166-7.1098633c.1049805.045166.5549316.2102051,1.1999512.1801758.6447754-.0300293,2.0698242-.2851562,2.3847656-.3901367s.8100586.1501465.8850098.420166c.0749512.2697754-.2700195.4648438-.5998535.5698242-.3300781.1049805-1.9050293.375-2.8200684.1501465-.704834-.1650391-1.244873-.5400391-1.4248047-.9001465-.045166-.0898438-.0600586-.1647949-.0300293-.2099609.0449219-.0749512.3000488.1350098.4050293.1799316Z"/>
      <path class="cls-1" d="m79.5749512,11.5495605c-.0148926-.119873.1650391-.1499023.2099609-.1499023,2.9399414-.1650391,5.6848145-1.5449219,6.3146973-3.75.5549316-1.9648438-.4199219-3.2697754-1.6499023-3.704834-2.1149902-.7497559-5.1447754,1.5300293-5.5498047,1.8000488-.329834.2399902-.9748535.8398438-1.6347656.9599609-.5700684.1049805-1.380127-.5549316-1.6049805-.7800293-.2399902-.2099609-.2399902-.3598633-.1950684-.4350586.1049805-.1499023.2700195-.0898438.4350586-.0449219.1499023.0600586.5397949.1799316.9599609.1049805.9899902-.1950684,5.0397949-2.9848633,7.6945801-2.0698242,2.6398926.9299316,2.8498535,2.8198242,2.6398926,4.1547852-.1049805.6599121-.6899414,3.7648926-7.409668,4.0349121-.0449219,0-.1950684,0-.2099609-.1201172Z"/>
      <path class="cls-1" d="m100.3796387,5.5048828c-.119873.1049805-.75.4648438-1.5898438.7800293.6298828,1.0649414,1.1398926,1.9199219,1.244873,2.1147461.3000488.5251465.4350586.8100586.3901367,1.2451172-.045166.4348145-.4799805.9599609-.6901855,1.0649414-.2099609.1049805-.4047852-.0900879-.6599121-.3300781-1.0498047-.9899902-2.4448242-1.1098633-3.1948242-1.0949707-.7648926.0300293-2.0998535.5849609-1.8149414,1.7849121.3000488,1.2150879,1.9499512,1.0649414,2.4899902.9750977.5397949-.1049805,1.1547852,0,1.4699707.2248535.2998047.1950684.2399902.7648926-.1950684.8249512-3.8398438.4650879-4.3798828-1.3649902-4.4248047-1.8598633-.1350098-1.8149414,1.3947754-2.2199707,2.369873-2.369873.9899902-.1350098,1.9499512.1049805,2.3999023.2099609.4499512.119873.7199707.1350098.9448242.0449219.2250977-.0898438.1052246-.3898926.045166-.6447754-.045166-.1501465-.4650879-.9450684-1.005127-1.9650879-.5097656.1650391-1.079834.3000488-1.619873.3449707-.75.0600586-1.994873.1501465-3.1499023-.9299316-.2399902-.2099609-.4047852-.4648438-.3898926-.5400391.0148926-.1049805.1799316-.0148926.2849121.045166.1049805.0749512,1.2451172.7648926,2.4299316.704834.7050781-.0300293,1.4550781-.1948242,2.0549316-.375-.2849121-.5249023-.5849609-1.079834-.869873-1.619873-.0600586-.119873-.1201172-.2250977-.1950684-.3449707-.5998535.1950684-1.3049316.3601074-1.7548828.2399902-.6899414-.1950684-1.0500488-.6000977-1.3649902-1.0200195-.119873-.1350098-.1650391-.2248535-.1350098-.2700195.0600586-.0749512.3149414.0900879.4799805.1950684.1350098.0749512.8549805.494873,1.5.3601074.2248535-.045166.5100098-.1501465.7949219-.2399902-.8100586-1.125-1.5598145-1.545166-1.9199219-1.6799316-.1499023-.0600586-.3898926-.1350098-.4050293-.3000488-.0148926-.1799316.3149414-.2700195.4799805-.2849121.75-.1201172,1.125.1647949,1.3950195.494873.0900879.1049805.4648438.7348633.9748535,1.5749512.3000488-.1201172.5400391-.2099609.6450195-.2250977.2849121-.0300293.5400391.0600586.6599121.2851562.1201172.1948242-.0749512.329834-.2399902.4348145-.0598145.0300293-.2849121.1501465-.5998535.2700195.1049805.1799316.2250977.375.3449707.5700684.0449219.0148926.1049805.0300293.1499023.0449219.2700195.0749512,1.1850586.255127,1.8898926.1799316.7050781-.0598145,1.2451172-.0449219,1.2600098.3000488.0300293.3300781-.2548828.5849609-.4799805.7800293Zm-1.5898438-.6750488c-.2250977-.0749512-.6750488-.1948242-1.0649414-.329834.2099609.3449707.4199219.704834.6298828,1.0498047.1350098-.0600586.2399902-.1049805.3149414-.1499023.375-.2399902.4799805-.4499512.1201172-.5700684Z"/>
      <path class="cls-1" d="m107.8649902,9.8996582c0,1.1999512.0900879,2.6999512.1201172,3.5249023-.1350098.1650391-.5100098.4050293-.8701172.4050293-.1799316,0-.3449707-.1501465-.3449707-.3000488.0900879-1.2900391.1650391-2.579834.1650391-3.8999023v-4.199707c-.5549316.8999023-1.1699219,1.6948242-1.8000488,2.3398438l-.1948242-.1499023c1.2299805-1.8149414,2.5197754-4.6650391,3.2397461-7.5148926l1.4851074.4951172c-.0600586.1650391-.255127.2849121-.5700684.2700195-.3898926,1.1247559-.8549805,2.204834-1.3798828,3.1948242l.5698242.2248535c-.0449219.1501465-.1647949.2399902-.4199219.2851562v5.324707Zm6.0898438-6.6147461h2.6547852l.5249023-.6149902,1.170166.9299316c-.1049805.1201172-.3300781.2399902-.6149902.3000488v1.5148926c0,1.1999512.0898438,2.6999512.119873,3.5249023-.1350098.1650391-.5998535.4050293-.9150391.4050293-.1347656,0-.1948242-.1501465-.1948242-.3000488.0300293-.2248535.0600586-.4499512.0600586-.6899414h-2.8049316v1.5c0,1.1999512.0898438,2.699707.119873,3.5249023-.119873.2099609-.5249023.4348145-.8549805.4348145-.1948242,0-.3598633-.1499023-.3598633-.3000488.0898438-1.2897949.1650391-2.579834.1650391-3.8996582v-1.2600098h-2.7299805c0,.2849121.0300293.6298828.0600586.75-.0600586.1799316-.4499512.4050293-.8249512.4050293-.1650391,0-.3151855-.1501465-.3151855-.3000488.0751953-1.2299805.1501465-2.4599609.1501465-3.7199707,0-.8999023-.1049805-2.0249023-.2700195-2.7746582l1.2749023.5698242,2.6550293.0600586v-.375c0-.8999023-.1049805-2.0249023-.2700195-2.7749023l1.8447266.2700195c-.0598145.2548828-.2099609.4199219-.6447754.4648438v2.3549805Zm-.9299316,4.6499023V3.704834h-2.7299805v4.2299805h2.7299805Zm3.7348633,0V3.704834h-2.8049316v4.2299805h2.8049316Z"/>
      <path class="cls-1" d="m120.0151367,7.2746582l-.1049805-.2099609c2.6398926-1.4848633,5.4296875-4.574707,6.1496582-6.9746094l1.7849121.4648438c-.0449219.1801758-.2399902.255127-.5998535.3000488,1.2148438,2.1149902,3.5998535,3.75,6.2097168,4.7697754l-.0300293.2250977c-.4499512.1049805-.8100586.4799805-.8999023.8549805-2.4748535-1.244873-4.5898438-3.2248535-5.5498047-5.6848145-1.2600098,2.4299316-3.9897461,4.9648438-6.9597168,6.2546387Zm4.8598633.2851562c-.045166,2.3098145-.6149902,4.8896484-4.3649902,6.2697754l-.1499023-.2250977c3.0749512-1.5,3.5849609-3.8547363,3.5849609-6.0598145,0-.75-.1052246-1.7099609-.2700195-2.3547363l1.6799316.2399902c-.0300293.1948242-.1350098.3449707-.4799805.3898926v1.7399902Zm4.3046875,2.3398438c0,1.1999512.0900879,2.6999512.1201172,3.5249023-.1201172.2099609-.5400391.4350586-.8850098.4350586-.1799316,0-.3449707-.1501465-.3449707-.3000488.0898438-1.2900391.1650391-2.579834.1650391-3.8999023v-1.6948242c0-.9001465-.1049805-2.0249023-.2700195-2.7749023l1.7548828.2399902c-.0449219.2099609-.1650391.3598633-.5400391.4199219v4.0498047Z"/>
      <path class="cls-1" d="m146.2497559,3.869873s.8098145.6599121,1.3198242,1.125c-.0300293.1650391-.1799316.2399902-.375.2399902h-4.9797363v2.9399414h4.1247559l.7351074-.9599609s.8549805.6599121,1.3498535,1.1398926c-.0449219.1650391-.1799316.2399902-.375.2399902h-5.8347168v3.6748047c0,.8100586-.2099609,1.4099121-1.7849121,1.5449219-.0300293-.3149414-.1650391-.5849609-.4050293-.7199707-.3000488-.1948242-.7648926-.329834-1.619873-.4348145v-.2250977s1.994873.1650391,2.3999023.1650391c.3149414,0,.4199219-.1201172.4199219-.3901367v-3.6147461h-4.3198242c-.6450195,0-1.1999512.0300293-1.7548828.119873l-.4199219-.7797852c.8098145.1499023,1.7998047.2399902,2.4299316.2399902l4.0646973.0598145v-2.9997559h-3.3598633c-.6450195,0-1.1999512.0300293-1.7548828.119873l-.4199219-.7949219c.8098145.1501465,1.7998047.2399902,2.4299316.2399902l3.1047363.0600586v-2.8349609c-1.7248535.2102051-3.5847168.3601074-5.369873.3901367l-.0598145-.3000488c3.5546875-.2849121,7.784668-1.1550293,9.989502-1.994873l1.0949707,1.079834c-.119873.1350098-.375.1350098-.7648926-.0300293-1.0949707.2700195-2.4450684.5100098-3.8999023.7199707v2.9099121h3.3149414l.7199707-.9299316Z"/>
      <path class="cls-1" d="m156.4499512,7.1848145s.7348633.5998535,1.1699219,1.0349121c-.0300293.1499023-.1650391.2250977-.375.2250977h-1.2749023c-.2102051.9599609-.5700684,1.7849121-1.0500488,2.4897461,1.7248535.9299316,1.2900391,2.1750488.4799805,1.8300781-.2250977-.3151855-.6000977-.6901855-1.0800781-1.0649414-.9599609.9897461-2.2797852,1.6799316-4.0646973,2.1748047l-.1049805-.2250977c1.5898438-.6298828,2.7297363-1.4099121,3.494873-2.4147949-.4350586-.2849121-.9750977-.5700684-1.5449219-.8100586-.1501465.3000488-.3000488.5700684-.4199219.795166-.2250977.1049805-.6000977.0749512-.9450684-.1052246.375-.6147461.9150391-1.6796875,1.3498535-2.6696777h-.0898438c-.6450195,0-1.1999512.0300293-1.7548828.119873l-.420166-.7800293c.8100586.1501465,1.8000488.2399902,2.4299316.2399902h.0151367c.2548828-.5549316.4348145-1.0649414.5549316-1.4248047l1.3498535.2849121c-.0449219.1799316-.2099609.3149414-.5698242.3149414-.0751953.2250977-.2102051.5100098-.3601074.8249512h2.5649414l.6450195-.8398438Zm-.1650391-4.994873s.704834.5849609,1.1098633,1.0200195c-.0300293.1499023-.1650391.2248535-.3598633.2248535h-3.0148926v.3000488c3.2697754.8100586,2.8198242,2.7749023,1.829834,2.2199707-.3149414-.6149902-1.1398926-1.4099121-1.829834-1.9348145,0,.7199707.0600586,1.619873.0898438,2.0847168-.0898438.1950684-.4648438.4050293-.7949219.4050293-.1799316,0-.2700195-.1499023-.2700195-.3000488.045166-.5849609.0900879-1.1699219.0900879-1.7548828-.7800293.9750977-1.8149414,1.7849121-3.0297852,2.4150391l-.1501465-.2399902c1.1699219-.8549805,2.1298828-1.9799805,2.744873-3.1950684h-.5698242c-.6450195,0-1.1999512.0300293-1.755127.1201172l-.4199219-.7949219c.8100586.1499023,1.8000488.2399902,2.4299316.2399902l.75.0600586v-.255127c0-.8999023-.1049805-2.0249023-.2700195-2.7749023l1.6950684.2399902c-.045166.1950684-.1801758.3300781-.5400391.3901367v2.3398438h1.6799316l.5849609-.8100586Zm-5.4748535-1.6647949c2.4150391.9897461,1.619873,2.744873.7949219,2.0549316-.0598145-.6450195-.5249023-1.4699707-.9448242-1.9350586l.1499023-.119873Zm2.25,7.9196777c-.255127.5397949-.5400391,1.1547852-.8249512,1.7097168.7348633.1052246,1.3649902.255127,1.8598633.4350586.3598633-.6298828.6149902-1.3498535.7648926-2.1447754h-1.7998047Zm3.704834-7.4248047c-.0749512.1499023-.255127.255127-.5400391.2399902-.4350586.5400391-.9748535,1.1398926-1.4250488,1.5148926l-.2099609-.1350098c.2851562-.5397949.630127-1.3947754.9301758-2.1748047l1.244873.5549316Zm5.4748535,1.5898438s.7797852.630127,1.244873,1.0800781c-.045166.1650391-.1650391.2399902-.3601074.2399902h-.9899902c-.2548828,2.369873-.7797852,4.3647461-1.8146973,5.9997559.7797852,1.244873,1.8146973,2.2797852,3.1496582,3.0297852l-.0449219.1501465c-.4199219.0598145-.75.2849121-.8850098.7348633-1.1699219-.8549805-2.0698242-1.9348145-2.744873-3.1948242-1.0349121,1.3198242-2.5048828,2.3847656-4.5446777,3.1948242l-.1350098-.2099609c1.994873-1.0349121,3.3598633-2.2949219,4.2746582-3.8249512-.6149902-1.3947754-1.0048828-2.9697266-1.2597656-4.6647949-.3901367.7651367-.8100586,1.4399414-1.2900391,2.0100098l-.2250977-.119873c.9150391-1.7399902,1.6650391-4.3198242,1.9799805-6.8999023l1.5300293.375c-.045166.1799316-.2099609.3300781-.5100098.3449707-.2250977.9150391-.4799805,1.8000488-.7800293,2.6398926h2.744873l.6601562-.8850098Zm-3.5849609,1.3200684c-.0749512.2399902-.1799316.4648438-.2849121.6899414.2998047,1.6049805.7648926,3.1049805,1.4399414,4.4248047.704834-1.4848633,1.079834-3.1799316,1.2597656-5.1147461h-2.4147949Z"/>
      <path class="cls-1" d="m170.4299316,4.9499512s.7199707.5998535,1.1699219,1.0197754c-.0300293.1650391-.1650391.2399902-.375.2399902h-2.4748535v1.005127c3.329834.9599609,2.7148438,3.1948242,1.7099609,2.5197754-.2099609-.7648926-1.005127-1.6948242-1.7099609-2.2648926v2.3850098c0,1.1999512.0898438,2.699707.119873,3.5249023-.119873.2248535-.494873.4499512-.8398438.4499512-.1650391,0-.3300781-.1501465-.3300781-.3000488.0900879-1.2900391.1650391-2.579834.1650391-3.8999023v-1.7548828c-.6599121,1.3950195-1.5598145,2.625-2.6999512,3.6447754l-.1650391-.2099609c1.125-1.4099121,1.9350586-3.2548828,2.4150391-5.0998535h-.4050293c-.6450195,0-1.1999512.0300293-1.7548828.1201172l-.4199219-.7949219c.8098145.1499023,1.7998047.2399902,2.4299316.2399902l.5998535.0598145v-2.9997559c0-.8999023-.1049805-2.0249023-.2700195-2.7749023l1.6799316.255127c-.0449219.2099609-.1650391.3598633-.5249023.4199219v5.0397949h1.079834l.6000977-.8249512Zm-5.0249023-3.5698242c2.4450684,1.8447266,1.5148926,3.824707.6899414,2.9848633-.0148926-.9450684-.4648438-2.1450195-.869873-2.9099121l.1799316-.0749512Zm3.869873,3.2697754c.2851562-.8549805.6149902-2.1899414.8850098-3.3449707l1.3950195.4799805c-.0600586.1650391-.2099609.3000488-.4951172.3000488-.4648438.8999023-1.0349121,1.9499512-1.5449219,2.6848145l-.2399902-.119873Zm7.1098633,4.2749023l.3898926-.0900879.494873-1.0949707s.795166.5400391,1.2751465.8850098c0,.1650391-.1350098.2849121-.3000488.3300781l-1.8598633.4199219v.4648438c0,1.1999512.0898438,2.6999512.119873,3.5249023-.119873.2250977-.5249023.4650879-.8549805.4650879-.1950684,0-.3598633-.1501465-.3598633-.3000488.0898438-1.2900391.1647949-2.579834.1647949-3.8999023v-.0449219l-4.1696777.9299316-.1799316-.3898926,4.3496094-.9899902V2.8349609c0-.8999023-.1049805-2.0249023-.2697754-2.7749023l1.7097168.255127c-.0297852.2099609-.1499023.3598633-.5097656.4199219v8.1896973Zm-4.5598145-3.8999023c3.329834.6750488,2.8046875,2.9099121,1.7697754,2.2949219-.2700195-.75-1.1699219-1.6650391-1.9047852-2.1450195l.1350098-.1499023Zm.3598633-3.494873c3.2248535.8249512,2.625,3.0148926,1.6350098,2.3549805-.2250977-.7651367-1.0800781-1.6950684-1.7700195-2.2199707l.1350098-.1350098Z"/>
      <path class="cls-1" d="m187.244873,13.4245605c-.1201172.1499023-.5400391.375-.8999023.375-.1801758,0-.3449707-.1501465-.3449707-.3000488.0898438-1.2900391.1647949-2.579834.1647949-3.8999023v-4.7248535c-1.6647949,1.8300781-3.7946777,3.4199219-6.0595703,4.5600586l-.1201172-.1950684c2.9248047-1.8449707,5.7746582-4.7099609,7.0646973-7.4248047h-4.829834c-.6450195,0-1.1999512.0300293-1.7548828.1201172l-.4350586-.7949219c.8100586.1499023,1.8000488.2399902,2.4299316.2399902h8.5046387l.7800293-.9899902s.8549805.6899414,1.3798828,1.1848145c-.0300293.1650391-.1650391.2399902-.375.2399902h-4.3496094c-.4350586.7651367-.9450684,1.5300293-1.5300293,2.25l.6899414.2700195c-.0449219.1350098-.1950684.2248535-.4350586.2548828l.1201172,8.8347168Zm.6298828-8.699707c5.8347168,1.9648438,5.7148438,4.7697754,4.3798828,4.1699219-.7800293-1.3200684-2.9699707-3.0600586-4.5297852-3.9899902l.1499023-.1799316Z"/>
      <path class="cls-1" d="m206.1896973,2.3850098l1.1550293.9299316c-.0900879.1049805-.3300781.2250977-.6000977.3000488,0,1.0048828.0749512,2.2648926.1049805,2.9399414-.119873.1647949-.5998535.3747559-.8999023.3747559-.1350098,0-.1950684-.1499023-.1950684-.2998047.0300293-.1350098.0600586-.2700195.0600586-.420166h-5.1748047l1.2148438.3300781c-.0449219.1950684-.2248535.3300781-.5998535.3000488-.1799316.329834-.4951172.7949219-.8400879,1.3198242h5.8947754l.6899414-.8999023s.795166.6149902,1.2751465,1.0800781c-.045166.1647949-.1650391.2399902-.375.2399902h-3.0598145c-.4050293,1.079834-.9150391,1.949707-1.6201172,2.6398926,5.3398438,1.3049316,4.2597656,3.1347656,3.1499023,2.4597168-.9299316-.6450195-2.2199707-1.2749023-3.8847656-1.829834-1.5900879,1.1398926-3.9147949,1.7099609-7.3796387,1.994873l-.0600586-.2849121c2.8498535-.3901367,4.9648438-.9899902,6.4348145-2.0249023-.8701172-.255127-1.8300781-.5100098-2.8950195-.7351074-.2099609.2851562-.4050293.5551758-.5849609.7800293-.2548828.0600586-.6599121-.0148926-.9899902-.2399902.5400391-.6450195,1.3049316-1.7248535,1.994873-2.7597656h-1.9499512c-.6447754,0-1.1999512.0297852-1.7548828.119873l-.4199219-.7800293c.8100586.1501465,1.8000488.2399902,2.4299316.2399902h1.9799805c.4799805-.75.9147949-1.4699707,1.1398926-1.9499512h-2.9099121c0,.1950684.0148926.420166.0449219.4799805-.0449219.1650391-.4648438.375-.8549805.375-.1350098,0-.2248535-.1499023-.2248535-.2998047.0449219-.5100098.0898438-1.0200195.0898438-1.5600586,0-.8999023-.1049805-2.0249023-.2697754-2.7749023l1.2749023.5549316,2.0549316.0600586v-1.5898438h-2.4599609c-.6450195,0-1.1999512.0300293-1.7548828.119873l-.4350586-.7949219c.8100586.1499023,1.8000488.2399902,2.4299316.2399902h8.8195801l.6899414-.8549805s.7651367.6149902,1.2600098,1.0500488c-.0300293.1650391-.1799316.2399902-.3898926.2399902h-4.1699219v1.5297852h2.0549316l.5100098-.5998535Zm-8.6696777,3.4047852l2.1149902.0600586v-2.4299316h-2.1149902v2.369873Zm2.6098633,2.7900391c-.4199219.6298828-.8850098,1.3049316-1.3198242,1.9199219,1.2897949.1347656,2.3999023.2998047,3.3598633.494873.6899414-.6450195,1.1848145-1.4399414,1.5449219-2.4147949h-3.5849609Zm.4199219-5.5949707l2.1450195.0600586v-1.5898438h-2.1450195v1.5297852Zm2.1450195,2.8049316v-2.369873h-2.1450195v2.369873h2.1450195Zm.9299316-2.369873v2.369873l2.1899414.0600586v-2.4299316h-2.1899414Z"/>
    </g>
  </g>
</svg>