<?xml version="1.0" encoding="UTF-8"?>
<svg id="_レイヤー_2" data-name="レイヤー 2" xmlns="http://www.w3.org/2000/svg" xmlns:xlink="http://www.w3.org/1999/xlink" viewBox="0 0 750 84">
  <defs>
    <style>
      .cls-1, .cls-2 {
        stroke-width: 0px;
      }

      .cls-2 {
        fill: none;
      }

      .cls-3 {
        clip-path: url(#clippath);
      }
    </style>
    <clipPath id="clippath">
      <rect class="cls-2" width="750" height="84"/>
    </clipPath>
  </defs>
  <g id="_レイヤー_1-2" data-name="レイヤー 1">
    <g class="cls-3">
      <g>
        <g>
          <path class="cls-1" d="m193.2403874,33.6386827c-.0551629-.1376019.1376019-.2477241.3851224-.3578463,5.8889939-2.751834,10.9796527-6.6317591,15.4651482-15.1347815.1925612-.3301631.2200409-.5778872.1376019-.6603262-.1650815-.1652851-.3578463-.1376019-.6880094-.0276832-1.9537024.5504075-3.4396398,1.0181725-5.0082198.6055704-2.366508,2.8892323-6.1639941,6.0813516-8.0352575,6.9344425-.2200409.1101222-.467765.1650815-.4952446.082439,0-.082439.1101222-.2475205.3851224-.4402853,1.8163041-1.3758152,5.9714329-5.8061478,7.1272073-8.5030225.2200409-.4952446.3301631-.8805706.2477241-1.3208559-.0551629-.3851224-.7706519-.8528874-.9906928-.9355299-.2202444-.1101222-.3301631-.3026834-.2477241-.385326.2477241-.2475205.9632131-.3851224,1.4584578-.3301631,1.0456521.1101222,1.8712634.8256113,2.2014265,1.3760188.3301631.5227243.1650815.7704484-.0549593,1.2382133-.2477241.4402853-.5504075.9080503-.9080503,1.4034984,1.4859374,0,3.7423232-.4128056,4.4028529-.7981316.9355299-.5778872,1.0179689-.9355299,1.9537024-.4128056,1.1557743.6605297,2.0088653,1.4034984,1.8435802,1.9813856-.2200409.7429687-1.3758152,1.1006115-1.8161005,1.8161005-4.1826085,6.9896054-10.4292452,12.1079474-16.8134837,13.8965682-.3301631.082439-.5227243.0549593-.550204-.0274797Zm18.3818601-21.3539385c.4402853.0826425,3.4121601.9357335,3.549762,2.6417118.0551629.5229278-.082439.7981316-.4128056.9357335-.3301631.1376019-.9630096.0274797-1.3208559-.6055704-.4126021-.6878058-1.265693-1.8435802-2.2014265-2.3939877-.2750002-.1650815-.6603262-.3026834-.6053668-.4952446.0551629-.2477241.5229278-.1650815.9906928-.0826425Zm6.1090348.1927648c.1099187.550204,0,.8254077-.3303666.9904892-.3026834.1650815-.9355299.1376019-1.3758152-.467765-.6328465-.8805706-1.3208559-1.5408968-2.4214673-2.0363449-.2752038-.1376019-.6880094-.2475205-.6605297-.4402853.0549593-.2477241.6053668-.1925612.9906928-.1650815.797928.0549593,3.4671195.467765,3.7974861,2.1189875Z"/>
          <path class="cls-1" d="m222.4602273,33.9688458c-.1376019.0274797-.2752038.0274797-.2752038-.0549593-.0549593-.1101222.1101222-.1927648.2202444-.2202444,6.4941572-2.8617526,11.2271732-6.7144016,14.501935-13.5662016.1376019-.3026834.1650815-.5229278.1101222-.6053668-.0826425-.1101222-.3303666-.1376019-.715489-.0826425-.9082538.1650815-6.4943608,1.1557743-8.0902168,1.56858-1.3208559.3301631-.9082538.6603262-1.6787022.797928-.9080503.1376019-2.1187839-.6603262-2.7241508-1.3758152-.2752038-.3026834-.3578463-1.0181725-.1927648-1.2658966.1376019-.1925612.5504075.1101222.7706519.1925612.3851224.1652851,1.7886208.4679685,3.4945991.3026834.9632131-.1099187,7.4573703-1.1006115,8.2555019-1.265693.7704484-.1650815.9355299-.6328465,1.4032949-.7429687s1.4859374.6878058,1.9813856,1.1280911c.9080503.8256113.6328465,1.1282947.550204,1.2933762-.2475205.4128056-1.2107337.9632131-1.733458,1.8437837-3.1646396,5.3383829-7.1272073,9.5486746-15.8779538,12.0527845Zm14.9697-20.0605623c.1376019.7429687-.2752038.6053668-3.1369564.5778872-1.3758152-.0274797-4.7055364.4402853-5.6410663.7981316-.9357335.3301631-1.5411003.4402853-2.284069-.1927648-.4402853-.3851224-.715489-.715489-.8256113-.9904892-.082439-.1927648-.1099187-.302887,0-.4128056.1101222-.0826425.4679685.082439.9082538.2200409.467765.1376019,1.265693.2477241,2.5865489.0274797,1.2933762-.1925612,3.4121601-.6053668,4.0726899-.7704484.6328465-.1650815.6880094-.5504075,1.56858-.6603262.8805706-.1101222,2.6417118.7429687,2.7516304,1.4032949Z"/>
          <path class="cls-1" d="m250.8823427,15.0640578c.9904892-.1376019,3.8249658-.0549593,5.3658625,1.1557743,1.100815.8530909,1.2658966,1.9537024.8256113,2.5867524-.467765.6328465-1.5411003.4126021-2.2565894-.7429687-.797928-1.2933762-2.834273-2.284069-3.8249658-2.5592728-.3026834-.082439-.4952446-.1925612-.4952446-.3026834.0274797-.082439.1925612-.1101222.385326-.1376019Zm19.4000326,1.2933762c.1101222.1376019-.1101222.467765-.2477241.6328465-4.0726899,5.6962292-10.8695305,11.5300602-13.2635182,13.2085588-.8530909.5778872-.9357335.5229278-1.5960596,1.2384169-.5504075.6053668-1.100815.7429687-1.7611412.6053668-1.3483355-.3301631-2.1739468-1.4859374-2.366508-2.4766302-.2477241-1.1282947,0-1.5960596.1650815-1.6787022.1925612-.082439.3026834.5504075.6880094.8805706.2750002.2752038.6328465.715489,1.5683764.5504075,3.1646396-.4952446,11.9428658-8.035054,16.2905559-12.7131107.1925612-.2202444.385326-.3578463.5229278-.2477241Z"/>
          <path class="cls-1" d="m293.3107414,30.8318894c-.2477241.6053668-1.6235393.7429687-3.0819971.8528874-2.0086617.1927648-6.384035.2752038-7.7875334-.3576427-1.4309781-.6605297-1.6235393-1.3483355-1.8987431-2.834273-.2475205-1.5136206.1376019-8.8883484.0551629-10.236684-.0826425-1.0456521-.1927648-2.4216709-1.3208559-2.9718748-.2477241-.1376019-.4679685-.2202444-.4679685-.4402853.0276832-.1927648,1.2384169-.4679685,1.7336615-.4679685.6605297.0276832,1.7611412,1.0458557,2.1189875,1.6787022.7429687,1.2382133-.0276832,1.0731318-.1652851,2.1462636-.0274797.3303666-.2200409,2.669395-.3576427,5.035903,1.56858-.8256113,4.7881789-2.6691914,5.4485051-3.7700064.1101222-.1650815.3301631-.3576427-.1101222-.6328465-.2200409-.1650815-.467765-.2477241-.7152855-.3578463-.3026834-.1099187-.3026834-.2475205-.0551629-.4402853.2752038-.1925612,2.2565894-.2200409,3.0545174.0826425.8530909.3026834,1.651019.7704484,1.7061818,1.4859374.0274797.5229278-.6053668.715489-1.7336615,1.0731318-.6880094.2202444-4.4854955,2.2565894-7.6224519,3.1646396-.1101222,1.8987431-.1650815,3.6873639-.0826425,4.3202104.0826425.6605297.2752038,1.8712634,1.8163041,1.9264263,1.651019.0549593,4.9530569-.2202444,5.9989126-.4954482,1.0181725-.2477241,1.4582542-.6328465,2.0913043-.3301631.6603262.3026834,1.6235393.9906928,1.3758152,1.56858Zm2.9169155-16.0430354c0,1.4309781-1.183254,2.6142321-2.6417118,2.6142321-1.4309781,0-2.6142321-1.183254-2.6142321-2.6142321,0-1.4584578,1.183254-2.6417118,2.6142321-2.6417118,1.4584578,0,2.6417118,1.183254,2.6417118,2.6417118Zm-.715489,0c0-1.0731318-.8530909-1.9262227-1.9262227-1.9262227-1.0456521,0-1.8987431.8530909-1.8987431,1.9262227,0,1.0456521.8530909,1.8987431,1.8987431,1.8987431,1.0731318,0,1.9262227-.8530909,1.9262227-1.8987431Z"/>
          <path class="cls-1" d="m305.9100659,15.0640578c.9904892-.1376019,3.8249658-.0549593,5.3658625,1.1557743,1.100815.8530909,1.2658966,1.9537024.8256113,2.5867524-.467765.6328465-1.5411003.4126021-2.2565894-.7429687-.797928-1.2933762-2.834273-2.284069-3.8249658-2.5592728-.3026834-.082439-.4952446-.1925612-.4952446-.3026834.0274797-.082439.1925612-.1101222.385326-.1376019Zm19.4000326,1.2933762c.1101222.1376019-.1101222.467765-.2477241.6328465-4.0726899,5.6962292-10.8695305,11.5300602-13.2635182,13.2085588-.8530909.5778872-.9357335.5229278-1.5960596,1.2384169-.5504075.6053668-1.100815.7429687-1.7611412.6053668-1.3483355-.3301631-2.1739468-1.4859374-2.366508-2.4766302-.2477241-1.1282947,0-1.5960596.1650815-1.6787022.1925612-.082439.3026834.5504075.6880094.8805706.2750002.2752038.6328465.715489,1.5683764.5504075,3.1646396-.4952446,11.9428658-8.035054,16.2905559-12.7131107.1925612-.2202444.385326-.3578463.5229278-.2477241Z"/>
          <path class="cls-1" d="m330.8096954,33.6386827c-.0551629-.1376019.1376019-.2477241.3851224-.3578463,5.8889939-2.751834,10.9796527-6.6317591,15.4651482-15.1347815.1925612-.3301631.2200409-.5778872.1376019-.6603262-.1650815-.1652851-.3578463-.1376019-.6880094-.0276832-1.9537024.5504075-3.4396398,1.0181725-5.0082198.6055704-2.366508,2.8892323-6.1639941,6.0813516-8.0352575,6.9344425-.2200409.1101222-.467765.1650815-.4952446.082439,0-.082439.1101222-.2475205.3851224-.4402853,1.8163041-1.3758152,5.9714329-5.8061478,7.1272073-8.5030225.2200409-.4952446.3301631-.8805706.2477241-1.3208559-.0551629-.3851224-.7706519-.8528874-.9906928-.9355299-.2202444-.1101222-.3301631-.3026834-.2477241-.385326.2477241-.2475205.9632131-.3851224,1.4584578-.3301631,1.0456521.1101222,1.8712634.8256113,2.2014265,1.3760188.3301631.5227243.1650815.7704484-.0549593,1.2382133-.2477241.4402853-.5504075.9080503-.9080503,1.4034984,1.4859374,0,3.7423232-.4128056,4.4028529-.7981316.9355299-.5778872,1.0179689-.9355299,1.9537024-.4128056,1.1557743.6605297,2.0088653,1.4034984,1.8435802,1.9813856-.2200409.7429687-1.3758152,1.1006115-1.8161005,1.8161005-4.1826085,6.9896054-10.4292452,12.1079474-16.8134837,13.8965682-.3301631.082439-.5227243.0549593-.550204-.0274797Zm18.3818601-21.3539385c.4402853.0826425,3.4121601.9357335,3.549762,2.6417118.0551629.5229278-.082439.7981316-.4128056.9357335-.3301631.1376019-.9630096.0274797-1.3208559-.6055704-.4126021-.6878058-1.265693-1.8435802-2.2014265-2.3939877-.2750002-.1650815-.6603262-.3026834-.6053668-.4952446.0551629-.2477241.5229278-.1650815.9906928-.0826425Zm6.1090348.1927648c.1099187.550204,0,.8254077-.3303666.9904892-.3026834.1650815-.9355299.1376019-1.3758152-.467765-.6328465-.8805706-1.3208559-1.5408968-2.4214673-2.0363449-.2752038-.1376019-.6880094-.2475205-.6605297-.4402853.0549593-.2477241.6053668-.1925612.9906928-.1650815.797928.0549593,3.4671195.467765,3.7974861,2.1189875Z"/>
          <path class="cls-1" d="m373.3207367,33.8312439c-3.9076083,1.9262227-7.7050944.0549593-8.0627372-3.3022415-.1101222-1.1280911-.1101222-2.448947-.0274797-3.8799251-1.2107337-.4128056-2.2014265-1.0456521-2.2014265-2.0913043.0274797-1.4309781,1.651019-3.0819971,2.8892323-4.1551289.1101222-.9082538.2477241-1.7611412.385326-2.5317931-1.183254-.5227243-2.3939877-1.2382133-2.9718748-1.7336615-.1650815-.1373983-.3026834-.2475205-.2477241-.4402853.0826425-.1650815.385326-.0274797.5504075.0276832.7429687.3301631,1.8161005.4952446,2.8894359.7152855.1925612-1.1555708.3301631-1.9537024.3301631-2.2289061.0549593-1.1280911.1101222-1.4032949-.1650815-2.2289061-.1650815-.467765-.9906928-1.2382133-.8805706-1.5134171.1099187-.3578463,1.2107337.1376019,1.3208559.1925612.4402853.2477241,1.7611412,1.183254,1.5134171,2.5867524-.2477241,1.2933762-.7704484,2.2838655-1.1006115,3.3846805.6053668.1376019,1.183254.2752038,1.6784986.467765.7429687.3026834,1.0456521.9906928,1.0456521,1.4309781s-.3576427.7704484-.715489.797928c-.9080503.0826425-1.8987431.4954482-2.7793136,1.0456521-.2475205,1.4034984-.4952446,3.1094767-.6328465,4.9532604,1.0456521.1376019,2.2014265.1101222,2.6142321.1376019.8530909.0274797,1.2933762.3576427,1.3483355.8805706.0826425.4952446-.385326.8530909-1.183254.8530909-.5229278.0274797-1.6784986-.0551629-2.834273-.3301631-.0276832.8805706,0,1.7611412.082439,2.6140285.3578463,4.2929343,4.9257808,3.7150471,6.219157,2.8344765,1.3758152-.9082538,2.6691914-3.4948027,1.0731318-6.3842385-1.56858-2.8617526-3.4121601-4.1276492-3.8249658-4.4028529-.1101222-.082439-.3026834-.2200409-.2477241-.3851224.0549593-.1376019.3578463.0274797.5229278.082439.4126021.1925612,3.9348844,2.1739468,5.4210254,4.6230974,1.183254,1.9537024,1.7611412,6.1363109-2.0088653,7.9800946Zm-7.9800946-8.668104c.1099187-1.3483355.2750002-2.751834.467765-4.0726899-1.0733353.9357335-1.8437837,2.0913043-1.7611412,3.0545174.0549593.5229278.5778872.8256113,1.2933762,1.0181725Zm1.5958561-5.5861069c.1652851-.1376019.2752038-.2202444.302887-.2477241.3026834-.2200409.6053668-.3301631.6603262-.6328465.0826425-.2752038-.1925612-.3026834-.6603262-.467765h-.0276832c-.082439.3851224-.1925612.8254077-.2752038,1.3483355Z"/>
          <path class="cls-1" d="m384.4613998,28.6304629c3.3022415,1.0456521,5.035903,2.448947,5.9439532,3.7698029.4952446.715489.6603262,1.2384169.6603262,1.8437837,0,.797928-.467765,1.2382133-1.1280911,1.2382133-.5778872,0-.9357335-.3301631-1.3208559-1.1557743-.8805706-1.8161005-2.0088653-3.4945991-4.4580158-5.2282606l.3026834-.467765Z"/>
          <path class="cls-1" d="m432.8889147,19.2743495s1.5408968,1.2382133,2.4491506,2.0913043c-.0826425.3026834-.302887.4402853-.6880094.4402853h-9.3835931c.9355299,4.4303326,3.7700064,9.0259503,11.3647751,12.0527845l-.0549593.3026834c-.9080503.1101222-1.5411003.4402853-1.7611412,1.4309781-7.1821666-3.467323-9.2734708-8.9982671-10.0716024-13.786446h-.3576427c-.8530909,5.8613107-3.467323,10.4017655-11.8602233,13.6488441l-.3301631-.4952446c7.2922888-3.4123637,9.6036339-7.7600538,10.3466026-13.1535995h-5.3658625c-1.183254,0-2.2014265.0549593-3.2195989.2202444l-.7981316-1.4584578c1.486141.2750002,3.3022415.4402853,4.4580158.4402853h5.0356994c.2202444-2.2014265.2477241-4.5956177.2752038-7.1546869h-6.6592387c-1.183254,0-2.2014265.0549593-3.2195989.2200409l-.7706519-1.4859374c1.486141.2752038,3.3022415.4402853,4.4580158.4402853h15.6300262l1.3760188-1.7336615s1.5408968,1.2109372,2.5041099,2.1189875c-.0826425.3026834-.3303666.4402853-.715489.4402853h-10.6769693c-.0549593,2.5590692-.1101222,4.9532604-.3576427,7.1546869h7.0720444l1.3208559-1.7336615Z"/>
          <path class="cls-1" d="m444.8277095,28.3000963c0,2.2014265.1650815,4.9532604.2200409,6.4666775-.2475205.3026834-.9355299.7429687-1.6235393.7429687-.3301631,0-.6328465-.2750002-.6328465-.550204.1650815-2.366508.3026834-4.7332196.3026834-7.1546869v-7.5398093c-.9906928,1.6235393-2.0913043,3.0543138-3.2195989,4.2652511l-.385326-.2752038c2.2565894-3.3572008,4.5956177-8.668104,5.9439532-13.9240479l2.751834.9355299c-.1101222.3026834-.4402853.5229278-1.0456521.4954482-.8530909,2.366508-1.8712634,4.6778531-2.9995581,6.7418813l1.4859374.5776836c-.0549593.2477241-.3301631.4128056-.797928.4954482v8.7230633Zm16.9508821-12.9058754s1.4309781,1.1557743,2.284069,2.0088653c-.0826425.3026834-.3301631.4402853-.6880094.4402853h-7.1546869c1.486141,4.4578123,4.9257808,8.3929003,8.3654206,10.3742859l-.0549593.3301631c-.6880094.3026834-1.100815.8805706-1.2658966,1.651019-3.4671195-2.5590692-6.3290757-7.2920852-7.7048909-12.3554679h-.0551629v11.2273768h2.0088653l1.1282947-1.486141s1.2107337,1.0458557,2.0088653,1.8712634c-.0826425.3026834-.3578463.4128056-.715489.4128056h-4.4305362c0,1.7061818.1376019,3.7700064.1927648,4.8706179-.1927648.3578463-.9080503.7704484-1.5411003.7704484-.3851224,0-.6053668-.2750002-.6053668-.550204.1101222-1.6787022.2202444-3.3572008.2202444-5.0908623h-.9906928c-1.183254,0-2.2014265.0549593-3.2195989.2202444l-.7704484-1.4584578c1.4859374.2750002,3.3020379.4402853,4.4578123.4402853l.5229278.1099187v-9.1083893c-1.8163041,4.0452102-4.5956177,7.5674925-8.200339,10.2092043l-.385326-.385326c3.4121601-3.1094767,6.0538719-7.5949722,7.5400129-12.0527845h-3.0270377c-1.183254,0-2.2014265.0549593-3.2195989.2202444l-.7429687-1.4584578c1.4859374.2752038,3.3020379.4402853,4.4578123.4402853l3.5774452.1099187v-1.5408968c0-1.651019-.1927648-3.7148436-.4954482-5.0908623l3.1646396.4402853c-.0826425.4128056-.2752038.6880094-.9357335.7704484v5.3111067h5.0633827l1.2107337-1.6512225Z"/>
          <path class="cls-1" d="m478.0378002,30.8868487s1.2107337,1.0181725,1.9537024,1.7611412c-.0826425.3026834-.3026834.4402853-.6880094.4402853h-7.8699724c0,.467765.0549593,1.0181725.1099187,1.2107337-.1099187.2752038-.6328465.7704484-1.4859374.7704484-.2477241,0-.5504075-.2750002-.5504075-.550204.1652851-2.366508.3026834-4.7332196.3026834-7.1546869v-4.2927307c-.8254077.8805706-1.733458,1.7059783-2.6691914,2.4214673l-.3026834-.3301631c1.8987431-1.9537024,3.4948027-4.4578123,4.5956177-7.0720444h-.4679685c-1.183254,0-2.2014265.0549593-3.2195989.2200409l-.7429687-1.4859374c1.486141.2752038,3.3022415.4402853,4.4580158.4402853h.3301631c.385326-1.0181725.6880094-2.0638246.9355299-3.0819971h-2.0086617c-.6880094,1.0181725-1.5136206,1.8987431-2.366508,2.5315896l-.4128056-.2752038c1.1557743-1.4582542,2.1187839-3.7423232,2.6691914-6.1639941l2.5041099.8530909c-.1101222.3303666-.4402853.5504075-.9906928.5229278-.2752038.6053668-.5504075,1.183254-.8805706,1.7336615h4.8706179l1.1282947-1.5136206s1.2933762,1.0456521,2.1739468,1.8987431c-.0826425.2752038-.3301631.4128056-.715489.4128056h-3.9076083c-.3301631,1.0456521-.6878058,2.0913043-1.1555708,3.0819971h3.2193954l1.1282947-1.4859374s1.2658966,1.0456521,2.0913043,1.8712634c-.082439.3026834-.3301631.4402853-.6878058.4402853h-6.1639941c-.5778872,1.183254-1.2933762,2.3115487-2.0913043,3.3572008l.6603262.2750002h1.8987431c.2200409-.9080503.4952446-2.1462636.6603262-3.0817935l2.4491506.7152855c-.1101222.3026834-.4128056.5504075-.9630096.5229278-.385326.5778872-.8805706,1.2382133-1.4309781,1.8435802h2.2563858l1.0181725-1.2382133s1.100815.9080503,1.8161005,1.5960596c-.0549593.3026834-.3026834.4402853-.6603262.4402853h-3.4121601v2.6691914h1.4032949l.9080503-1.2107337s1.0181725.8805706,1.6512225,1.5408968c-.0826425.3026834-.3301631.4402853-.6605297.4402853h-3.3020379v2.6968746h1.4032949l.9080503-1.183254s1.0181725.8530909,1.6512225,1.5408968c-.0826425.3026834-.3301631.4402853-.6605297.4402853h-3.3020379v2.8067933h1.5408968l1.0733353-1.3758152Zm-6.6042794-8.3654206v2.6691914l2.4214673.1101222v-2.7793136h-2.4214673Zm2.4214673,3.4396398h-2.4214673v2.6968746h2.4214673v-2.6968746Zm0,3.4948027h-2.4214673v2.8067933h2.4214673v-2.8067933Zm15.0523426-18.2994212l1.981182,1.6237429c-.1925612.1925612-.5227243.3851224-1.0731318.467765v13.6488441c0,.1376019-.6330501.5778872-1.4309781.5778872h-.2477241v-1.0181725h-.8805706v6.5767997c0,.3026834.0551629.3851224.5229278.3851224h2.0638246c.1925612-.0274797.2752038-.082439.3576427-.3026834.1376019-.4128056.4128056-1.9537024.6880094-3.4121601h.3301631l.0826425,3.4671195c.467765.2202444.5227243.4404888.5227243.7981316,0,.6880094-.5776836,1.1006115-2.9993545,1.1006115h-1.4584578c-1.4859374,0-1.7061818-.467765-1.7061818-1.5958561v-7.017085h-1.3206523c-.5778872,4.9807401-2.6417118,7.567289-7.7600538,9.1083893l-.1650815-.4402853c4.3476901-1.9539059,5.7511885-4.4303326,6.1363109-8.668104h-.3026834c0,.3301631.0274797.7429687.0826425.8530909-.0826425.2750002-.6328465.6603262-1.4859374.6603262-.2752038,0-.5778872-.2752038-.5778872-.5504075.1650815-2.366508.3026834-4.733016.3026834-7.1544834v-3.8801287c0-1.651019-.1927648-3.7148436-.4954482-5.0908623l2.4766302.9906928h5.4485051l.9082538-1.1282947Zm-6.6594423,1.9264263v3.5772417l5.8887904.1101222v-3.6873639h-5.8887904Zm5.8887904,4.4028529h-5.8887904v3.632201h5.8887904v-3.632201Zm-5.8887904,8.1726558l5.8887904.1101222v-3.8249658h-5.8887904v3.7148436Z"/>
          <path class="cls-1" d="m494.8472129,16.8526787c5.1733013.7429687,4.0450066,4.5404548,2.2563858,3.4123637-.3576427-1.1557743-1.5134171-2.4491506-2.5041099-3.1646396l.2477241-.2477241Zm6.8517999-.6603262c-.9630096,3.1644361-2.8067933,9.0532264-3.1094767,10.2641636-.1925612.8254077-.3576427,1.5960596-.3576427,2.3113451,0,1.1834576.7429687,2.5867524.6328465,4.8708215-.0549593,1.1557743-.5504075,1.8710598-1.4034984,1.8710598-.4402853,0-.7152855-.5227243-.7429687-1.4032949.3578463-2.834273.1927648-5.0908623-.3301631-5.4759847-.3851224-.2752038-.7429687-.3303666-1.2933762-.385326v-.6328465h1.1282947c.3026834,0,.4128056,0,.6328465-.5504075q.4402853-.9357335,4.3753733-11.0071324l.467765.1376019Zm-5.2834235-5.7511885c5.5311476,1.0181725,4.4028529,4.815455,2.5592728,3.6873639-.4128056-1.2109372-1.7611412-2.6142321-2.8344765-3.4398434l.2752038-.2475205Zm3.3022415,24.4357321c1.4859374-1.3208559,3.0268342-3.5222824,4.0450066-6.0538719l2.2014265,1.1006115c-.1099187.2752038-.4402853.4954482-.9630096.385326-1.3208559,2.1739468-3.1371599,3.9076083-4.9807401,4.9257808l-.3026834-.3578463Zm9.7137561-6.5491165c-.0274797.1650815-.8256113.6328465-1.4034984.6328465h-.2200409v-1.0181725h-4.1001695c0,.2477241.0274797.4952446.0826425.4952446-.0826425.3301631-.6605297.7429687-1.3760188.7429687-.2752038,0-.5778872-.2752038-.5778872-.550204.1650815-2.3667116.3026834-4.7332196.3026834-7.1546869v-5.1733013c0-1.6512225-.1925612-3.7150471-.4952446-5.0908623l2.2014265.9630096h3.7148436l.9357335-1.0731318,2.0086617,1.651019c-.1650815.2202444-.5778872.4402853-1.0731318.5229278v15.0523426Zm-5.7237088-15.355026v4.1551289l4.1001695.1101222v-4.2652511h-4.1001695Zm0,4.9532604v4.1826085l4.1001695.1101222v-4.2927307h-4.1001695Zm4.1001695,9.218308v-4.2100882h-4.1001695v4.2100882h4.1001695Zm-1.2107337,1.8712634c5.3383829,2.751834,3.8524454,6.6594423,2.1737433,5.2284642-.2200409-1.6787022-1.4032949-3.7700064-2.4764267-5.0356994l.3026834-.1927648Zm6.6042794-6.301596c0,2.2014265.1650815,4.9532604.2200409,6.4666775-.2200409.3578463-.9080503.715489-1.4584578.715489-.3026834,0-.6053668-.2752038-.6053668-.5504075.1650815-2.366508.3026834-4.733016.3026834-7.1544834v-4.0726899c0-1.651019-.1925612-3.7148436-.4952446-5.0908623l2.9443952.4402853c-.0826425.3578463-.2752038.6053668-.9080503.6880094v8.5579818Zm4.5404548,10.2092043c0,1.4584578-.3026834,2.3390283-2.6142321,2.5865489-.0826425-.550204-.2202444-.9904892-.5778872-1.265693-.3578463-.3026834-.9906928-.4954482-2.1189875-.6605297v-.467765s2.5592728.2202444,3.0545174.2202444c.4954482,0,.6330501-.1652851.6330501-.5778872V15.5869857c0-1.6512225-.1927648-3.7150471-.4954482-5.0908623l3.0819971.4402853c-.082439.385326-.3301631.6605297-.9630096.7429687v21.2438163Z"/>
          <path class="cls-1" d="m538.4039063,33.8312439c-3.9076083,1.9262227-7.7050944.0549593-8.0627372-3.3022415-.1101222-1.1280911-.1101222-2.448947-.0274797-3.8799251-1.2107337-.4128056-2.2014265-1.0456521-2.2014265-2.0913043.0274797-1.4309781,1.651019-3.0819971,2.8892323-4.1551289.1101222-.9082538.2477241-1.7611412.385326-2.5317931-1.183254-.5227243-2.3939877-1.2382133-2.9718748-1.7336615-.1650815-.1373983-.3026834-.2475205-.2477241-.4402853.0826425-.1650815.385326-.0274797.5504075.0276832.7429687.3301631,1.8161005.4952446,2.8894359.7152855.1925612-1.1555708.3301631-1.9537024.3301631-2.2289061.0549593-1.1280911.1101222-1.4032949-.1650815-2.2289061-.1650815-.467765-.9906928-1.2382133-.8805706-1.5134171.1099187-.3578463,1.2107337.1376019,1.3208559.1925612.4402853.2477241,1.7611412,1.183254,1.5134171,2.5867524-.2477241,1.2933762-.7704484,2.2838655-1.1006115,3.3846805.6053668.1376019,1.183254.2752038,1.6784986.467765.7429687.3026834,1.0456521.9906928,1.0456521,1.4309781s-.3576427.7704484-.715489.797928c-.9080503.0826425-1.8987431.4954482-2.7793136,1.0456521-.2475205,1.4034984-.4952446,3.1094767-.6328465,4.9532604,1.0456521.1376019,2.2014265.1101222,2.6142321.1376019.8530909.0274797,1.2933762.3576427,1.3483355.8805706.0826425.4952446-.385326.8530909-1.183254.8530909-.5229278.0274797-1.6784986-.0551629-2.834273-.3301631-.0276832.8805706,0,1.7611412.082439,2.6140285.3578463,4.2929343,4.9257808,3.7150471,6.219157,2.8344765,1.3758152-.9082538,2.6691914-3.4948027,1.0731318-6.3842385-1.56858-2.8617526-3.4121601-4.1276492-3.8249658-4.4028529-.1101222-.082439-.3026834-.2200409-.2477241-.3851224.0549593-.1376019.3578463.0274797.5229278.082439.4126021.1925612,3.9348844,2.1739468,5.4210254,4.6230974,1.183254,1.9537024,1.7611412,6.1363109-2.0088653,7.9800946Zm-7.9800946-8.668104c.1099187-1.3483355.2750002-2.751834.467765-4.0726899-1.0733353.9357335-1.8437837,2.0913043-1.7611412,3.0545174.0549593.5229278.5778872.8256113,1.2933762,1.0181725Zm1.5958561-5.5861069c.1652851-.1376019.2752038-.2202444.302887-.2477241.3026834-.2200409.6053668-.3301631.6603262-.6328465.0826425-.2752038-.1925612-.3026834-.6603262-.467765h-.0276832c-.082439.3851224-.1925612.8254077-.2752038,1.3483355Z"/>
          <path class="cls-1" d="m549.3245286,31.7674193c0-2.1189875,1.7611412-3.8524454,3.8799251-3.8524454,2.1189875,0,3.852649,1.733458,3.852649,3.8524454,0,2.1187839-1.7336615,3.8799251-3.852649,3.8799251-2.1187839,0-3.8799251-1.7611412-3.8799251-3.8799251Zm.9355299,0c0,1.6235393,1.2933762,2.9443952,2.9443952,2.9443952,1.6235393,0,2.9169155-1.3208559,2.9169155-2.9443952s-1.2933762-2.9169155-2.9169155-2.9169155c-1.651019,0-2.9443952,1.2933762-2.9443952,2.9169155Z"/>
        </g>
        <g>
          <path class="cls-1" d="m113.8069984,72.6791441c-.2200409.0826425-.4952446.1927648-.550204.0826425-.0551629-.1376019.2200409-.3301631.467765-.4402853,4.5129752-2.3939877,7.1821666-6.4391979,7.9800946-10.9796527.5229278-2.8067933.5229278-5.4210254.3578463-7.8976556-.0276832-.6053668-.1376019-1.183254-.5778872-1.5683764-.4402853-.385326-1.0181725-.4402853-.9632131-.8530909.0551629-.4402853,1.2384169-.4954482,1.7611412-.385326.8805706.2202444,1.7886208.9357335,1.9262227,1.4584578.1101222.5504075-.1376019,1.3760188-.1650815,2.1464671-.0549593.7704484,0,1.6784986-.0549593,2.7793136-.4402853,8.200339-2.7793136,12.5480291-10.1817246,15.6575058Zm1.1557743-11.7775807c.2477241-2.5590692-.1101222-6.3290757-.3851224-6.8243203-.1650815-.2752038-.3303666-.385326-.5229278-.5229278-.2200409-.1376019-.467765-.1650815-.467765-.385326,0-.3301631,1.3208559-.6878058,1.8712634-.5227243.550204.1650815,1.2931727.6880094,1.1006115,2.4214673-.1101222,1.0458557.0826425,3.7150471.1101222,4.8708215.0549593,1.1555708.1650815,2.1462636.082439,2.6140285-.1099187.4954482-.4952446,1.0181725-.9355299.9906928s-1.0181725-.8530909-.8530909-2.6417118Z"/>
          <path class="cls-1" d="m152.8234406,69.184545c-.2477241.6053668-1.6235393.7429687-3.0819971.8528874-2.0088653.1927648-6.3842385.2752038-7.7875334-.3576427-1.4309781-.6605297-1.6235393-1.3483355-1.8987431-2.834273-.2477241-1.5136206.1376019-8.8883484.0549593-10.236684-.082439-1.0456521-.1925612-2.4216709-1.3208559-2.9718748-.2477241-.1376019-.467765-.2202444-.467765-.4402853.0274797-.1927648,1.2382133-.4679685,1.7336615-.4679685.6603262.0276832,1.7611412,1.0458557,2.1187839,1.6787022.7429687,1.2382133-.0274797,1.0731318-.1650815,2.1462636-.0549593.3303666-.2200409,2.669395-.3576427,5.035903,1.5683764-.8256113,4.7879754-2.6691914,5.4485051-3.7700064.1101222-.1650815.3301631-.3576427-.1101222-.6328465-.2477241-.1650815-.467765-.2477241-.715489-.3578463-.3026834-.1099187-.3026834-.2475205-.0549593-.4402853.2752038-.1925612,2.2563858-.2200409,3.0545174.0826425.6603262.2200409,1.265693.5504075,1.5408968.9906928.0826425.1376019.1376019.3026834.1650815.4952446,0,.3576427-.2752038.5504075-.8254077.7704484-.2477241.0826425-.5504075.1927648-.9082538.3026834-.6878058.2202444-4.4852919,2.2565894-7.6224519,3.1646396-.1099187,1.8987431-.1650815,3.6873639-.082439,4.3202104.082439.6605297.2752038,1.8712634,1.8161005,1.9264263,1.651019.0549593,4.9532604-.2202444,5.9989126-.4954482,1.0181725-.2477241,1.4584578-.6328465,2.0913043-.3301631.6330501.3026834,1.6235393.9906928,1.3760188,1.56858Zm2.5865489-13.1810792c0,.550204-.1376019.797928-.4952446.9080503-.3301631.1101222-.9632131-.0549593-1.2658966-.715489-.3301631-.715489-1.1006115-1.9537024-1.981182-2.5590692-.2477241-.1927648-.6328465-.3578463-.5778872-.5504075.082439-.2477241.5504075-.1376019.9906928,0s3.3295176,1.2107337,3.3295176,2.9169155Zm2.0638246-2.4491506c-.3026834.1376019-.9080503.1101222-1.3208559-.467765-.4402853-.6328465-1.3483355-1.651019-2.2838655-2.0913043-.2752038-.1101222-.6605297-.2202444-.6328465-.4128056.0274797-.2202444.4952446-.1927648.9355299-.1650815.4402853.0549593,3.3020379.6053668,3.6049249,2.2014265.1099187.4952446,0,.7704484-.302887.9355299Z"/>
          <path class="cls-1" d="m165.7804078,53.4167134c.9904892-.1376019,3.8249658-.0549593,5.3658625,1.1557743,1.100815.8530909,1.2658966,1.9537024.8256113,2.5867524-.467765.6328465-1.5411003.4126021-2.2565894-.7429687-.797928-1.2933762-2.834273-2.284069-3.8249658-2.5592728-.3026834-.082439-.4952446-.1925612-.4952446-.3026834.0274797-.082439.1925612-.1101222.385326-.1376019Zm19.4000326,1.2933762c.1101222.1376019-.1101222.467765-.2477241.6328465-4.0726899,5.6962292-10.8695305,11.5300602-13.2635182,13.2085588-.8530909.5778872-.9357335.5229278-1.5960596,1.2384169-.5504075.6053668-1.100815.7429687-1.7611412.6053668-1.3483355-.3301631-2.1739468-1.4859374-2.366508-2.4766302-.2477241-1.1282947,0-1.5960596.1650815-1.6787022.1925612-.082439.3026834.5504075.6880094.8805706.2750002.2752038.6328465.715489,1.5683764.5504075,3.1646396-.4952446,11.9428658-8.035054,16.2905559-12.7131107.1925612-.2202444.385326-.3578463.5229278-.2477241Z"/>
          <path class="cls-1" d="m190.6800373,71.9913383c-.0551629-.1376019.1376019-.2477241.3851224-.3578463,5.8889939-2.751834,10.9796527-6.6317591,15.4651482-15.1347815.1925612-.3301631.2200409-.5778872.1376019-.6603262-.1650815-.1652851-.3578463-.1376019-.6880094-.0276832-1.9537024.5504075-3.4396398,1.0181725-5.0082198.6055704-2.366508,2.8892323-6.1639941,6.0813516-8.0352575,6.9344425-.2200409.1101222-.467765.1650815-.4952446.082439,0-.082439.1101222-.2475205.3851224-.4402853,1.8163041-1.3758152,5.9714329-5.8061478,7.1272073-8.5030225.2200409-.4952446.3301631-.8805706.2477241-1.3208559-.0551629-.3851224-.7706519-.8528874-.9906928-.9355299-.2202444-.1101222-.3301631-.3026834-.2477241-.385326.2477241-.2475205.9632131-.3851224,1.4584578-.3301631,1.0456521.1101222,1.8712634.8256113,2.2014265,1.3760188.3301631.5227243.1650815.7704484-.0549593,1.2382133-.2477241.4402853-.5504075.9080503-.9080503,1.4034984,1.4859374,0,3.7423232-.4128056,4.4028529-.7981316.9355299-.5778872,1.0179689-.9355299,1.9537024-.4128056,1.1557743.6605297,2.0088653,1.4034984,1.8435802,1.9813856-.2200409.7429687-1.3758152,1.1006115-1.8161005,1.8161005-4.1826085,6.9896054-10.4292452,12.1079474-16.8134837,13.8965682-.3301631.082439-.5227243.0549593-.550204-.0274797Zm18.3818601-21.3539385c.4402853.0826425,3.4121601.9357335,3.549762,2.6417118.0551629.5229278-.082439.7981316-.4128056.9357335-.3301631.1376019-.9630096.0274797-1.3208559-.6055704-.4126021-.6878058-1.265693-1.8435802-2.2014265-2.3939877-.2750002-.1650815-.6603262-.3026834-.6053668-.4952446.0551629-.2477241.5229278-.1650815.9906928-.0826425Zm6.1090348.1927648c.1099187.550204,0,.8254077-.3303666.9904892-.3026834.1650815-.9355299.1376019-1.3758152-.467765-.6328465-.8805706-1.3208559-1.5408968-2.4214673-2.0363449-.2752038-.1376019-.6880094-.2475205-.6605297-.4402853.0549593-.2477241.6053668-.1925612.9906928-.1650815.797928.0549593,3.4671195.467765,3.7974861,2.1189875Z"/>
          <path class="cls-1" d="m232.5030692,62.4149805c-.1650815,1.7061818-1.0181725,6.0815551-2.7241508,7.787737-.6330501.6328465-1.6512225,1.4032949-2.1464671,1.1280911-.5504075-.3026834-.6603262-.6880094-.9632131-1.3483355-.2475205-.5504075-.4952446-.9080503-1.3206523-2.0913043-.1376019-.2202444-.3578463-.467765-.2752038-.5504075.1376019-.1101222.5227243.1925612,1.1280911.6328465.6605297.4402853,1.2658966.9632131,1.6787022.9357335.6603262,0,1.5683764-.4128056,2.5315896-3.6049249.9355299-3.1921193,1.2658966-6.301596-.1650815-7.2371259-.7981316-.5229278-2.6417118.1101222-3.9076083.6880094-.6328465,2.8067933-1.8435802,6.6592387-4.1276492,10.401562-.6603262,1.0733353-1.5134171,1.6787022-2.1187839,1.0458557-.4128056-.4404888-.1650815-1.2933762.8805706-2.6968746,2.366508-3.1921193,3.3572008-6.0813516,3.8524454-8.0627372-1.2382133.5504075-2.751834,1.1282947-3.2470786,1.2384169-.385326.1099187-1.6787022.082439-2.6691914-1.5411003-.2202444-.3576427-.4128056-.8530909-.1101222-.9355299.1925612-.0826425.4128056.082439.7704484.2752038.7704484.4126021,1.2658966.3576427,1.5960596.3301631.7704484-.0274797,2.5315896-.3578463,3.9900473-.9355299.0551629-.2202444.0826425-.4128056.1101222-.5778872.3301631-1.486141.467765-3.467323-.3026834-4.4854955-.2202444-.2752038-.8805706-.8256113-.7704484-1.1282947.1650815-.550204,2.3113451-.082439,2.7241508.3026834.7704484.7981316.2752038,1.9813856.1101222,2.9169155-.0549593.4128056-.1650815,1.2658966-.4128056,2.4491506,1.4034984-.4402853,3.4121601-.8256113,4.5129752-.0274797,1.4309781,1.0456521,1.5408968,2.9993545,1.3758152,5.0906588Zm7.7600538.9357335c-.2200409.0274797-.3576427-.1101222-.9355299-.467765-.5229278-.4128056-2.5041099-.6330501-2.6142321-.6330501s-.3578463-.0274797-.385326-.1099187c0-.1101222.2752038-.1376019.2752038-.1376019,0,0,1.6787022-.1376019,2.0088653-.2202444.3576427-.082439.7704484-.2477241,1.0731318-.467765.3026834-.2477241.2202444-1.4859374-.8254077-2.6142321-.9632131-1.0456521-2.751834-1.7886208-3.0819971-1.8712634-.0826425-.0274797-.2752038-.0549593-.2477241-.1650815.0274797-.082439.2752038-.0549593.3301631-.0549593,3.8801287.082439,5.9714329,2.3939877,6.0538719,4.1826085.1101222,2.0088653-1.4032949,2.5317931-1.651019,2.5592728Z"/>
          <path class="cls-1" d="m264.1722632,67.0380778c-.2752038,2.6417118-2.9445987,4.7055364-10.8972137,5.6962292-.2475205.0274797-.4402853.0274797-.4402853-.1927648-.0274797-.2200409.3303666-.2475205.6053668-.2750002.3303666-.0551629,7.7325741-.9357335,8.8057059-5.3660661.1652851-.7704484.4679685-3.7148436-1.7886208-4.3478936-2.2838655-.6053668-3.7698029,1.1557743-5.5861069,3.852649-.3576427.550204-1.1557743.9904892-1.5134171.9904892-.3301631-.0274797-2.366508-.1925612-2.5041099-2.2014265-.1101222-1.5960596.1650815-4.9807401.4402853-7.7048909.082439-.9906928-.3301631-1.4859374-.1101222-2.1739468.1650815-.5504075.715489-.9906928.9906928-1.2107337.9080503-.7981316,3.2195989-1.6235393,3.4396398-1.7886208.2477241-.1927648.467765-.385326.1376019-.7706519-.4402853-.550204-.7704484-.797928-1.265693-1.0456521-.1927648-.1101222-.4128056-.2200409-.385326-.3026834.0274797-.1376019.6880094-.1650815.8530909-.1376019.467765,0,2.6417118-.1099187,3.4396398,2.284069.3578463,1.0456521-.4952446,1.6235393-.6603262,1.651019s-.4128056-.0274797-.6880094-.1925612c-.2477241-.1927648-1.2933762-1.3208559-4.1276492.4952446-.4128056.2477241-.5778872.6053668-.6605297,1.100815-.1099187.6053668.5504075.8254077.4679685,2.0086617-.0551629.5229278-.5778872,4.0177305-.5778872,5.503668,0,.6603262.1099187,1.1006115.3026834,1.5134171.1925612.385326.3026834.4954482.5227243.4954482.2202444.0274797.5778872-.0826425,1.0181725-.4404888.4402853-.3576427,4.3753733-3.4121601,6.8520035-2.6417118,2.4766302.7431723,3.6047213,2.8069969,3.3297211,5.2009845Z"/>
          <path class="cls-1" d="m293.1995419,57.5995255s1.9262227,1.6235393,3.1094767,2.7793136c-.082439.3301631-.385326.4402853-.797928.4402853h-19.5376345c-1.1834576,0-2.20163.0549593-3.2195989.2200409l-.8256113-1.5960596c1.4859374.2752038,3.3020379.4402853,4.4578123.4402853h15.1624648l1.651019-2.2838655Z"/>
          <path class="cls-1" d="m318.4844974,51.1328479s1.4584578,1.2107337,2.366508,2.0361414c-.0551629.302887-.3301631.4402853-.715489.4402853h-7.48485v3.7700064h7.4022075l1.3485391-1.7061818s1.5134171,1.2109372,2.448947,2.0915078c-.082439.3026834-.3301631.4402853-.715489.4402853h-19.8128382c-1.183254,0-2.2014265.0549593-3.2195989.2200409l-.7704484-1.4859374c1.4859374.2752038,3.3022415.4402853,4.4580158.4402853l.9630096.1101222v-1.7886208c0-1.6512225-.1925612-3.7150471-.4952446-5.0908623l3.0268342.4128056c-.0549593.3576427-.3026834.6053668-.8805706.715489v5.6410663l4.4854955.1101222v-3.8801287c0-1.651019-.1925612-3.7148436-.4952446-5.0906588l3.1919157.4402853c-.0549593.3851224-.3026834.6603262-.9355299.7429687v3.1094767h4.5404548l1.2933762-1.6784986Zm-9.9065209,9.5761543c-.1376019.2475205-.3851224.3851224-.9906928.2752038-1.5408968,2.1739468-4.4303326,4.8431382-7.5947687,6.4391979l-.2477241-.3578463c2.6417118-2.0088653,5.200781-5.2284642,6.3842385-7.7048909l2.448947,1.3483355Zm-7.8699724,12.6306717c6.7968406-1.4034984,12.1352235-3.4121601,16.4279542-9.7414394l2.3390283,1.4309781c-.1373983.2752038-.4402853.3301631-1.1006115.1927648-4.7881789,5.9712294-10.236684,7.7323705-17.5564524,8.6404208l-.1099187-.5227243Zm11.9426623-7.8150131c0,1.4307745-.3301631,2.3113451-2.7243543,2.5590692-.082439-.5227243-.2200409-.9906928-.5778872-1.2658966-.3851224-.3026834-.9904892-.5227243-2.1462636-.6603262v-.4128056s2.6142321.1925612,3.1369564.1925612c.4128056,0,.5504075-.1373983.5504075-.5227243v-2.1189875c0-1.651019-.1925612-3.7148436-.4952446-5.0906588l3.1094767.4402853c-.0826425.3851224-.3026834.550204-.8530909.6603262v6.219157Zm3.2745583-5.751392c8.1728594,2.2291097,7.7050944,6.9071664,5.5586273,5.8613107-.9630096-1.9262227-3.7423232-4.2652511-5.8061478-5.5586273l.2475205-.3026834Z"/>
          <path class="cls-1" d="m334.7160229,61.4519709s1.2382133,1.1557743,1.8987431,1.9537024c-.0551629.2752038-.3301631.4128056-.6330501.4128056h-2.9443952v5.6687495c1.1282947-.3578463,2.3115487-.715489,3.4948027-1.100815l.1101222.385326c-1.9537024,1.0181725-4.733016,2.448947-8.3104613,4.0726899-.082439.3301631-.3301631.6053668-.6053668.6878058l-.797928-2.3115487c.3301631-.082439.797928-.1925612,1.3758152-.3576427v-4.8980976c0-1.6512225-.1925612-3.7150471-.4952446-5.0908623l2.7793136.4128056c-.0551629.3026834-.2752038.5227243-.8256113.6053668v8.5579818l1.7336615-.4952446v-11.8877029h-1.56858c0,.3301631.0274797.6603262.0826425.7429687-.0826425.3026834-.5778872.715489-1.4034984.715489-.2475205,0-.467765-.2752038-.467765-.5504075.1101222-1.4309781.2202444-2.8617526.2202444-4.2927307,0-1.6512225-.1927648-3.7150471-.4954482-5.0908623l2.3939877.9906928h3.6324046l.9357335-1.0456521,2.0361414,1.6235393c-.1925612.2200409-.6053668.4402853-1.1006115.5504075v6.8517999c-.0274797.1650815-.8256113.5778872-1.3758152.5778872h-.2202444v-1.0731318h-1.1282947v4.9807401h.6330501l1.0456521-1.5960596Zm-4.7881789-4.2102917l4.2377714.1101222v-5.9714329h-4.2377714v5.8613107Zm11.1447342-5.3658625l1.7886208,1.5960596c-.1925612.2200409-.467765.3026834-1.0181725.3301631-.8528874,2.9443952-2.6140285,5.4759847-5.9437497,6.9894018l-.2477241-.4126021c2.5041099-1.56858,3.9076083-3.9902509,4.5404548-6.686922-1.1557743,0-2.1739468.0549593-3.1921193.2200409l-.797928-1.4859374c1.2933762.2752038,2.8894359.4402853,3.8799251.4402853l.9906928-.9904892Zm8.2278187,14.7494556c0,2.2014265.1650815,4.9532604.2202444,6.4666775-.2202444.2477241-.8530909.6880094-1.6512225.6880094-.2750002,0-.3851224-.2752038-.3851224-.5504075.0549593-.3576427.1101222-.715489.1101222-1.1006115h-8.0077778c0,.4126021.0274797.9080503.0826425,1.0456521-.0826425.2752038-.6605297.6878058-1.486141.6878058-.2475205,0-.5227243-.2750002-.5227243-.550204.1376019-2.1189875.2752038-4.2377714.2752038-6.3567589,0-1.651019-.1927648-3.7148436-.4954482-5.0906588l2.4216709,1.0181725h7.6499315l.8805706-1.0733353,1.8987431,1.5411003c-.1376019.2200409-.4402853.3576427-.9906928.4402853v2.834273Zm-9.7137561-2.9443952v3.3297211l8.0077778.1099187v-3.4396398h-8.0077778Zm8.0077778,7.6499315v-3.4948027h-8.0077778v3.4948027h8.0077778Zm3.7972826-18.7671861c-.1373983.1927648-.3576427.2477241-.8805706.1101222-1.0179689.6605297-2.7241508,1.7061818-4.0724863,2.4491506,1.4032949,2.1187839,3.3020379,3.3295176,5.2834235,4.1826085l-.0551629.3026834c-.6053668.1101222-1.1006115.715489-1.3208559,1.5411003-2.8617526-1.8712634-4.8156586-4.2102917-5.7786682-9.0809096v7.5123297c0,1.4309781-.2752038,2.2289061-2.366508,2.4491506-.0551629-.467765-.1650815-.9080503-.4954482-1.183254-.3026834-.2752038-.8528874-.467765-1.7886208-.6053668v-.4402853s2.0913043.1650815,2.5317931.1650815c.4126021,0,.4952446-.1376019.4952446-.4954482v-5.7511885c0-1.651019-.1925612-3.7148436-.4952446-5.0908623l2.9718748.4404888c-.0826425.3851224-.2477241.5776836-.8530909.6878058v.3026834c.3301631,1.8712634.9080503,3.3846805,1.6235393,4.5956177,1.0456521-1.100815,2.3939877-2.7243543,3.1921193-3.7150471l2.0086617,1.6235393Z"/>
          <path class="cls-1" d="m378.8231238,67.9186484c-.4402853.3576427-.9355299.0274797-1.4584578-.2752038-.2477241-.1376019-1.5411003-1.4584578-3.5772417-2.7793136-.2477241.5778872-.5778872,1.183254-.9632131,1.8163041-2.2014265,3.632201-5.1733013,5.3933422-8.6406243,5.6410663-.467765.0274797-.3851224-.0826425-.3576427-.2202444,0-.1099187.1925612-.0549593.550204-.1650815,2.0088653-.550204,5.2284642-2.1462636,7.2373295-6.4666775.2200409-.4952446.4128056-1.0181725.6053668-1.5134171-2.0088653-1.0731318-4.5129752-1.9262227-7.3197685-1.8712634-.2477241,0-.4952446.0274797-.7429687.0274797-1.1557743,2.2565894-3.1646396,6.2466367-4.0452102,6.8520035-1.2382133.8805706-2.366508.6053668-2.9718748-.1376019-.6880094-.9080503-.4402853-3.0268342.9355299-4.733016.715489-.8805706,2.4766302-2.2289061,5.0908623-2.7243543,1.7611412-2.9993545,3.7974861-6.4115147,4.4028529-7.2920852.3301631-.4679685.715489-1.0458557.2752038-1.3208559-.3301631-.1927648-.6328465.1099187-.9632131.3301631-.7152855.5227243-1.9537024,1.7611412-2.366508,1.981182-.3851224.2477241-.6053668.5504075-1.3483355.2477241-.7704484-.3026834-1.7336615-1.0456521-1.981182-1.3208559-.2477241-.2752038-.1650815-.4128056-.0826425-.5227243.1101222-.1101222.3026834-.0826425.4952446,0,.1927648.1099187.7981316.4400817,1.4309781.2200409.6330501-.2200409,2.4766302-1.4309781,3.3846805-1.8712634.9082538-.467765,1.7888244-.7704484,2.8344765-.0274797,1.0181725.715489,1.2107337,1.4859374.9080503,1.8161005-.1376019.1376019-.2477241.4128056-.6880094.8530909-1.981182,1.8987431-3.8249658,5.035903-4.5954141,6.3290757-.0551629.1101222-.1376019.2477241-.2477241.4402853.2202444-.0274797.4402853-.0274797.6328465-.0274797,2.1464671.0274797,4.8431382.715489,7.3197685,1.7061818.4128056-1.4034984.5229278-2.751834,0-3.6598842-.2200409-.3578463-.8805706-1.100815-.7429687-1.2933762.1650815-.2200409,1.1282947.2752038,1.5411003.385326.797928.2475205,1.4032949,1.4032949,1.2933762,3.1919157.797928,1.486141,1.8435802,2.9995581,3.0268342,4.0177305.2477241.1650815.4954482.3576427.6880094.5227243.9080503.715489.8805706,1.486141.4402853,1.8437837Zm-16.2355966-5.5311476c-2.0086617.467765-3.6598842,1.5960596-4.4303326,3.4123637-.4128056.9355299-.1925612,1.5134171.1376019,1.651019.3576427.1101222,1.3483355-.0826425,2.0913043-1.3208559.2752038-.4402853,1.1557743-1.9539059,2.2014265-3.7425268Zm11.6676621,1.2384169c.5227243.2200409,1.0181725.4952446,1.4859374.7429687l-1.2107337-1.7886208c-.0826425.3301631-.1650815.6878058-.2752038,1.0456521Z"/>
          <path class="cls-1" d="m403.3374273,60.7364818c-.2200409.3301631-.9630096.6880094-1.5958561.6880094-.3303666,0-.4402853-.2752038-.4402853-.5504075.0549593-.2752038.1099187-.5504075.1099187-.8805706h-6.3290757v10.6218064l7.6224519.1101222v-3.4121601c0-1.651019-.1925612-3.7150471-.4952446-5.0908623l3.1369564.4402853c-.0549593.385326-.2752038.6328465-.9355299.7429687v2.9995581c0,2.2014265.1650815,4.9530569.2200409,6.4666775-.2200409.3576427-.9355299.7429687-1.5960596.7429687-.3301631,0-.467765-.2752038-.467765-.5504075.0826425-.5229278.1376019-1.0456521.1376019-1.6235393h-16.8409634c0,.6328465.0551629,1.4034984.1101222,1.7061818-.1101222.3576427-.8254077.7152855-1.4584578.7152855-.3301631,0-.5778872-.2750002-.5778872-.550204.1376019-1.9813856.2477241-3.9625676.2477241-5.9989126,0-1.651019-.1925612-3.7150471-.4952446-5.0908623l3.1094767.4402853c-.0551629.385326-.2752038.6328465-.9357335.7429687v7.2096462l7.4298907.1101222v-10.7319286h-6.1639941c0,.3301631.0274797.7429687.0826425.8530909-.0826425.3576427-.7981316.715489-1.4309781.715489-.3301631,0-.5504075-.2752038-.5504075-.5504075.1101222-1.5960596.2202444-3.1921193.2202444-4.8156586,0-1.651019-.1927648-3.7148436-.4954482-5.0908623l3.1094767.4402853c-.0549593.3578463-.2750002.6053668-.9355299.715489v6.9069628l6.1639941.1101222v-5.5034644c0-1.6512225-.1925612-3.7150471-.4952446-5.0908623l3.1919157.4402853c-.0549593.3851224-.2750002.6603262-.9080503.7704484v9.2734708l6.3290757.1101222v-3.0819971c0-1.651019-.1925612-3.7148436-.4952446-5.0908623l3.1369564.4402853c-.0549593.3578463-.3026834.6053668-.9355299.715489l.2200409,8.4755428Z"/>
          <path class="cls-1" d="m432.4473485,55.5631805c-.082439.797928-1.183254.6053668-1.5960596.5504075-.3576427-.0551629-4.1826085-.6330501-7.5947687-.302887-.0551629,1.6787022-.1101222,3.6049249-.0826425,4.9807401.5778872,1.100815.8256113,2.8067933.7981316,4.9532604-.0826425,5.4485051-5.1458217,7.1272073-5.751392,7.3197685-.1925612.0826425-.3576427.1101222-.4126021,0-.0551629-.1376019,0-.2752038.2475205-.385326,4.2652511-1.8987431,4.5129752-6.3290757,4.5129752-6.3290757-.1925612.3578463-1.0456521,1.0456521-1.6784986,1.0181725-1.2658966,0-1.8987431-1.4032949-2.1464671-1.9262227-.2477241-.5227243-.715489-1.1282947-.9080503-2.6142321-.1376019-.9080503.1925612-2.9993545,2.366508-3.4396398.715489-.1650815,1.3208559-.0826425,1.8161005.1650815.0826425-.6053668.1376019-1.6784986.1101222-3.6049249-3.3020379.4679685-4.2377714.9632131-6.2189534,1.8163041-.5504075.2475205-2.1739468,1.1280911-3.7150471.1650815-.6603262-.385326-1.2107337-.9906928-1.3758152-1.183254-.2202444-.2202444-.3026834-.467765-.1925612-.5778872.2475205-.2477241.6878058.1101222,1.4032949.1925612.7429687.0551629,1.7886208.0826425,2.8894359-.1650815.7704484-.1650815,4.3753733-.8530909,7.1821666-1.2933762,0-.6603262-.0551629-1.4032949-.0826425-2.2289061-.0549593-.9906928-.5227243-1.8161005-.8805706-2.1187839-.2752038-.2202444-.6328465-.3026834-.6053668-.5229278.0274797-.1925612.1376019-.2752038.3578463-.3576427.2475205-.0826425.9080503-.1652851,1.6235393.1650815.797928.3576427,1.0456521.6328465,1.1555708,1.1006115.0826425.4128056-.0274797.6605297-.1099187.9632131.8530909.5227243,2.834273,1.6784986,4.1826085,2.0363449,1.7336615.4952446,2.8067933.3851224,3.3846805.5227243.6605297.1101222,1.4309781.3026834,1.3208559,1.100815Zm-10.5668471,7.3472481c-.0274797-1.8987431-.6328465-2.7793136-1.3483355-2.751834-.3301631.0274797-2.3115487.715489-1.8712634,2.5041099.4128056,1.7886208,1.3208559,2.6142321,2.2014265,2.6142321.5504075,0,1.0733353-.467765,1.0181725-2.366508Zm3.7700064-8.9707874c-.2202444-.1376019-1.4584578-1.0456521-2.1739468-1.56858-.0549593.4402853-.1101222,1.3208559-.1650815,2.366508.8256113-.1101222,1.5134171-.1925612,1.8987431-.1925612.3026834,0,.8530909-.0551629.8805706-.1650815.0274797-.0826425-.1925612-.2752038-.4402853-.4402853Z"/>
          <path class="cls-1" d="m447.6332219,54.0220802c.1376019.2202444.1927648.6330501-.3851224,1.1557743-.9632131.8805706-1.8987431,1.56858-2.9169155,2.0363449-.9632131,4.6228938-2.4216709,11.1447342-2.6968746,12.1629067-.4402853,1.4859374-.797928,2.1739468-1.5683764,1.9262227s-1.0733353-1.0456521-.6880094-1.8712634c.1101222-.2200409,1.183254-2.5041099,1.7336615-4.4578123.715489-2.5041099,1.3208559-4.7606992,1.8161005-7.2648091-.5227243.1101222-1.0456521.1927648-1.5960596.2202444-.6328465.0549593-1.6784986-.385326-2.4766302-1.0456521-.2475205-.1927648-.2200409-.3578463-.2200409-.3578463.1101222-.1925612.3301631-.0549593.5504075,0,.2475205.0274797,1.7336615.4128056,3.8249658-.550204.082439-.0551629.1650815-.0826425.2475205-.1376019.1101222-.6880094.2202444-1.4034984.3303666-2.1739468.0274797-.2202444.1101222-1.4034984-.1650815-1.9537024-.2752038-.5778872-1.100815-.9632131-1.183254-1.0458557-.0826425-.1099187-.1101222-.1650815-.0826425-.3026834.0826425-.2200409,1.3483355-.0274797,1.9262227.2752038.6053668.3301631,1.4034984.6605297,1.183254,1.9813856v.082439c.2752038.3578463.6605297.8530909,1.100815.9906928.2475205.0549593.3851224.0274797.6053668.0274797.2477241.0274797.5227243.1101222.6603262.3026834Zm-2.4766302-.7704484c-.082439.4128056-.1925612.9906928-.3301631,1.6784986.2477241-.1925612.4954482-.3851224.715489-.6328465.1650815-.1376019-.1101222-.6603262-.385326-1.0456521Zm13.0159976,16.7308412c.0826425.6880094-.5778872,1.100815-1.2107337,1.2382133-.8805706.2202444-1.7611412.3303666-2.5867524.3303666-1.3483355,0-3.935088-.1927648-5.1733013-1.5960596-.6328465-.715489-.7429687-1.8163041-.5778872-2.5867524.1376019-.6603262.4952446-1.3758152.7704484-1.3758152h.0274797c.1376019.0274797.1376019.2200409.1101222.5504075-.0274797.2200409-.0274797.4402853,0,.6603262.1101222.8256113.385326,1.8161005,1.5411003,2.1189875.8530909.2200409,1.651019.3301631,2.4766302.3301631.6878058,0,2.1462636-.1650815,2.8892323-.3026834,1.0733353-.2202444,1.6787022,0,1.7336615.6328465Zm-6.9619222-14.6395369c0-.0549593.0274797-.1099187.1650815-.1099187.082439,0,.2200409.0274797.4402853.082439.467765.0826425,1.2107337.1925612,1.4309781.2202444.2750002,0,.5776836-.0276832.9355299-.0826425.385326-.0549593.8256113-.1376019,1.3208559-.1376019.3301631,0,.6603262.0274797.9906928.0826425.5227243.1099187.9904892.467765,1.183254.9630096.1650815.3578463.1101222.715489-.0826425,1.0181725-.1925612.2752038-.6053668.3026834-.9630096.3301631-.0826425.0276832-.1652851.0276832-.2477241.0276832-.1101222.0274797-.2202444.0274797-.3026834.0549593-.1650815,0-.3026834.0274797-.5778872.0826425-.2752038.082439-.5778872.1925612-.8805706.3026834-.1650815.0549593-.3026834.1099187-.4402853.1650815-.0549593.0274797-.1101222.0549593-.1925612.082439-.1652851.0826425-.3578463.1650815-.4954482.1650815h-.082439c-.0551629-.0274797-.0826425-.082439-.0826425-.1099187-.0274797-.0826425,0-.1652851.0274797-.2477241.1650815-.3026834.467765-.5229278.7429687-.715489l.1652851-.1650815c.082439-.0549593.1373983-.1101222.1650815-.1650815.0274797-.0826425,0-.1376019-.0276832-.1925612-.082439-.1652851-.3301631-.2202444-.5227243-.2477241l-.0274797-.0274797q-.2477241-.0276832-.6330501-.1376019l-.1925612-.0551629c-.9080503-.3026834-1.8712634-.8530909-1.8161005-1.183254Zm9.0809096-1.8710598c.4126021.550204.4126021,1.2382133-.1101222,1.7059783,0,0-.6605297.3301631-1.183254-.3301631-.5229278-.6328465-1.1557743-1.5960596-2.5592728-2.4491506-.2200409-.1376019-.4402853-.2200409-.4126021-.3851224.0274797-.1652851.4126021-.1101222.6328465-.1101222.2200409.0274797,2.5590692.2752038,3.6324046,1.56858Zm2.2838655-.8805706s-.6053668.3851224-1.1282947-.1652851c-.550204-.5227243-1.2382133-1.3483355-2.6140285-1.9262227-.2202444-.1101222-.4128056-.1650815-.4128056-.3301631s.3576427-.1376019.5504075-.1650815c.1925612,0,2.2838655-.0274797,3.3846805,1.0181725.4402853.4402853.715489,1.1280911.2200409,1.56858Z"/>
          <path class="cls-1" d="m474.2665129,59.9660335c-1.5683764,2.834273-2.7793136,7.0445647-2.8617526,7.8150131-.1101222,1.1557743.5227243,2.3939877.6880094,2.8894359.2200409.7704484-.1927648,1.0181725-.5504075,1.1557743-.3578463.1376019-.715489-.1376019-.9357335-.385326-1.9537024-2.1464671-2.448947-6.5216369-2.3113451-8.9433078.1099187-2.4491506.9630096-5.2284642,1.1557743-7.0720444.2475205-2.6142321-.8805706-3.8249658-1.0458557-3.9900473-.1376019-.1927648-.2752038-.3026834-.1925612-.4128056s.3301631-.0826425.6328465.0549593c.4128056.2202444,2.7243543,1.8987431,2.4216709,4.2652511-.3578463,3.0819971-1.5960596,3.6873639-1.7336615,7.3197685-.0274797.8256113.0826425,1.6235393.1650815,2.1739468.0551629.385326.2477241.8530909.4402853.9080503.1927648.0274797.385326-.2477241.4954482-.4952446.1099187-.2752038,2.834273-5.0082198,3.1644361-5.4761883.3301631-.4952446.5229278-.797928.6880094-.6878058.1650815.1099187.0549593.4402853-.2202444.8805706Zm11.4474176-4.0452102c-.1650815.1376019-1.6235393.8256113-3.1369564,1.3760188.1376019,2.2838655.385326,6.4115147.1650815,7.4571668-.2752038,1.3485391-.6328465,5.3935457-5.8887904,8.200339-.3026834.1650815-.5229278.0826425-.5778872-.0274797-.0274797-.1101222.2202444-.2752038.3026834-.3301631,3.0545174-1.651019,4.1001695-5.503668,4.4578123-7.7600538.1927648-1.183254.1376019-4.2652511.0276832-7.0720444-.6330501.1650815-1.2109372.2752038-1.56858.2200409-1.5134171-.1650815-2.8619562-.9630096-3.1646396-1.265693-.0549593-.0551629-.1650815-.1101222-.1099187-.2477241.0274797-.1101222.1650815-.1376019.3576427-.0549593.1650815.0549593,1.3758152.3851224,2.2563858.3301631.385326,0,1.2384169-.1650815,2.1739468-.4128056-.1099187-1.8987431-.2200409-3.4121601-.2475205-3.7974861-.1652851-.9906928-1.1557743-1.7336615-1.3208559-1.7611412-.1652851-.0274797-.385326-.082439-.3303666-.2752038.0826425-.2752038.5229278-.3026834.8256113-.2752038.6328465.0276832,1.8161005.1650815,2.4491506.6880094.6603262.5504075.550204.9080503.3851224,1.4034984-.0549593.1650815-.082439.4402853-.1376019.7704484.4402853.3026834,1.3483355.9355299,1.7888244,1.0456521.6053668.1650815,1.8710598.0826425,1.9262227.7429687.082439.6328465-.385326.8256113-.6330501,1.0456521Zm-1.7059783-1.2382133c-.2202444-.1101222-.9906928-.5778872-1.4584578-.8805706-.0551629.6878058-.0826425,1.4859374-.0551629,2.0638246.6330501-.2202444,1.183254-.467765,1.5136206-.6880094.1376019-.082439.3026834-.3576427,0-.4952446Z"/>
          <path class="cls-1" d="m508.9350614,53.8020393c-1.5408968-.2202444-3.1094767.3576427-3.3846805.5227243-.5229278.2752038-2.0088653,1.9262227-2.7243543,4.0726899-1.7886208,5.2834235-1.2107337,8.7782262-.1925612,10.2641636.9355299,1.3483355,3.0819971.9080503,4.2927307.8805706,1.4034984-.0549593,2.6142321.1376019,2.5867524,1.0181725-.0274797.797928-1.4859374.9630096-2.0363449.9906928-2.366508.1650815-4.4028529.1925612-5.833831-1.5960596-1.265693-1.56858-1.4584578-3.2195989-1.4859374-5.1458217-.082439-6.5218404,4.2102917-10.3468062,4.1276492-10.5118877-.0549593-.1376019-.3851224.0551629-.6878058.1101222-1.1557743.3026834-5.1735049,2.0638246-6.3290757,2.5041099-.4954482.1925612-1.6237429.9632131-2.2565894,1.0456521-1.2382133.1650815-2.7241508-1.7336615-2.834273-1.8987431-.1376019-.1650815-.1650815-.385326-.0551629-.5227243.1652851-.1652851.302887-.0826425.5504075.0274797.2477241.1099187.9906928.6603262,1.9539059.4402853.9630096-.2202444,7.6499315-2.6968746,12.0802642-3.3846805.8530909-.1101222,1.265693-.5504075,2.4491506-.7981316.8528874-.1650815,2.3939877.5229278,2.6691914,1.0456521.3026834.5504075.3576427.9906928-.2202444,1.2384169-.1925612.1101222-1.7886208-.1927648-2.6691914-.3026834Zm2.9718748-3.7974861c.385326.1101222,2.9169155.8805706,2.9443952,2.5867524,0,.550204-.1650815.797928-.4952446.9080503-.3301631.1099187-.9632131-.0551629-1.2658966-.715489-.3301631-.715489-.9355299-1.8163041-1.5960596-2.2289061-.2750002-.1652851-.6328465-.3578463-.5776836-.5504075.082439-.2202444.6053668-.0826425.9904892,0Zm2.8894359-1.4309781c.385326.0549593,3.0270377.6880094,3.0819971,2.4491506.0274797.467765-.2202444.6053668-.4128056.6880094-.3301631.1373983-.8805706.0274797-1.265693-.6055704-.385326-.6603262-1.0733353-1.651019-1.7611412-1.981182-.2752038-.1376019-.6880094-.3026834-.6330501-.4954482.0551629-.2200409.6053668-.1373983.9906928-.0549593Z"/>
          <path class="cls-1" d="m529.5694399,61.6445321c0,.6880094-.0274797,1.3208559-.0549593,1.9537024l1.5683764-.4400817.1376019.4126021-1.8161005.7981316c-.6053668,4.3476901-2.834273,7.48485-8.1728594,9.4935117l-.2750002-.3851224c4.0450066-2.0088653,5.9712294-4.6780567,6.6317591-8.3654206-1.7061818.7429687-3.7425268,1.56858-6.1365145,2.5041099-.1101222.3301631-.3301631.5778872-.5504075.6328465l-1.183254-2.1462636c1.5134171-.3026834,4.5679345-1.0733353,8.0352575-2.0363449.082439-.7706519.1376019-1.56858.1376019-2.4216709v-1.6235393h-2.6142321c-1.183254,0-2.2014265.0549593-3.2195989.2202444l-.7704484-1.4859374c1.4859374.2750002,3.3020379.4400817,4.4578123.4400817l2.1464671.1101222v-4.9807401h-3.0819971c-1.183254,0-2.2014265.0551629-3.2195989.2202444l-.7981316-1.4584578c1.4859374.2752038,3.3022415.4402853,4.4580158.4402853l2.6417118.1101222v-.1101222c0-1.4859374-.1927648-3.3846805-.4954482-4.650577l3.1371599.4128056c-.0551629.385326-.2752038.6605297-.9632131.7704484v11.5850195Zm11.1996936-3.9625676s1.3485391,1.1282947,2.20163,1.9262227c-.0826425.3026834-.302887.4402853-.6880094.4402853h-6.5493201v5.8613107h4.5679345l1.3208559-1.7059783s1.4309781,1.183254,2.3390283,2.0638246c-.082439.3026834-.3301631.4402853-.6878058.4402853h-7.5400129c0,2.1737433.1650815,4.815455.2202444,6.2739128-.2202444.4128056-.9632131.8530909-1.6235393.8530909-.3026834,0-.6055704-.2752038-.6055704-.5504075.1652851-2.366508.302887-4.733016.302887-7.1544834v-12.1903864c0-1.6512225-.1927648-3.7150471-.4954482-5.0908623l3.1646396.4402853c-.0826425.385326-.3026834.6605297-.9632131.7704484v3.467323h4.1276492l1.2658966-1.651019s1.4309781,1.1555708,2.3115487,2.0086617c-.0551629.3026834-.3303666.4402853-.6880094.4402853h-7.017085v4.9257808h3.7974861l1.2382133-1.56858Z"/>
          <path class="cls-1" d="m567.5951892,72.6791441c-.2477241.3303666-1.100815.8530909-1.7611412.8530909-.2477241,0-.385326-.2752038-.385326-.5504075.0826425-.5778872.1376019-1.1555708.1376019-1.7611412h-12.3279882c0,.6055704.0549593,1.2933762.1101222,1.56858-.1101222.4128056-.7429687.8805706-1.56858.8805706-.2752038,0-.5778872-.2752038-.5778872-.5504075.1650815-2.366508.3026834-4.733016.3026834-7.1544834v-10.5668471c0-1.6512225-.1925612-3.7150471-.4952446-5.0908623l2.3939877,1.1006115h11.8877029l1.0181725-1.2107337,2.1739468,1.8163041c-.1925612.2200409-.6053668.4126021-1.1282947.5227243l.2202444,20.1430013Zm-14.3368535-20.4731644v8.5305021l12.3279882.1101222v-8.6406243h-12.3279882Zm12.3279882,18.2167786v-8.8883484h-12.3279882v8.8883484h12.3279882Z"/>
          <path class="cls-1" d="m587.734323,53.7745597h2.1737433c.8530909-1.4309781,1.8987431-3.384884,2.5317931-4.8156586l2.6417118,1.1280911c-.1376019.2752038-.5504075.4954482-1.0458557.385326-.8528874.9906928-2.1187839,2.284069-3.3846805,3.3022415h5.1735049l1.1280911-1.2109372,2.0638246,2.0363449c-.1925612.2202444-.4952446.2477241-1.0179689.2752038-.6880094.8805706-1.9539059,2.0638246-2.8894359,2.751834l-.385326-.2202444c.385326-.7429687.8256113-1.8987431,1.1282947-2.834273h-17.253769c0,1.8712634-.7429687,3.1369564-1.4859374,3.6873639-.6328465.5229278-1.5960596.5778872-1.8987431-.0549593-.2752038-.5778872.0826425-1.1557743.6330501-1.4859374,1.0456521-.6605297,2.0638246-2.3941912,2.0086617-4.2652511h.467765c.1101222.467765.1927648.9080503.2477241,1.3208559l7.402411.1099187v-.2200409c0-1.651019-.1927648-3.7148436-.4954482-5.0908623l3.1646396.4402853c-.0551629.385326-.3026834.6605297-.9080503.7429687v4.0177305Zm4.6778531,2.2014265l2.0640281,1.5958561c-.1652851.1927648-.5778872.4128056-1.0181725.4954482v4.4852919c-.0276832.1650815-.9357335.5778872-1.4584578.5778872h-.2477241v-1.0731318h-4.0726899v2.8619562h5.833831l.8805706-1.0733353,2.2289061,1.7061818c-.1650815.1925612-.6053668.4128056-1.1557743.5227243v4.0726899c0,1.3758152-.3026834,2.284069-2.7793136,2.5315896-.0549593-.550204-.1925612-1.0181725-.5227243-1.2931727-.385326-.2752038-1.0456521-.5504075-2.2565894-.6880094v-.4128056s2.6142321.1925612,3.2470786.1925612c.4954482,0,.6330501-.1650815.6330501-.5227243v-4.2102917h-6.1090348v.7704484c0,2.2014265.1650815,4.9532604.2202444,6.4666775-.2202444.2752038-.7706519.8530909-1.6787022.8530909-.2752038,0-.5778872-.2752038-.5778872-.5504075.1650815-2.366508.3026834-4.733016.3026834-7.1544834v-.385326h-5.91627c0,2.1464671.1650815,4.7881789.2202444,6.2466367-.2202444.3026834-.9632131.715489-1.6235393.715489-.2752038,0-.4404888-.2752038-.4404888-.5504075.0826425-1.0456521.1652851-2.0913043.1652851-3.1646396,0-1.651019-.1927648-3.7148436-.4954482-5.0906588l2.3390283,1.0181725,5.7511885.1099187v-2.9718748h-3.8799251c0,.3026834.0274797.6053668.0826425.6603262-.0826425.302887-.8256113.715489-1.5136206.715489-.2475205,0-.3851224-.2750002-.3851224-.550204.082439-.5778872.1376019-1.1557743.1376019-1.7888244,0-1.651019-.1927648-3.7148436-.4954482-5.0906588l2.3115487.9906928h9.3009505l.9080503-1.0181725Zm-12.8507125-6.934646c5.2834235,1.5960596,3.7974861,5.5586273,2.0363449,4.2102917-.1376019-1.3758152-1.2384169-3.0819971-2.3115487-3.9900473l.2752038-.2202444Zm2.5041099,12.2455492l9.6862765.1101222v-3.6049249h-9.6862765v3.4948027Z"/>
          <path class="cls-1" d="m602.9751557,61.9197358c.1376019-.385326.9355299-.1376019,1.5134171-.2752038.5778872-.1101222.9906928-.467765,1.6787022-.9906928.9630096-.7429687,3.3572008-2.8892323,4.0724863-3.5772417.9082538-.8530909,1.8712634-.9630096,3.0270377-.0274797s5.9439532,5.7237088,11.419938,7.3197685c1.6784986.467765,1.6784986,1.5134171,1.4859374,1.9262227-.2752038.5778872-1.183254.797928-2.3390283.2477241-3.8249658-1.8437837-6.6042794-4.4028529-10.8970101-8.4755428-.6880094-.6330501-1.3208559-1.183254-2.4766302.1101222-.6605297.7152855-2.3939877,2.4764267-3.3846805,4.1551289-.2752038.4952446-.715489,1.183254-1.56858,1.4032949-1.651019.4128056-2.7241508-1.265693-2.5315896-1.8161005Z"/>
          <path class="cls-1" d="m629.3057633,70.1200749c0-2.1189875,1.7611412-3.8524454,3.8799251-3.8524454,2.1189875,0,3.852649,1.733458,3.852649,3.8524454,0,2.1187839-1.7336615,3.8799251-3.852649,3.8799251-2.1187839,0-3.8799251-1.7611412-3.8799251-3.8799251Zm.9355299,0c0,1.6235393,1.2933762,2.9443952,2.9443952,2.9443952,1.6235393,0,2.9169155-1.3208559,2.9169155-2.9443952s-1.2933762-2.9169155-2.9169155-2.9169155c-1.651019,0-2.9443952,1.2933762-2.9443952,2.9169155Z"/>
        </g>
      </g>
    </g>
  </g>
</svg>