<?xml version="1.0" encoding="UTF-8"?>
<svg id="_レイヤー_2" data-name="レイヤー 2" xmlns="http://www.w3.org/2000/svg" xmlns:xlink="http://www.w3.org/1999/xlink" viewBox="0 0 1301 35">
  <defs>
    <style>
      .cls-1, .cls-2 {
        stroke-width: 0px;
      }

      .cls-2 {
        fill: none;
      }

      .cls-3 {
        clip-path: url(#clippath);
      }
    </style>
    <clipPath id="clippath">
      <rect class="cls-2" width="1301" height="35"/>
    </clipPath>
  </defs>
  <g id="_レイヤー_1-2" data-name="レイヤー 1">
    <g class="cls-3">
      <g>
        <path class="cls-1" d="m267.4799034,7.8867188c-.2971191-.5610352-.1650391-.8579102-.032959-.9238281.197998-.1323242.4619141.1650391,1.0231934.3300781.8579102.2636719,2.1782227.2636719,3.6965332.1318359,1.5180664-.1318359,10.3635254-1.3203125,11.7827148-1.7163086.4289551-.1323242,1.0561523-.3300781,1.4191895-.4291992.3630371-.065918.7260742-.1982422.9570312-.1650391.230957.0664062.3959961.1318359.7260742.3964844.7922363.6601562,2.4753418,2.1123047,2.8383789,2.6401367.1650391.230957.3962402.527832,0,.8579102-.3959961.3300781-1.2211914.6269531-1.8481445,1.0234375-.5610352.3300781-4.9506836,2.7060547-7.8222656,3.8613281-.197998.7592773-.296875,1.3203125-.5610352,2.1787109-.6601562,1.8808594-3.234375,10.4951172-10.9245605,14.7529297-.3630371.1982422-.4951172.296875-.6269531.1318359-.1650391-.1982422.1318359-.3632812.3959961-.5610352,4.4555664-3.2016602,8.5480957-10.4291992,9.4724121-16.7333984.098877-.5942383,0-1.1547852-.1982422-1.5844727-.4619141-1.0888672-1.0891113-1.1879883-1.8481445-1.3857422-.0991211,0-.197998-.1982422-.1650391-.296875.0991211-.2973633.9570312-.3632812,1.6833496-.3632812,1.5842285,0,3.1352539.8911133,3.3994141,1.9472656.065918.1650391-.197998.6269531-.3959961,1.1220703,1.6171875-.9238281,3.8615723-2.4423828,5.3466797-4.5214844.7260742-.9902344.5939941-1.6171875-.8251953-1.5844727-.9240723,0-6.204834.8911133-8.0529785,1.2875977-1.9804688.3955078-5.0168457,1.3525391-6.5351562,1.4189453-.9240723.0332031-2.5083008-1.0234375-2.9042969-1.8154297Z"/>
        <path class="cls-1" d="m300.9420616,9.8671875c.065918-.3300781.5280762-.3300781.8911133-.3300781.3630371-.0332031,2.3432617.296875,3.003418,1.0561523.098877.0991211.197998.296875.296875.527832,1.0893555-.065918,2.9375-.296875,4.8847656-.527832.0661621-.7924805.0661621-2.1782227-.032959-3.1352539-.1320801-1.2543945-.4621582-1.3867188-.8911133-1.7495117-.4621582-.3300781-.7590332-.2641602-.7590332-.6274414.032959-.362793,1.1220703-.59375,1.8811035-.5605469.7922363.0327148,1.4523926.1977539,1.9143066.5605469.4621582.3964844.6271973.8916016.4291992,1.6503906-.1320801.5942383-.4621582,1.4521484-.4621582,2.3764648,0,.527832,0,.9243164.032959,1.1879883,2.5415039-.3300781,4.8188477-.6928711,5.2807617-.7919922.6931152-.1650391,1.1223145-.8579102,1.5183105-.8579102s2.5083008,1.3198242,2.7724609,1.6499023c.296875.3300781.5280762.4624023.4619141.8916016-.065918.4619141-.7919922.3955078-1.0891113.890625-.3300781.4624023-.3959961.6274414-.7260742,1.5517578-2.7724609,7.9208984-6.072998,13.4658203-17.0964355,17.4921875-.2312012.0991211-.6601562.1982422-.6931152.0664062-.032959-.1323242.197998-.2646484.5939941-.4296875,10.8256836-5.4453125,13.8291016-13.4326172,14.9511719-18.7460938.197998-.8916016.032959-1.3535156-.7919922-1.2543945-1.2543945.1318359-9.7365723,1.3530273-11.848877,1.6831055.2641602,1.4189453.3962402,3.2675781.4951172,4.0927734.1650391,1.3203125.2641602,2.0131836.2641602,2.6074219.032959.59375-.4621582,1.2539062-.9243164,1.3857422-.4619141.1323242-1.6171875-.824707-1.5180664-2.1450195.230957-2.3432617-.197998-6.3369141-.8251953-7.0297852-.6271973-.6933594-1.2211914-1.0893555-1.5183105-1.1552734-.296875-.0664062-.5280762-.1650391-.494873-.3300781Z"/>
        <path class="cls-1" d="m351.6324913,17.5244141c.9240723,1.2207031.4951172,2.4750977-.263916,2.7060547-.7592773.2314453-1.6833496-.59375-2.5415039-1.7822266-1.3200684-1.7822266-3.0693359-3.2011719-5.0827637-4.2578125-.032959,4.9511719-.098877,11.75.1320801,12.9052734.4291992,2.2441406.6931152,3.0361328-.5280762,3.8613281-.8911133.6601562-1.7822266-1.6503906-2.0463867-2.8710938-.296875-1.2543945.0661621-.8251953.2641602-3.1357422.197998-2.3432617.5280762-15.1162109.197998-17.8886719-.1650391-1.2539062-1.0231934-1.6503906-1.3532715-1.9472656-.098877-.065918-.263916-.230957-.230957-.4287109.0991211-.2641602.2971191-.3300781.8911133-.4619141,1.3862305-.2646484,2.1784668.0654297,2.739502.6269531.5280762.527832.3300781,1.0888672.263916,1.5507812-.065918.4951172-.263916,1.4521484-.263916,2.6074219,0,.3632812-.0332031,2.1455078-.0332031,4.4228516,2.3435059.5610352,5.940918,1.6503906,7.8552246,4.0927734Z"/>
        <path class="cls-1" d="m372.4537803,4.6855469c.065918-.2641602.2971191-.3300781.8911133-.4619141,1.3862305-.2646484,2.1782227.0654297,2.7062988.6269531.5612793.527832.3630371,1.0888672.2971191,1.5507812-.065918.4951172-.263916,1.4521484-.263916,2.6074219,0,.3632812-.0332031,2.1455078-.0661621,4.4228516,2.3764648.5610352,5.973877,1.6503906,7.8552246,4.0927734.9570312,1.2207031.4951172,2.4750977-.230957,2.7060547-.7592773.2314453-1.7163086-.59375-2.5744629-1.7822266-1.3203125-1.7822266-3.036377-3.2011719-5.0498047-4.2578125-.065918,4.9511719-.098877,11.75.0991211,12.9052734.4289551,2.2441406.7260742,3.0361328-.4951172,3.8613281-.9240723.6601562-1.8151855-1.6503906-2.0793457-2.8710938-.263916-1.2543945.065918-.8251953.2971191-3.1357422.197998-2.3432617.4951172-15.1162109.1650391-17.8886719-.1320801-1.2539062-.9902344-1.6503906-1.3532715-1.9472656-.065918-.065918-.230957-.230957-.197998-.4287109Zm8.9772949,1.8808594c.065918-.296875.6601562-.1977539,1.1882324-.065918.5280762.0991211,4.0595703,1.2211914,4.2246094,3.2348633.032959.6601562-.1320801.9897461-.5280762,1.1220703-.3962402.1650391-1.1552734.0327148-1.5842285-.7592773-.4621582-.8251953-1.4523926-2.2446289-2.5744629-2.9375-.2971191-.1650391-.7919922-.362793-.7260742-.5942383Zm3.3334961-2.5742188c.032959-.2636719.5939941-.1982422,1.1220703-.0986328.4951172.0986328,3.8945312,1.0229492,4.1257324,2.9702148.065918.5942383-.0991211.9243164-.4621582,1.0893555-.3959961.1650391-1.1220703.0327148-1.5512695-.6933594-.4619141-.7919922-1.4521484-2.0791016-2.5412598-2.6733398-.2971191-.1982422-.7590332-.362793-.6931152-.5942383Z"/>
        <path class="cls-1" d="m399.4799034,7.8867188c-.2971191-.5610352-.1650391-.8579102-.032959-.9238281.197998-.1323242.4619141.1650391,1.0231934.3300781.8579102.2636719,2.1782227.2636719,3.6965332.1318359,1.5180664-.1318359,10.3635254-1.3203125,11.7827148-1.7163086.4289551-.1323242,1.0561523-.3300781,1.4191895-.4291992.3630371-.065918.7260742-.1982422.9570312-.1650391.230957.0664062.3959961.1318359.7260742.3964844.7922363.6601562,2.4753418,2.1123047,2.8383789,2.6401367.1650391.230957.3962402.527832,0,.8579102-.3959961.3300781-1.2211914.6269531-1.8481445,1.0234375-.5610352.3300781-4.9506836,2.7060547-7.8222656,3.8613281-.197998.7592773-.296875,1.3203125-.5610352,2.1787109-.6601562,1.8808594-3.234375,10.4951172-10.9245605,14.7529297-.3630371.1982422-.4951172.296875-.6269531.1318359-.1650391-.1982422.1318359-.3632812.3959961-.5610352,4.4555664-3.2016602,8.5480957-10.4291992,9.4724121-16.7333984.098877-.5942383,0-1.1547852-.1982422-1.5844727-.4619141-1.0888672-1.0891113-1.1879883-1.8481445-1.3857422-.0991211,0-.197998-.1982422-.1650391-.296875.0991211-.2973633.9570312-.3632812,1.6833496-.3632812,1.5842285,0,3.1352539.8911133,3.3994141,1.9472656.065918.1650391-.197998.6269531-.3959961,1.1220703,1.6171875-.9238281,3.8615723-2.4423828,5.3466797-4.5214844.7260742-.9902344.5939941-1.6171875-.8251953-1.5844727-.9240723,0-6.204834.8911133-8.0529785,1.2875977-1.9804688.3955078-5.0168457,1.3525391-6.5351562,1.4189453-.9240723.0332031-2.5083008-1.0234375-2.9042969-1.8154297Z"/>
        <path class="cls-1" d="m437.2985069,31.1220703c-.263916.0991211-.5939941.2314453-.6599121.0991211-.0661621-.1650391.263916-.3959961.5610352-.527832,5.4128418-2.871582,8.6142578-7.7236328,9.5712891-13.1689453.6271973-3.3666992.6271973-6.5019531.4291992-9.4726562-.0332031-.7260742-.1650391-1.4189453-.6931152-1.8808594-.5280762-.4624023-1.2211914-.5283203-1.1552734-1.0234375.0661621-.5283203,1.4853516-.5942383,2.1123047-.4619141,1.0561523.2636719,2.1452637,1.1220703,2.3103027,1.7490234.1320801.6601562-.1650391,1.6503906-.197998,2.5742188-.065918.9243164,0,2.0136719-.065918,3.3339844-.5280762,9.8349609-3.3334961,15.0498047-12.2119141,18.7792969Zm1.3862305-14.1259766c.2971191-3.0693359-.1320801-7.5908203-.4619141-8.1850586-.197998-.3300781-.3962402-.4624023-.6271973-.6274414-.263916-.1650391-.5610352-.1977539-.5610352-.4619141,0-.3959961,1.5842285-.8251953,2.2443848-.6269531.6599121.1982422,1.5510254.8251953,1.3200684,2.9042969-.1320801,1.2543945.0991211,4.4560547.1320801,5.8417969.065918,1.3862305.197998,2.5742188.098877,3.1357422-.1318359.59375-.5939941,1.2207031-1.1220703,1.1879883s-1.2211914-1.0229492-1.0231934-3.168457Z"/>
        <path class="cls-1" d="m484.0946495,26.9306641c-.2971191.7260742-1.9472656.8911133-3.6965332,1.0229492-2.4094238.230957-7.6572266.3300781-9.340332-.4291992-1.7163086-.7919922-1.9472656-1.6171875-2.2773438-3.3994141-.2971191-1.8154297.1650391-10.6601562.065918-12.2773438-.098877-1.2543945-.230957-2.9047852-1.5842285-3.5644531-.2971191-.1650391-.5610352-.2646484-.5610352-.5283203.032959-.2314453,1.4851074-.5615234,2.0793457-.5615234.7919922.0332031,2.1123047,1.2548828,2.5412598,2.0136719.8911133,1.4853516-.032959,1.2871094-.197998,2.5742188-.065918.3964844-.263916,3.2016602-.4289551,6.0400391,1.8811035-.9902344,5.7426758-3.2011719,6.5349121-4.5214844.1320801-.1982422.3959961-.4291992-.1320801-.7592773-.2971191-.1977539-.5610352-.2973633-.8581543-.4291992-.3630371-.1318359-.3630371-.296875-.065918-.5283203.3300781-.2304688,2.7062988-.2636719,3.6635742.0996094.7919922.2636719,1.5180664.6601562,1.8481445,1.1879883.0991211.1650391.1650391.362793.197998.5942383,0,.4287109-.3300781.6601562-.9899902.9238281-.2971191.0991211-.6601562.2314453-1.0893555.3632812-.8249512.2636719-5.3796387,2.7060547-9.142334,3.7954102-.1318359,2.2773438-.197998,4.4223633-.098877,5.1816406.098877.7924805.3300781,2.2446289,2.1782227,2.3105469,1.9802246.065918,5.940918-.2641602,7.1950684-.5942383,1.2211914-.296875,1.7492676-.7587891,2.5083008-.3959961.7592773.362793,1.9472656,1.1879883,1.6503906,1.8813477Zm3.1022949-15.8095703c0,.6601562-.1650391.9570312-.5939941,1.0893555-.3959961.1323242-1.1552734-.065918-1.5183105-.8579102-.3959961-.8583984-1.3200684-2.34375-2.3762207-3.0693359-.2971191-.2314453-.7590332-.4296875-.6931152-.6601562.098877-.2973633.6601562-.1650391,1.1882324,0s3.9934082,1.4521484,3.9934082,3.4980469Zm2.4753418-2.9375c-.3630371.1650391-1.0891113.1323242-1.5842285-.5605469-.5280762-.7592773-1.6171875-1.9804688-2.7392578-2.5087891-.3300781-.1318359-.7922363-.2636719-.7590332-.4951172.032959-.2636719.5939941-.230957,1.1220703-.1977539.5280762.065918,3.9604492.7260742,4.3237305,2.6401367.1318359.5942383,0,.9243164-.3632812,1.1220703Z"/>
        <path class="cls-1" d="m499.6351768,8.0185547c1.1879883-.1650391,4.5876465-.0654297,6.435791,1.3867188,1.3203125,1.0229492,1.5183105,2.3427734.9902344,3.1025391-.5610352.7587891-1.8483887.4946289-2.706543-.8916016-.9570312-1.5507812-3.3994141-2.7392578-4.5876465-3.0693359-.3630371-.0986328-.5939941-.230957-.5939941-.3632812.032959-.0986328.230957-.1318359.4621582-.1650391Zm23.2683105,1.5517578c.1320801.1650391-.1320801.5605469-.2971191.7587891-4.8847656,6.8320312-13.0368652,13.8291016-15.9082031,15.8422852-1.0231934.6928711-1.1223145.6274414-1.9143066,1.4853516-.6601562.7260742-1.3203125.8911133-2.1123047.7260742-1.6171875-.3959961-2.6074219-1.7822266-2.8383789-2.9707031-.2971191-1.3530273,0-1.9140625.197998-2.0131836.230957-.0991211.3630371.6601562.8251953,1.0561523.329834.3300781.7590332.8583984,1.8811035.6601562,3.7956543-.59375,14.3242188-9.637207,19.5388184-15.2480469.230957-.2641602.4621582-.4291992.6271973-.296875Z"/>
        <path class="cls-1" d="m529.4996788,30.296875c-.0661621-.1650391.1650391-.296875.4619141-.4287109,7.0632324-3.3007812,13.1689453-7.9541016,18.5488281-18.152832.230957-.3959961.263916-.6928711.1650391-.7919922-.197998-.1982422-.4291992-.1650391-.8251953-.0332031-2.3432617.6601562-4.1254883,1.2211914-6.0068359.7260742-2.8383789,3.4658203-7.3930664,7.2939453-9.6374512,8.3173828-.263916.1318359-.5610352.1982422-.5939941.0986328,0-.0986328.1320801-.296875.4619141-.527832,2.1784668-1.6499023,7.1621094-6.9638672,8.5483398-10.1987305.263916-.59375.3959961-1.0556641.2971191-1.5839844-.0661621-.4619141-.9243164-1.0229492-1.1882324-1.1220703-.2641602-.1318359-.3959961-.3632812-.2971191-.4619141.2971191-.296875,1.1552734-.4619141,1.7492676-.3964844,1.2541504.1323242,2.2443848.9902344,2.6403809,1.6503906.3959961.6269531.197998.9243164-.065918,1.4853516-.2971191.5283203-.6601562,1.0888672-1.0891113,1.6835938,1.7822266,0,4.4885254-.4951172,5.2807617-.9575195,1.1220703-.6928711,1.2209473-1.1220703,2.3432617-.4951172,1.3862305.7924805,2.4094238,1.6831055,2.2111816,2.3764648-.263916.8911133-1.6501465,1.3203125-2.1782227,2.1782227-5.0166016,8.3833008-12.5087891,14.5219727-20.1660156,16.6674805-.3959961.0986328-.6269531.065918-.6599121-.0332031Zm22.0471191-25.6113281c.5280762.0986328,4.0925293,1.1220703,4.2575684,3.1679688.0661621.6274414-.098877.9575195-.4951172,1.1225586-.3959961.1650391-1.1550293.0327148-1.5842285-.7260742-.494873-.8251953-1.5180664-2.2114258-2.6403809-2.871582-.329834-.1977539-.7919922-.362793-.7260742-.5942383.0661621-.296875.6271973-.1977539,1.1882324-.0986328Zm7.3271484.230957c.1318359.659668,0,.9897461-.3962402,1.1879883-.3630371.1982422-1.1220703.1650391-1.6501465-.5610352-.7590332-1.0561523-1.5842285-1.8481445-2.9042969-2.4423828-.3300781-.1650391-.8251953-.296875-.7922363-.527832.065918-.2973633.7260742-.2314453,1.1882324-.1982422.9570312.065918,4.1584473.5610352,4.5546875,2.5415039Z"/>
        <path class="cls-1" d="m586.5270225,15.3789062c-.9899902,1.3535156-2.7062988,2.2441406-4.2246094,2.8710938-1.2541504.5615234-3.5644531,1.3867188-5.7426758,2.34375-.197998,1.8154297-.0661621,4.2578125-.0991211,4.7856445-.065918.6928711-.6931152,1.2211914-1.2211914,1.1879883s-.9570312-.527832-.9899902-1.1879883c0-.362793.197998-2.1123047.329834-3.7954102-.6269531.296875-1.2211914.6601562-1.7160645.9902344-1.6503906,1.1547852-2.5085449,2.9370117-2.3435059,4.1582031.1650391,1.3203125,1.8813477,1.8813477,2.970459,2.0136719,2.6074219.2304688,3.5314941.0654297,5.5778809-.4296875,1.7822266-.4287109,2.5083008-.2636719,2.7724609.4624023.3630371,1.0229492-1.7824707,1.6831055-2.8054199,1.8149414-1.2541504.1982422-3.0366211.2973633-5.1818848.0664062-3.7624512-.4291992-4.4226074-2.1787109-4.5546875-3.6635742-.098877-.9902344.2641602-3.1352539,2.7724609-4.9838867.6601562-.4619141,1.5512695-.9570312,2.5744629-1.4521484.032959-.7587891.032959-1.4189453-.032959-1.8808594-.2312012-1.7822266-.7592773-2.4755859-1.9143066-2.574707-1.4191895-.1323242-3.3005371,2.0463867-4.3566895,3.4985352-.2641602.3632812-.4951172.6933594-.7590332,1.0234375-.3300781.4287109-1.0561523,1.5175781-1.4191895,1.7822266-.3630371.2636719-1.1223145-.1323242-1.3532715-.6274414-.230957-.527832-.0991211-1.4848633.263916-1.9145508.4951172-.5605469,2.5415039-2.0791016,3.7626953-4.1582031.9240723-1.5839844,2.0131836-3.8613281,2.7062988-6.1386719-1.1220703.296875-2.3432617.4619141-3.4655762.296875-1.1220703-.1650391-2.1782227-.9902344-2.7392578-1.4521484-.0991211-.0991211-.1650391-.2314453-.0991211-.296875.0991211-.1650391.4291992-.0332031.5942383.0327148.197998.065918,1.3530273.4619141,2.7062988.3959961.7590332-.065918,2.1123047-.230957,3.4985352-.7260742.065918-.3959961.1320801-.7592773.197998-1.1552734.0991211-.824707,0-1.8481445-.9902344-2.6401367-.1647949-.1318359-.197998-.1318359-.1318359-.4291992.065918-.2973633.3300781-.2973633.494873-.2973633.1982422,0,1.8483887.2314453,2.1455078.6274414.1650391.2973633.197998.7919922.1318359,1.3530273.3632812.3632812,1.1552734.4951172,1.9143066.3964844.2971191-.1323242,1.4191895-.3300781,1.5512695.2304688.197998.6601562-.7260742,1.5185547-1.7492676,2.0795898-.4619141.230957-1.4851074.7592773-2.7392578,1.1879883-.5942383,1.9145508-1.3532715,4.1586914-2.3105469,6.3041992,1.0561523-.5610352,2.2114258-.5610352,3.168457-.2973633,1.8813477.4951172,2.4094238,3.2016602,2.4094238,3.2016602.4951172-1.1552734,1.0891113-2.574707,2.970459-4.5219727,1.3203125-1.3857422,3.6965332-2.8710938,5.6767578-2.6069336,2.1455078.296875,2.970459,2.4750977,1.7492676,4.1254883Zm-13.1027832-8.1855469c.3630371-.1645508.6931152-.3955078,1.0231934-.6269531-.0332031-.1318359-.0991211-.2636719-.3300781-.3955078-.1320801-.0996094-.2641602-.1323242-.3962402-.1650391-.065918.362793-.1647949.7587891-.296875,1.1875Zm11.4855957,5.28125c-1.0891113-.8583984-3.4985352.1982422-5.2148438,1.9140625-1.3859863,1.3862305-2.1123047,2.5087891-2.9042969,5.0498047,0,.0332031-.032959.065918-.032959.065918,1.5512695-.7260742,3.234375-1.5180664,4.7526855-2.4423828,2.8054199-1.6499023,4.2246094-3.8945312,3.3994141-4.5874023Z"/>
        <path class="cls-1" d="m619.3619834,9.0419922s1.5512695,1.1884766,2.5085449,2.1123047c-.0661621.3632812-.3632812.5283203-.8251953.5283203h-4.5546875v4.2246094h2.8713379l1.3862305-1.8154297s1.6503906,1.2871094,2.6074219,2.2441406c-.065918.3632812-.3630371.5283203-.7922363.5283203h-6.0727539v4.4555664h2.0793457l1.3532715-1.7163086s1.5510254,1.2211914,2.5412598,2.1455078c-.065918.362793-.3959961.527832-.8251953.527832h-11.9807129v3.8618164h8.5483398l1.4851074-1.8486328s1.6833496,1.3203125,2.7724609,2.3105469c-.0991211.3632812-.4289551.5283203-.8581543.5283203h-11.9477539c0,1.5839844.1320801,3.5644531.197998,4.5874023-.197998.296875-.8581543.824707-1.9472656.824707-.3300781,0-.5610352-.3295898-.5610352-.659668.1320801-1.5844727.230957-3.168457.230957-4.7524414h-8.2841797c-1.4191895,0-2.6403809.0654297-3.8615723.2636719l-.9570312-1.7822266c1.7822266.3300781,3.9604492.5283203,5.3466797.5283203l7.7561035.1318359v-3.9936523h-7.5581055c-1.4191895,0-2.6403809.065918-3.8615723.2641602l-.9240723-1.7490234c1.7822266.3300781,3.9606934.527832,5.3469238.527832l.3300781.1318359v-4.5874023h-2.3105469c-1.4191895,0-2.6403809.065918-3.8615723.2636719l-.9240723-1.7490234c1.7822266.3300781,3.9606934.5283203,5.3469238.5283203l1.7492676.1318359v-4.3564453h-.5283203c-1.4191895,0-2.6401367.0654297-3.8613281.2636719l-.9572754-1.7490234c1.7822266.3300781,3.9606934.527832,5.3469238.527832h17.0632324l1.3862305-1.6831055Zm1.0891113-5.0498047s1.7163086,1.4189453,2.706543,2.4091797c-.065918.3300781-.3630371.4951172-.7922363.4951172h-8.2180176c0,.8583984.065918,1.8813477.1318359,2.34375-.1318359.3300781-.8579102.7255859-1.8481445.7587891-.3300781,0-.4951172-.3300781-.4951172-.6601562.0991211-.7919922.1650391-1.5839844.1650391-2.4423828h-6.9638672c0,.8916016.065918,1.9804688.1318359,2.4423828-.1318359.4291992-.9899902.7592773-1.8151855.7592773-.3300781,0-.4951172-.3300781-.4951172-.6601562.0991211-.8251953.1650391-1.6499023.1650391-2.5415039h-4.5876465c-1.4191895,0-2.6403809.0664062-3.8615723.2641602l-.8251953-1.7163086c1.7824707.3300781,3.9606934.5283203,5.3469238.5283203l3.9274902.1318359v-.1318359c0-1.2211914-.230957-2.7724609-.5939941-3.8945312l3.7294922.4951172c-.032959.4619141-.3300781.7919922-1.1220703.890625v2.5087891l6.9638672.1318359v-.1318359c0-1.2211914-.230957-2.7724609-.5939941-3.8945312l3.7624512.4951172c-.032959.4619141-.3300781.7919922-1.1220703.890625v2.5087891h4.8186035l1.4851074-1.9804688Zm-17.5583496,11.9150391l4.6865234.1318359v-4.3564453h-4.6865234v4.2246094Zm4.6865234,5.4125977v-4.4555664h-4.6865234v4.4555664h4.6865234Zm2.0793457-9.637207v4.2246094l4.8188477.1318359v-4.3564453h-4.8188477Zm4.8188477,5.1816406h-4.8188477v4.4555664h4.8188477v-4.4555664Z"/>
        <path class="cls-1" d="m653.2201377,17.887207c-1.7163086,2.1123047-6.8979492,4.5874023-12.145752-1.9145508-.4619141-.6269531-.5280762-.7255859-.4289551-.890625.1318359-.1650391.4289551.230957.8581543.5605469.4619141.3300781,4.7194824,3.2021484,7.5910645,2.3105469,2.8713379-.9238281,3.036377-2.5742188,3.168457-3.2675781.1318359-.6928711-.0991211-3.6630859-3.6306152-4.2246094-3.5644531-.5605469-7.2939453.8251953-9.7692871,2.6074219-.7922363.5615234-1.7163086,1.2871094-2.6074219,2.0463867.098877.1323242.197998.2641602.263916.3959961,1.4191895,2.1787109,2.6074219,4.6865234,3.7956543,6.9638672,1.3532715,2.5419922,2.1123047,4.0927734,2.7724609,6.7666016.230957.890625-.2312012,2.0458984-1.4191895,1.8808594-.9902344-.1318359-1.2211914-1.4521484-1.3862305-2.2441406-.3630371-1.7822266-.7592773-3.53125-1.3862305-5.2480469-.9902344-2.6401367-2.3103027-5.1816406-3.7626953-7.6240234-1.4191895,1.1884766-2.6403809,2.2441406-2.9702148,2.4755859-.5612793.4287109-1.5842285.3959961-2.3764648-.0664062-.5610352-.3300781-.9902344-.8579102-1.3532715-1.3198242-.230957-.2973633-.4289551-.7592773-.197998-1.0229492.1320801-.1650391.4291992.0986328.8251953.3300781.3300781.2304688.7590332.3955078,1.5183105.1650391.9240723-.2973633,1.4851074-.9248047,2.8051758-1.7822266.1650391-.0996094.3962402-.2646484.6931152-.4624023-.4619141-.7592773-.9570312-1.4853516-1.4521484-2.2446289-1.3862305-2.0791016-1.4521484-3.6298828-.3300781-4.7851562,1.1552734-1.1552734,2.8383789-1.0893555,5.0827637-.7592773,1.1552734.1977539,3.6306152.7260742,3.9606934.2641602.3630371-.4619141-.6931152-1.3867188-.8911133-1.5844727-.2312012-.230957-.6271973-.3959961-.5612793-.6269531.0661621-.2641602.7592773-.0332031,1.1882324.1977539.3959961.1982422,1.8483887.9570312,2.3103027,1.6503906.4291992.6933594,1.0561523,1.7490234.0991211,2.4423828-.9240723.7260742-2.3432617.1318359-3.036377-.296875-.7263184-.4291992-5.5778809-2.4423828-6.8981934-.1318359-.7919922,1.4189453.4291992,3.4980469,1.6174316,5.1816406,3.234375-2.0795898,9.8352051-5.7763672,14.5549316-4.1918945,5.3469238,1.7495117,5.2148438,6.3696289,3.4985352,8.4492188Z"/>
        <path class="cls-1" d="m678.6620323,18.8115234c-.197998,2.0458984-1.2211914,7.2939453-3.267334,9.340332-.7592773.7592773-1.9804688,1.6831055-2.5744629,1.3530273-.6601562-.3632812-.7919922-.8251953-1.1552734-1.6171875-.296875-.6601562-.5939941-1.0888672-1.5839844-2.5083008-.1650391-.2641602-.4291992-.5610352-.3300781-.6601562.1650391-.1323242.6269531.230957,1.3530273.7592773.7922363.527832,1.5183105,1.1552734,2.0134277,1.1220703.7919922,0,1.8811035-.4951172,3.036377-4.3237305,1.1220703-3.8286133,1.5183105-7.5581055-.197998-8.6801758-.9572754-.6269531-3.168457.1318359-4.6867676.8251953-.7590332,3.3662109-2.2111816,7.9873047-4.9506836,12.4755859-.7919922,1.2871094-1.8151855,2.0136719-2.5412598,1.2543945-.4951172-.5283203-.197998-1.5512695,1.0561523-3.2348633,2.8383789-3.828125,4.0266113-7.2939453,4.6206055-9.6699219-1.4851074.6601562-3.3005371,1.3530273-3.8945312,1.4853516-.4621582.1318359-2.0134277.0986328-3.201416-1.8486328-.2641602-.4287109-.4951172-1.0234375-.1320801-1.1220703.230957-.0991211.4951172.0986328.9240723.3300781.9240723.4951172,1.5183105.4287109,1.9143066.3959961.9240723-.0327148,3.036377-.4291992,4.7856445-1.1220703.0661621-.2641602.0991211-.4951172.1320801-.6928711.3959961-1.7827148.5610352-4.1591797-.3630371-5.3798828-.2641602-.3300781-1.0561523-.9902344-.9240723-1.3535156.197998-.6601562,2.7722168-.0986328,3.267334.3632812.9240723.9570312.3300781,2.3759766.1320801,3.4980469-.065918.4951172-.197998,1.5185547-.4951172,2.9375,1.6833496-.527832,4.0925293-.9902344,5.4128418-.0327148,1.7163086,1.2543945,1.8481445,3.597168,1.6501465,6.105957Zm9.307373,1.1220703c-.263916.0332031-.4289551-.1318359-1.1220703-.5610352-.6271973-.4951172-3.003418-.7592773-3.135498-.7592773s-.4291992-.0332031-.4621582-.1318359c0-.1318359.3300781-.1650391.3300781-.1650391,0,0,2.0134277-.1650391,2.4094238-.2641602.4289551-.0991211.9240723-.2973633,1.2871094-.5610352.3630371-.296875.2641602-1.7822266-.9899902-3.1357422-1.1552734-1.2539062-3.3005371-2.1450195-3.6965332-2.2441406-.0991211-.0332031-.3300781-.065918-.2971191-.1982422.032959-.0986328.3300781-.0654297.3959961-.0654297,4.6538086.0986328,7.1621094,2.8710938,7.2609863,5.0166016.1320801,2.4091797-1.6831055,3.0361328-1.9802246,3.0693359Z"/>
        <path class="cls-1" d="m697.4701377,6.4013672c-.0661621-.0986328-.2641602-.3300781-.1982422-.4619141.1650391-.2636719.4291992-.0986328.5942383,0,.3959961.2641602,2.4423828,1.3535156,2.4423828,4.2910156,0,1.1875-1.4853516,4.0263672-1.9472656,6.0068359-.5610352,2.2773438-.3962402,3.3330078-.0991211,4.3896484.065918.2636719.032959.3955078.2971191.4287109.263916.0332031.3630371-.1650391.5280762-.5610352s1.3530273-3.2016602,1.4851074-3.597168c.1320801-.3964844.2641602-.3632812.3630371-.3300781.0661621.0327148.0991211.1650391,0,.4946289-.098877.3632812-1.1879883,4.2578125-1.1550293,6.1723633.065918,1.9472656.6599121,4.6201172.7590332,5.1484375s-.3300781.9902344-.7590332,1.0234375c-.6601562.0654297-1.5183105-.7924805-1.8483887-1.6835938-.3630371-.8911133-1.2211914-3.3007812-1.3200684-7.8881836-.0661621-4.3564453,1.3530273-7.4262695,1.7160645-10.6933594.1650391-1.1879883-.7590332-2.640625-.8579102-2.7397461Zm8.5480957,17.8554688c.7260742.5283203,1.5183105,1.0566406,2.8054199,1.3867188,1.2541504.3300781,4.3237305.2636719,7.2609863-.2641602,1.4191895-.2641602,2.2114258.527832,2.2443848,1.1879883,0,.6933594-.7919922.9902344-1.3532715,1.1552734-.5610352.1650391-6.8979492.9238281-9.340332-.5610352-1.3200684-.8251953-2.0131836-2.2446289-2.1123047-2.5083008-.1318359-.2314453-.230957-.5615234-.1318359-.6601562.1650391-.1318359.4289551.1318359.6269531.2636719Zm.9240723-15.644043c.2312012.0991211,1.2211914.4624023,2.6403809.3959961,1.4191895-.065918,4.5546875-.6269531,5.2478027-.8579102s1.7822266.3300781,1.9472656.9243164c.1650391.59375-.5939941,1.0229492-1.3200684,1.2539062-.7260742.2314453-4.1916504.8251953-6.204834.3300781-1.5512695-.3632812-2.739502-1.1884766-3.135498-1.9804688-.0991211-.1977539-.1320801-.362793-.0661621-.4619141.0991211-.1650391.6601562.296875.8911133.3959961Z"/>
        <path class="cls-1" d="m726.3444053,10.0322266c6.4689941.9238281,5.1486816,5.5449219,2.8713379,4.1914062-.3630371-1.3862305-1.8811035-3.003418-3.168457-3.8945312l.2971191-.296875Zm8.0202637,1.6831055c-1.0561523,3.1025391-3.0695801,9.0102539-3.4985352,10.2641602-.197998.8916016-.3959961,1.7827148-.3959961,2.574707.065918,1.4194336.9240723,3.0693359.7919922,5.7099609-.065918,1.4194336-.7260742,2.2441406-1.7492676,2.2441406-.5280762,0-.8911133-.5610352-.9570312-1.6171875.4289551-3.4321289.263916-6.0395508-.3962402-6.5019531-.4289551-.3300781-.8911133-.4291992-1.5510254-.4951172v-.7260742h1.3862305c.3630371,0,.494873,0,.8249512-.6269531q.4951172-1.0234375,5.0168457-10.9907227l.5280762.1650391Zm-5.5449219-9.0761719c6.7661133,1.1547852,5.5119629,5.8417969,3.2346191,4.5214844-.5280762-1.4521484-2.2114258-3.234375-3.5646973-4.2246094l.3300781-.296875Zm3.6965332,29.3413086c3.3334961-1.1552734,6.7990723-3.5317383,8.3503418-5.4130859l2.8383789,1.7490234c-.230957.2973633-.6931152.3632812-1.4853516.1982422-2.0791016,1.5844727-5.7426758,3.234375-9.472168,4.0263672l-.2312012-.5605469Zm12.9050293-25.5126953h6.435791l1.3862305-1.4853516,2.4753418,2.5083008c-.230957.2641602-.5610352.3300781-1.1552734.362793-.7590332.5615234-2.0791016,1.5185547-2.8383789,2.0136719l-.4289551-.2314453c.1320801-.527832.4289551-1.4521484.6601562-2.2441406h-14.5881348c-.032959,5.28125-4.6867676,4.0927734-2.970459,1.6171875,1.1220703-.7255859,1.9802246-2.3100586,2.1782227-4.5546875l.4621582.0332031c.1320801.7260742.230957,1.3862305.2971191,1.9804688l6.0727539.1318359v-.1318359c0-1.3203125-.230957-3.0039062-.5939941-4.1918945l3.7624512.5283203c-.032959.4619141-.3959961.7919922-1.1550293.8911133v2.7724609Zm6.3369141,7.0957031l2.2773438,1.8154297c-.2312012.2636719-.5612793.4287109-1.1552734.5283203v2.3100586c0,2.6401367.197998,5.940918.263916,7.7563477-.263916.296875-1.0229492.7587891-1.9802246.7587891-.3300781,0-.4619141-.3300781-.4619141-.6601562.065918-.230957.1318359-.4619141.1318359-.7587891h-12.6738281c0,.4287109.0332031.890625.0991211.9902344-.0991211.362793-.7260742.8251953-1.7163086.8251953-.2971191,0-.5939941-.3300781-.5939941-.6601562.1650391-2.2446289.296875-4.4892578.296875-6.7333984,0-1.9804688-.230957-4.4555664-.5939941-6.1054688l2.904541,1.1879883,4.8186035.1318359v-3.2670898h-2.2443848c-1.4191895,0-2.6403809.0654297-3.8615723.2636719l-.8911133-1.7822266c1.7822266.3300781,3.9606934.5283203,5.3469238.5283203h7.1948242l1.4191895-1.7495117s1.6503906,1.2211914,2.673584,2.2114258c-.0661621.3632812-.3630371.5283203-.7922363.5283203h-6.8649902v3.1352539h5.3798828l1.0231934-1.2543945Zm-13.5981445,2.2114258v3.6635742l5.2148438.1318359v-3.7954102h-5.2148438Zm0,8.5483398l5.2148438.1318359v-4.0927734h-5.2148438v3.9609375Zm7.1950684-8.5483398v3.6635742l5.4787598.1318359v-3.7954102h-5.4787598Zm5.4787598,8.5483398v-3.9609375h-5.4787598v3.9609375h5.4787598Zm-4.0266113,2.6733398c11.9147949,2.1450195,8.0861816,7.0297852,6.0070801,5.0166016-1.0561523-1.3862305-3.168457-3.1352539-6.171875-4.4887695l.1647949-.527832Z"/>
        <path class="cls-1" d="m784.5599815,16.7978516c-.263916.3964844-1.1550293.8251953-1.9140625.8251953-.3962402,0-.5280762-.3300781-.5280762-.6601562.065918-.3300781.1318359-.6601562.1318359-1.0556641h-7.5910645v12.7392578l9.142334.1323242v-4.0922852c0-1.9804688-.230957-4.4560547-.5939941-6.1064453l3.7624512.5283203c-.065918.4619141-.3300781.7587891-1.1220703.8911133v3.5976562c0,2.6401367.197998,5.940918.263916,7.7563477-.263916.4287109-1.1220703.890625-1.9143066.890625-.3959961,0-.5610352-.3300781-.5610352-.6601562.0991211-.6269531.1650391-1.2539062.1650391-1.9472656h-20.1989746c0,.7592773.0661621,1.6835938.1320801,2.046875-.1320801.4287109-.9899902.8574219-1.7492676.8574219-.3959961,0-.6931152-.3295898-.6931152-.659668.1650391-2.3764648.2971191-4.7524414.2971191-7.1948242,0-1.9804688-.230957-4.4560547-.5939941-6.1064453l3.7294922.5283203c-.0661621.4619141-.3300781.7587891-1.1223145.8911133v8.6469727l8.911377.1323242v-12.871582h-7.3930664c0,.3955078.032959.890625.0991211,1.0229492-.0991211.4291992-.9572754.8579102-1.7163086.8579102-.3959961,0-.6601562-.3300781-.6601562-.6601562.1320801-1.9140625.2641602-3.828125.2641602-5.7753906,0-1.9804688-.2312012-4.4560547-.5942383-6.1064453l3.7294922.5283203c-.065918.4291992-.329834.7260742-1.1220703.8583984v8.2841797l7.3930664.1318359v-6.6005859c0-1.9804688-.230957-4.4560547-.5939941-6.1064453l3.8283691.5283203c-.065918.4619141-.329834.7919922-1.0891113.9238281v11.1230469l7.5910645.1318359v-3.6962891c0-1.9804688-.230957-4.4560547-.5939941-6.1064453l3.7624512.5283203c-.065918.4291992-.3630371.7260742-1.1220703.8583984l.263916,10.1650391Z"/>
        <path class="cls-1" d="m819.4742881,10.5932617c-.098877.9570312-1.4191895.7260742-1.9143066.6601562-.4289551-.065918-5.0166016-.7592773-9.1091309-.3632812-.0661621,2.0131836-.1320801,4.3237305-.0991211,5.9741211.6931152,1.3203125.9902344,3.3662109.9572754,5.9404297-.0991211,6.5351562-6.171875,8.5488281-6.8981934,8.7792969-.230957.0996094-.4289551.1323242-.494873,0-.0661621-.1650391,0-.3300781.296875-.4619141,5.1157227-2.2773438,5.4128418-7.5908203,5.4128418-7.5908203-.230957.4287109-1.2541504,1.2539062-2.0131836,1.2207031-1.5183105,0-2.2773438-1.6826172-2.5744629-2.3100586-.2971191-.6269531-.8581543-1.3530273-1.0891113-3.1352539-.1650391-1.0893555.230957-3.5976562,2.8383789-4.1259766.8581543-.1977539,1.5842285-.0986328,2.1782227.1982422.0991211-.7260742.1650391-2.0131836.1320801-4.3237305-3.9604492.5610352-5.0827637,1.1552734-7.4589844,2.1782227-.6601562.296875-2.6074219,1.3535156-4.4558105.1982422-.7919922-.4619141-1.4521484-1.1884766-1.6501465-1.4189453-.2641602-.2646484-.3630371-.5615234-.230957-.6933594.296875-.296875.8249512.1318359,1.6831055.230957.8911133.065918,2.1452637.0991211,3.4655762-.1977539.9240723-.1982422,5.2478027-1.0234375,8.6142578-1.5517578,0-.7919922-.0661621-1.6826172-.0991211-2.6728516-.065918-1.1884766-.6269531-2.1787109-1.0561523-2.5415039-.3300781-.2641602-.7590332-.362793-.7260742-.6274414.032959-.2304688.1650391-.3300781.4291992-.4287109.296875-.0991211,1.0891113-.1982422,1.9472656.1982422.9570312.4287109,1.2541504.7587891,1.3859863,1.3198242.0991211.4951172-.032959.7924805-.1318359,1.1552734,1.0231934.6269531,3.3994141,2.0131836,5.0166016,2.4423828,2.0793457.5942383,3.3664551.4619141,4.0595703.6269531.7922363.1323242,1.7163086.362793,1.5842285,1.3203125Zm-12.6738281,8.8120117c-.032959-2.2773438-.7590332-3.3330078-1.6171875-3.300293-.3959961.0327148-2.7724609.8579102-2.2443848,3.003418.4951172,2.1455078,1.5842285,3.1357422,2.6403809,3.1357422.6601562,0,1.2873535-.5615234,1.2211914-2.8388672Zm4.5217285-10.7592773c-.2641602-.1650391-1.7492676-1.2543945-2.6074219-1.8813477-.065918.5283203-.1320801,1.5839844-.197998,2.8383789.9902344-.1323242,1.8151855-.230957,2.2773438-.230957.3630371,0,1.0231934-.0664062,1.0561523-.1982422.032959-.0986328-.230957-.3300781-.5280762-.527832Z"/>
        <path class="cls-1" d="m839.569503,24.9833984c.9902344.296875,2.3103027,1.6171875,2.6074219,3.003418v.0991211l.1320801-.0332031c4.7194824-1.6835938,5.5776367-9.2080078-.1320801-10.3964844-.6601562-.1650391-1.2211914-.1982422-1.7163086-.1982422-2.0463867-.0327148-4.5876465.7919922-7.5251465,5.7431641-.3630371.59375-.8249512,1.4521484-1.2211914,1.7822266-.197998.1650391-.4619141.1650391-.5939941.1650391-.3959961,0-.7590332-.1982422-.8581543-.3632812-.5280762-.7587891-.1650391-1.5507812.3300781-2.3759766.1320801-.2314453,1.6833496-2.0795898,2.3103027-2.871582.197998-.2641602.3300781-.4291992.3959961-.4624023,2.1784668-2.7392578,5.2148438-7.4589844,6.8320312-10.0664062l.0661621-.1318359c.3630371-.5610352.9240723-1.4521484.296875-1.9804688-.032959,0-.065918-.0327148-.065918-.0327148-.0991211-.0991211-.230957-.1650391-.3630371-.1982422-.3959961-.0991211-.7260742.3300781-.9240723.6274414-.2641602.3955078-1.7492676,2.4423828-3.3666992,3.1352539-.296875.1323242-.5939941.1650391-.8911133.1650391-.5939941,0-1.6831055-.2973633-2.1123047-2.1450195-.1318359-.6274414-.065918-.8251953-.065918-.8583984.2641602-.1318359.4621582.1650391.5939941.3632812.0991211.1650391.4951172.3955078.9243164.3955078.1318359,0,.296875-.0327148.4289551-.0654297.6271973-.1982422,1.8483887-.8583984,3.3994141-2.1123047.8251953-.6601562,1.8154297-.8916016,2.970459-.6933594.7260742.1318359,2.0793457.59375,2.4094238,1.4853516.263916.6928711.0991211,1.2871094-.5280762,1.9472656-.3959961.4287109-6.6669922,7.9541016-7.2609863,9.0429688l-.1650391.3300781.3300781-.230957c.5610352-.3300781,2.4753418-1.6499023,5.2145996-1.5844727.5942383,0,1.2211914.0664062,1.8154297.2314453.7260742.1318359,1.4191895.362793,2.0461426.6601562,4.5217285,2.2109375,4.3237305,8.7460938.1650391,11.2543945-2.3762207,1.4521484-5.7758789,2.2446289-8.3171387.7924805-2.6074219-1.4853516-1.2871094-4.6870117,1.5183105-4.6210938.3959961,0,.8579102.0664062,1.3200684.1982422Zm.7260742,3.6303711c.032959-.0327148.0661621-.065918.032959-.1323242-.3300781-1.2539062-.8581543-2.0458984-1.9802246-2.2441406-.1650391-.0332031-.2971191-.0332031-.4621582-.0332031-.9570312.0332031-1.1550293.7924805-1.1550293,1.2216797,0,.1318359.065918.2636719.1650391.3959961.4951172.527832,1.8811035.9243164,2.7724609.9243164.5280762.0327148.5939941-.0664062.6269531-.1323242Z"/>
        <path class="cls-1" d="m867.2557823,8.1835938s1.5512695,1.3203125,2.5083008,2.3105469c-.065918.3632812-.4289551.5283203-.8251953.5283203h-3.9934082v3.8945312c5.7097168,3.1352539,3.8945312,7.0625,2.0793457,5.4453125-.2641602-1.3857422-1.1882324-3.234375-2.0793457-4.6201172v8.0527344c0,2.640625.197998,5.940918.263916,7.7563477-.263916.4619141-1.1220703.9243164-1.8481445.9243164-.4291992,0-.7922363-.3300781-.7922363-.6601562.197998-2.8388672.3630371-5.6767578.3630371-8.5810547v-6.0073242c-1.1220703,2.8383789-2.6074219,5.4458008-4.6206055,7.7563477l-.4289551-.4619141c2.4091797-3.7958984,3.8615723-8.6142578,4.6865234-13.4990234h-.098877c-1.4191895,0-2.6403809.065918-3.8615723.2636719l-.8911133-1.7490234c1.7160645.3300781,3.8615723.5283203,5.2145996.5283203v.1318359-1.9140625c0-1.9804688-.230957-4.4560547-.5939941-6.1064453l3.7294922.5615234c-.098877.4951172-.3300781.7919922-1.1220703.9238281v6.4033203h.9240723l1.3862305-1.8818359Zm17.4594727,6.4033203s1.6833496,1.3203125,2.6403809,2.3105469c-.032959.362793-.3630371.527832-.7922363.527832h-8.2180176v1.1547852c.4289551,1.8486328,1.0891113,3.3666992,1.8811035,4.6210938,1.4194336-1.4853516,2.9375-3.5317383,3.7297363-4.7861328l2.6071777,1.8154297c-.263916.296875-.527832.3964844-1.2209473.1650391-1.1223145.9902344-2.970459,2.3764648-4.6867676,3.3666992,1.9143066,2.6401367,4.5217285,4.0595703,7.1621094,5.0166016l-.0332031.362793c-.7590332.1982422-1.3530273.9243164-1.6171875,1.9472656-3.7294922-2.1123047-6.369873-4.8515625-7.8220215-10.5615234v8.9116211c0,1.6499023-.3300781,2.8051758-2.970459,3.1020508-.065918-.6269531-.230957-1.1875-.5939941-1.4848633-.3962402-.3300781-1.0561523-.5942383-2.3435059-.7592773v-.4951172s2.706543.1982422,3.2675781.1982422c.5280762,0,.6601562-.1650391.6601562-.6269531v-4.9511719c-1.6174316,1.2875977-3.8615723,3.1025391-6.7990723,5.2480469-.032959.3959961-.230957.7260742-.4621582.8911133l-1.7492676-2.2446289c1.5512695-.659668,5.2478027-2.5410156,8.9443359-4.4550781l.0661621.1318359v-6.5678711h-3.4326172c-1.4191895,0-2.6403809.065918-3.8615723.2641602l-.8911133-1.7495117c1.7822266.3300781,3.9606934.527832,5.3466797.527832l2.838623.1323242v-3.7294922h-2.0134277c-1.4191895,0-2.6403809.065918-3.8615723.2641602l-.9240723-1.7495117c1.7822266.3300781,3.9604492.527832,5.3466797.527832l1.4523926.1323242v-3.3666992h-2.970459c-1.4191895,0-2.6403809.0664062-3.8615723.2641602l-.8911133-1.7822266c1.7822266.3300781,3.9604492.527832,5.3466797.527832h.6931152c-.230957-.0327148-.4951172-.1318359-.7590332-.362793-.1320801-1.5512695-1.2211914-3.465332-2.1784668-4.6538086l.3630371-.1977539c4.5876465,1.8481445,4.1586914,5.0493164,2.8054199,5.2143555h3.9606934c.6269531-1.5839844,1.4521484-3.828125,2.0131836-5.3793945l3.1025391.9897461c-.1320801.3632812-.5280762.6274414-1.2211914.5947266-.7922363,1.0888672-1.9802246,2.5742188-3.1025391,3.7949219h3.1025391l1.4521484-1.8149414s1.6171875,1.2871094,2.6733398,2.2773438c-.098877.362793-.3959961.527832-.8249512.527832h-7.7231445v3.234375h3.5644531l1.4851074-1.8476562s1.5844727,1.3198242,2.6074219,2.2773438c-.098877.362793-.3630371.527832-.8249512.527832h-6.8320312v3.597168h4.9506836l1.4191895-1.8808594Zm-14.3239746,4.1254883c5.8417969,2.0131836,3.9934082,6.237793,2.1123047,4.6538086-.197998-1.4853516-1.3862305-3.3339844-2.5085449-4.4228516l.3962402-.230957Z"/>
        <path class="cls-1" d="m902.599044,6.4345703c1.3203125.0991211,2.1452637.2641602,3.1025391.7587891.9240723.4624023,2.0131836,1.4853516,2.0131836,2.1123047,0,.6933594-.6931152.7265625-1.3200684,1.7495117-.5612793.8911133-1.3532715,2.0795898-2.2114258,3.300293.230957.0332031.4951172.0332031.8251953.0332031,1.1220703,0,4.9836426-.296875,6.0397949-.3959961.9572754-.1323242,1.1882324-.7260742,1.6833496-.7260742.7919922,0,2.8713379,1.8154297,2.8713379,2.6733398,0,.7260742-1.0561523.8911133-1.6171875,1.5180664-1.3862305,1.6835938-3.5314941,4.3237305-6.072998,6.9311523,1.0891113.8579102,1.9143066,1.6503906,2.5085449,2.2773438.7260742.7924805,1.5510254,1.8813477,1.5510254,2.7724609,0,.7260742-.329834,1.2871094-1.0229492,1.2871094-.7263184,0-.9902344-.4951172-1.6174316-1.4848633-2.1452637-3.3999023-5.0495605-5.6772461-8.3500977-7.9873047l.4951172-.6601562c2.1123047.8911133,3.8945312,1.9472656,5.3466797,3.003418,2.4094238-2.8051758,4.5546875-5.875,5.4128418-7.7563477.197998-.4287109.098877-.527832-.3300781-.527832-1.1552734,0-4.7856445.3959961-6.0397949.5610352-.6931152.1318359-.9902344.296875-1.3532715.296875-.263916,0-.6931152-.2636719-1.1552734-.6928711-.5280762.7260742-1.0891113,1.4521484-1.6501465,2.1123047-2.0463867,2.4750977-4.7197266,5.4125977-7.5910645,7.5249023l-.6931152-.6601562c2.4094238-2.3759766,4.8186035-5.1157227,6.8320312-7.8549805,1.6501465-2.2114258,3.5644531-5.3139648,4.2905273-7.2612305.197998-.4951172.1650391-.7587891-.296875-1.1552734-.4951172-.4287109-1.1882324-.7587891-1.9143066-1.0888672l.263916-.6601562Z"/>
        <path class="cls-1" d="m934.7079307,9.6689453c-1.5842285,4.3564453-4.9506836,12.640625-5.4128418,13.9941406-.296875.8251953-1.4851074,1.2539062-1.8151855.6269531-.1320801-.1982422-.3630371-.7260742-.2971191-1.6171875.032959-.3959961.2312012-.6933594.8911133-1.7822266,0,0,3.4985352-6.0727539,4.9509277-10.6274414-.0661621.0327148-.1320801.0327148-.1982422.065918-3.432373.5942383-4.2246094-1.7163086-4.5876465-2.1455078-.1318359-.2304688-.1650391-.4951172-.1318359-.5605469.065918-.0664062.263916-.0996094.6269531.2304688.5939941.5947266,1.8483887.7265625,2.9375.6601562.4289551-.0327148,1.1550293-.2636719,1.9143066-.4951172,0-.0986328,0-.1977539.032959-.2636719.1650391-1.6835938.197998-2.0791016-.230957-2.6738281-.4291992-.59375-1.4523926-.59375-1.1552734-1.1220703.1320801-.2304688.7922363-.3300781,1.5842285-.0327148.6931152.2641602,2.3432617.6269531,1.6833496,3.3666992.329834-.1323242.5280762-.1982422.5280762-.1982422.032959,0,.5280762-.2641602.5939941-.4619141.032959-.0332031.1650391-.1982422-.230957-.4951172-.0332031-.0332031-.5612793-.3300781-.5612793-.4291992,0-.3959961,1.0561523-.2973633,1.3532715-.2973633.5280762,0,.7590332,0,1.1882324-.0327148.4619141-.0327148.8251953.1650391,1.0231934.5610352.1650391.3632812.032959,1.2871094-.5280762,1.6171875-1.8483887,1.0234375-3.168457,1.6835938-4.1586914,2.1123047Zm14.2250977,4.4560547c-.7922363.0654297-1.3203125-.4296875-1.7822266-.7265625-.4621582-.3300781-1.6503906-.7255859-2.5083008-.4287109-.4291992.1650391-1.9143066.890625-2.4423828,2.8051758-.2971191,1.0229492.032959,3.5644531.032959,3.5644531.098877,1.6176758.3959961,3.003418.5939941,5.0498047,2.4753418.6274414,4.6206055,1.7495117,5.1157227,2.2773438.8911133.9243164.8581543,1.5844727.4291992,1.9799805-.5280762.4951172-1.1552734.1323242-2.2773438-.59375-1.0891113-.7260742-2.1123047-1.2211914-3.1025391-1.5839844,0,.296875.032959.59375.032959.890625.032959,1.8486328-1.4521484,3.6640625-4.4226074,3.7626953-3.3334961.0991211-4.7526855-2.1123047-4.8847656-3.168457-.1318359-1.1879883.4621582-2.871582,2.9375-3.6967773,1.3532715-.4619141,2.9375-.4619141,4.4887695-.2304688-.2312012-2.1455078-.3300781-5.3466797-.2971191-6.1391602.032959-1.5180664.2971191-2.4750977.9902344-3.597168.9570312-1.5844727,3.300293-2.3105469,4.1254883-2.6074219,1.6171875-.5942383-.7922363-2.3769531-.9902344-2.6738281s.9902344-.1318359,1.6833496.1323242c1.0561523.4619141,2.2443848,1.1879883,3.0693359,2.5083008.7260742,1.1552734.0332031,2.4091797-.7919922,2.4755859Zm-7.8222656,11.8154297c-2.4753418-.5283203-4.3234863-.0991211-4.8845215.0991211-.9243164.3295898-1.1882324.8911133-1.2541504,1.2211914-.1650391,1.1879883.9899902,2.0791016,2.5742188,2.1455078,2.7724609.1318359,3.201416-1.0234375,3.4655762-2.2446289.032959-.1977539.065918-.6601562.098877-1.2211914Z"/>
        <path class="cls-1" d="m983.0550987,8.5800781s1.8154297,1.4521484,2.970459,2.5742188c-.065918.3632812-.3959961.5283203-.8251953.5283203h-11.8486328c2.8713379,6.3037109,8.2182617,11.8486328,13.3010254,14.3569336l-.0991211.362793c-.8581543.0664062-1.6831055.7592773-2.0463867,1.8486328-4.8845215-3.2675781-9.2412109-9.109375-11.7824707-16.3378906v11.815918c0,2.6401367.197998,5.940918.263916,7.7563477-.263916.4951172-1.1882324,1.0556641-1.9802246,1.0556641-.4291992,0-.7922363-.3295898-.7922363-.659668.197998-2.8383789.3630371-5.6772461.3630371-8.581543v-9.3398438c-2.9042969,5.9072266-7.5581055,11.2216797-13.4658203,14.8188477l-.3959961-.4291992c5.4458008-4.1914062,9.9013672-10.5283203,12.2775879-16.6669922h-7.0959473c-1.4191895,0-2.6403809.0654297-3.8615723.2636719l-.9570312-1.7822266c1.7822266.3300781,3.9604492.5283203,5.3466797.5283203l8.1520996.1318359v-2.6074219c0-1.9804688-.230957-4.4555664-.5939941-6.1054688l3.8286133.5605469c-.0991211.4619141-.2971191.7919922-1.0891113.9243164v7.0961914h8.6472168l1.6831055-2.1123047Z"/>
        <path class="cls-1" d="m1001.599044,6.4345703c1.3203125.0991211,2.1452637.2641602,3.1025391.7587891.9240723.4624023,2.0131836,1.4853516,2.0131836,2.1123047,0,.6933594-.6931152.7265625-1.3200684,1.7495117-.5612793.8911133-1.3532715,2.0795898-2.2114258,3.300293.230957.0332031.4951172.0332031.8251953.0332031,1.1220703,0,4.9836426-.296875,6.0397949-.3959961.9572754-.1323242,1.1882324-.7260742,1.6833496-.7260742.7919922,0,2.8713379,1.8154297,2.8713379,2.6733398,0,.7260742-1.0561523.8911133-1.6171875,1.5180664-1.3862305,1.6835938-3.5314941,4.3237305-6.072998,6.9311523,1.0891113.8579102,1.9143066,1.6503906,2.5085449,2.2773438.7260742.7924805,1.5510254,1.8813477,1.5510254,2.7724609,0,.7260742-.329834,1.2871094-1.0229492,1.2871094-.7263184,0-.9902344-.4951172-1.6174316-1.4848633-2.1452637-3.3999023-5.0495605-5.6772461-8.3500977-7.9873047l.4951172-.6601562c2.1123047.8911133,3.8945312,1.9472656,5.3466797,3.003418,2.4094238-2.8051758,4.5546875-5.875,5.4128418-7.7563477.197998-.4287109.098877-.527832-.3300781-.527832-1.1552734,0-4.7856445.3959961-6.0397949.5610352-.6931152.1318359-.9902344.296875-1.3532715.296875-.263916,0-.6931152-.2636719-1.1552734-.6928711-.5280762.7260742-1.0891113,1.4521484-1.6501465,2.1123047-2.0463867,2.4750977-4.7197266,5.4125977-7.5910645,7.5249023l-.6931152-.6601562c2.4094238-2.3759766,4.8186035-5.1157227,6.8320312-7.8549805,1.6501465-2.2114258,3.5644531-5.3139648,4.2905273-7.2612305.197998-.4951172.1650391-.7587891-.296875-1.1552734-.4951172-.4287109-1.1882324-.7587891-1.9143066-1.0888672l.263916-.6601562Z"/>
        <path class="cls-1" d="m1022.5853721,28.0527344c0-2.5415039,2.1123047-4.6206055,4.6535645-4.6206055,2.5415039,0,4.6208496,2.0791016,4.6208496,4.6206055,0,2.5410156-2.0793457,4.6533203-4.6208496,4.6533203-2.5412598,0-4.6535645-2.1123047-4.6535645-4.6533203Zm1.1220703,0c0,1.9472656,1.5512695,3.53125,3.5314941,3.53125,1.9472656,0,3.4985352-1.5839844,3.4985352-3.53125s-1.5512695-3.4985352-3.4985352-3.4985352c-1.9802246,0-3.5314941,1.5512695-3.5314941,3.4985352Z"/>
      </g>
    </g>
  </g>
</svg>